<?xml version="1.0" encoding="UTF-8"?>
<svg width="25px" height="27px" viewBox="0 0 25 27" version="1.1" xmlns="http://www.w3.org/2000/svg" xmlns:xlink="http://www.w3.org/1999/xlink">
    <!-- Generator: Sketch 48.1 (47250) - http://www.bohemiancoding.com/sketch -->
    <title>calendar</title>
    <desc>Created with Sketch.</desc>
    <defs>
        <polygon id="path-1" points="24.8894444 26.96625 0.0333333333 26.96625 0.0333333333 0 12.4613889 0 24.8894444 0 24.8894444 26.96625"></polygon>
    </defs>
    <g id="DASHBOARD-MOBILE" stroke="none" stroke-width="1" fill="none" fill-rule="evenodd" transform="translate(-256.000000, -1385.000000)">
        <g id="Group-10" transform="translate(244.000000, 1385.000000)">
            <g id="calendar" transform="translate(12.000000, 0.000000)">
                <g id="Group-3">
                    <mask id="mask-2" fill="white">
                        <use xlink:href="#path-1"></use>
                    </mask>
                    <g id="Clip-2"></g>
                    <path d="M24.4444444,1.7994375 L21.3322222,1.7994375 L21.3322222,0.4505625 C21.3322222,0.2019375 21.135,0 20.89,0 L17.7777778,0 C17.5327778,0 17.3327778,0.2019375 17.3327778,0.4505625 L17.3327778,1.7994375 L7.55666667,1.7994375 L7.55666667,0.4505625 C7.55666667,0.2019375 7.35666667,0 7.11166667,0 L3.99944444,0 C3.75444444,0 3.55444444,0.2019375 3.55444444,0.4505625 L3.55444444,1.7994375 L0.445,1.7994375 C0.199444444,1.7994375 0,2.0019375 0,2.25 L0,26.5494375 C0,26.7980625 0.199444444,27 0.445,27 L24.4444444,27 C24.6894444,27 24.8894444,26.7980625 24.8894444,26.5494375 L24.8894444,2.25 C24.8894444,2.0019375 24.6894444,1.7994375 24.4444444,1.7994375 Z M18.2227778,3.598875 L20.445,3.598875 L20.445,0.901125 L18.2227778,0.901125 L18.2227778,3.598875 Z M4.44444444,3.598875 L6.66666667,3.598875 L6.66666667,0.901125 L4.44444444,0.901125 L4.44444444,3.598875 Z M0.89,2.7005625 L3.55444444,2.7005625 L3.55444444,4.0494375 C3.55444444,4.2980625 3.75444444,4.5 3.99944444,4.5 L7.11166667,4.5 C7.35666667,4.5 7.55666667,4.2980625 7.55666667,4.0494375 L7.55666667,2.7005625 L17.3327778,2.7005625 L17.3327778,4.0494375 C17.3327778,4.2980625 17.5327778,4.5 17.7777778,4.5 L20.89,4.5 C21.135,4.5 21.3322222,4.2980625 21.3322222,4.0494375 L21.3322222,2.7005625 L23.9994444,2.7005625 L23.9994444,6.75 L0.89,6.75 L0.89,2.7005625 Z M0.89,26.098875 L23.9994444,26.098875 L23.9994444,7.651125 L0.89,7.651125 L0.89,26.098875 Z" id="Fill-1" fill="#FFFFFF" mask="url(#mask-2)"></path>
                </g>
                <path d="M16.0445029,10.3846154 L4.08163265,10.3846154 L4.08163265,23.3653846 L20.9183673,23.3653846 L20.9183673,10.3846154 L16.0445029,10.3846154 Z M12.9421976,14.4146732 L16.0445029,14.4146732 L16.0445029,11.2808054 L12.9421976,11.2808054 L12.9421976,14.4146732 Z M12.9421976,18.4419339 L16.0445029,18.4419339 L16.0445029,15.3080661 L12.9421976,15.3080661 L12.9421976,18.4419339 Z M8.95549714,18.4419339 L12.0578024,18.4419339 L12.0578024,15.3080661 L8.95549714,15.3080661 L8.95549714,18.4419339 Z M8.95549714,14.4146732 L12.0578024,14.4146732 L12.0578024,11.2808054 L8.95549714,11.2808054 L8.95549714,14.4146732 Z M4.96879672,14.4146732 L8.06833308,14.4146732 L8.06833308,11.2808054 L4.96879672,11.2808054 L4.96879672,14.4146732 Z M4.96879672,18.4419339 L8.06833308,18.4419339 L8.06833308,15.3080661 L4.96879672,15.3080661 L4.96879672,18.4419339 Z M4.96879672,22.4691946 L8.06833308,22.4691946 L8.06833308,19.3353268 L4.96879672,19.3353268 L4.96879672,22.4691946 Z M8.95549714,22.4691946 L12.0578024,22.4691946 L12.0578024,19.3353268 L8.95549714,19.3353268 L8.95549714,22.4691946 Z M12.9421976,22.4691946 L16.0445029,22.4691946 L16.0445029,19.3353268 L12.9421976,19.3353268 L12.9421976,22.4691946 Z M16.928898,22.4691946 L20.0312033,22.4691946 L20.0312033,19.3353268 L16.928898,19.3353268 L16.928898,22.4691946 Z M16.928898,18.4419339 L20.0312033,18.4419339 L20.0312033,15.3080661 L16.928898,15.3080661 L16.928898,18.4419339 Z M16.928898,14.4146732 L20.0312033,14.4146732 L20.0312033,11.2808054 L16.928898,11.2808054 L16.928898,14.4146732 Z" id="Fill-4" fill="#FFFFFF"></path>
            </g>
        </g>
    </g>
</svg>