<?xml version="1.0" encoding="UTF-8"?>
<svg width="61px" height="65px" viewBox="0 0 61 65" version="1.1" xmlns="http://www.w3.org/2000/svg" xmlns:xlink="http://www.w3.org/1999/xlink">
    <!-- Generator: Sketch 48.2 (47327) - http://www.bohemiancoding.com/sketch -->
    <title>calendar</title>
    <desc>Created with Sketch.</desc>
    <defs>
        <polygon id="path-1" points="60.7302444 64.9853333 0.0813333333 64.9853333 0.0813333333 0 30.4057889 0 60.7302444 0 60.7302444 64.9853333"></polygon>
    </defs>
    <g id="TAREAS-COORDINA" stroke="none" stroke-width="1" fill="none" fill-rule="evenodd" transform="translate(-411.000000, -128.000000)">
        <g id="calendar" transform="translate(411.000000, 128.000000)">
            <g id="Group-3">
                <mask id="mask-2" fill="white">
                    <use xlink:href="#path-1"></use>
                </mask>
                <g id="Clip-2"></g>
                <path d="M59.6444444,4.33642222 L52.0506222,4.33642222 L52.0506222,1.0858 C52.0506222,0.486644444 51.5694,0 50.9716,0 L43.3777778,0 C42.7799778,0 42.2919778,0.486644444 42.2919778,1.0858 L42.2919778,4.33642222 L18.4382667,4.33642222 L18.4382667,1.0858 C18.4382667,0.486644444 17.9502667,0 17.3524667,0 L9.75864444,0 C9.16084444,0 8.67284444,0.486644444 8.67284444,1.0858 L8.67284444,4.33642222 L1.0858,4.33642222 C0.486644444,4.33642222 0,4.82442222 0,5.42222222 L0,63.9808667 C0,64.5800222 0.486644444,65.0666667 1.0858,65.0666667 L59.6444444,65.0666667 C60.2422444,65.0666667 60.7302444,64.5800222 60.7302444,63.9808667 L60.7302444,5.42222222 C60.7302444,4.82442222 60.2422444,4.33642222 59.6444444,4.33642222 Z M44.4635778,8.67284444 L49.8858,8.67284444 L49.8858,2.1716 L44.4635778,2.1716 L44.4635778,8.67284444 Z M10.8444444,8.67284444 L16.2666667,8.67284444 L16.2666667,2.1716 L10.8444444,2.1716 L10.8444444,8.67284444 Z M2.1716,6.50802222 L8.67284444,6.50802222 L8.67284444,9.75864444 C8.67284444,10.3578 9.16084444,10.8444444 9.75864444,10.8444444 L17.3524667,10.8444444 C17.9502667,10.8444444 18.4382667,10.3578 18.4382667,9.75864444 L18.4382667,6.50802222 L42.2919778,6.50802222 L42.2919778,9.75864444 C42.2919778,10.3578 42.7799778,10.8444444 43.3777778,10.8444444 L50.9716,10.8444444 C51.5694,10.8444444 52.0506222,10.3578 52.0506222,9.75864444 L52.0506222,6.50802222 L58.5586444,6.50802222 L58.5586444,16.2666667 L2.1716,16.2666667 L2.1716,6.50802222 Z M2.1716,62.8950667 L58.5586444,62.8950667 L58.5586444,18.4382667 L2.1716,18.4382667 L2.1716,62.8950667 Z" id="Fill-1" fill="#4A4A4A" mask="url(#mask-2)"></path>
            </g>
            <path d="M39.148587,25.025641 L9.95918367,25.025641 L9.95918367,56.3076923 L51.0408163,56.3076923 L51.0408163,25.025641 L39.148587,25.025641 Z M31.5789621,34.7375828 L39.148587,34.7375828 L39.148587,27.1853482 L31.5789621,27.1853482 L31.5789621,34.7375828 Z M31.5789621,44.442784 L39.148587,44.442784 L39.148587,36.8905494 L31.5789621,36.8905494 L31.5789621,44.442784 Z M21.851413,44.442784 L29.4210379,44.442784 L29.4210379,36.8905494 L21.851413,36.8905494 L21.851413,44.442784 Z M21.851413,34.7375828 L29.4210379,34.7375828 L29.4210379,27.1853482 L21.851413,27.1853482 L21.851413,34.7375828 Z M12.123864,34.7375828 L19.6867327,34.7375828 L19.6867327,27.1853482 L12.123864,27.1853482 L12.123864,34.7375828 Z M12.123864,44.442784 L19.6867327,44.442784 L19.6867327,36.8905494 L12.123864,36.8905494 L12.123864,44.442784 Z M12.123864,54.1479851 L19.6867327,54.1479851 L19.6867327,46.5957505 L12.123864,46.5957505 L12.123864,54.1479851 Z M21.851413,54.1479851 L29.4210379,54.1479851 L29.4210379,46.5957505 L21.851413,46.5957505 L21.851413,54.1479851 Z M31.5789621,54.1479851 L39.148587,54.1479851 L39.148587,46.5957505 L31.5789621,46.5957505 L31.5789621,54.1479851 Z M41.3065111,54.1479851 L48.876136,54.1479851 L48.876136,46.5957505 L41.3065111,46.5957505 L41.3065111,54.1479851 Z M41.3065111,44.442784 L48.876136,44.442784 L48.876136,36.8905494 L41.3065111,36.8905494 L41.3065111,44.442784 Z M41.3065111,34.7375828 L48.876136,34.7375828 L48.876136,27.1853482 L41.3065111,27.1853482 L41.3065111,34.7375828 Z" id="Fill-4" fill="#000000"></path>
        </g>
    </g>
</svg>