<?xml version="1.0" encoding="UTF-8"?>
<svg width="35px" height="35px" viewBox="0 0 35 35" version="1.1" xmlns="http://www.w3.org/2000/svg" xmlns:xlink="http://www.w3.org/1999/xlink">
    <!-- Generator: Sketch 48.1 (47250) - http://www.bohemiancoding.com/sketch -->
    <title>coin</title>
    <desc>Created with Sketch.</desc>
    <defs>
        <polygon id="path-1" points="0 35 35 35 35 0 0 0"></polygon>
    </defs>
    <g id="DASHBOARD" stroke="none" stroke-width="1" fill="none" fill-rule="evenodd" transform="translate(-948.000000, -226.000000)">
        <g id="coin" transform="translate(948.000000, 226.000000)">
            <mask id="mask-2" fill="white">
                <use xlink:href="#path-1"></use>
            </mask>
            <g id="Clip-2"></g>
            <path d="M18.8448641,17.0482422 L16.1626287,17.0482422 C15.0485049,17.0482422 14.1415862,16.1580366 14.1415862,15.0636036 C14.1415862,13.9696423 15.0485049,13.0789651 16.1626287,13.0789651 L20.8966463,13.0789651 C21.4040443,13.0789651 21.8190309,12.6714534 21.8190309,12.1732892 C21.8190309,11.675408 21.4040443,11.2678964 20.8966463,11.2678964 L18.4298774,11.2678964 L18.4298774,9.41890639 C18.4298774,8.92064788 18.0147948,8.51351351 17.5074928,8.51351351 C17.0005751,8.51351351 16.5854924,8.92064788 16.5854924,9.41890639 L16.5854924,11.2678964 L16.1626287,11.2678964 C14.0342853,11.2678964 12.2972973,12.9732196 12.2972973,15.0636036 C12.2972973,17.154082 14.0342853,18.8597826 16.1626287,18.8597826 L18.8448641,18.8597826 C19.9593721,18.8597826 20.8659066,19.7499881 20.8659066,20.8444211 C20.8659066,21.9383825 19.9593721,22.8290596 18.8448641,22.8290596 L14.0264082,22.8290596 C13.5191063,22.8290596 13.1040236,23.2365713 13.1040236,23.7347355 C13.1040236,24.2326167 13.5191063,24.6401284 14.0264082,24.6401284 L16.5776154,24.6401284 L16.5776154,26.5267566 C16.5776154,27.0249207 16.9926981,27.4324324 17.5,27.4324324 C18.0073019,27.4324324 18.4223846,27.0249207 18.4223846,26.5267566 L18.4223846,24.6401284 L18.8909737,24.6401284 C20.9964544,24.6099423 22.7027027,22.9197121 22.7027027,20.8444211 C22.7027027,18.7462075 20.9735918,17.0482422 18.8448641,17.0482422 Z" id="Fill-1" fill="#FFFFFF" mask="url(#mask-2)"></path>
            <path d="M29.8766888,5.12331117 C26.5703059,1.81702128 22.1764096,0 17.5,0 C12.8235904,0 8.42969415,1.81702128 5.12331117,5.12331117 C1.81702128,8.42969415 0,12.8235904 0,17.5 C0,22.1764096 1.81702128,26.5703059 5.12331117,29.8766888 C8.42969415,33.1829787 12.8235904,35 17.5,35 C22.1764096,35 26.5703059,33.1829787 29.8766888,29.8766888 C33.1829787,26.5703059 35,22.1764096 35,17.5 C35,12.8235904 33.1829787,8.42969415 29.8766888,5.12331117 Z M17.5,33.212859 C8.83945479,33.212859 1.78714096,26.1605452 1.78714096,17.5 C1.78714096,8.83945479 8.83945479,1.78714096 17.5,1.78714096 C26.1605452,1.78714096 33.212859,8.83945479 33.212859,17.5 C33.212859,26.1605452 26.1605452,33.212859 17.5,33.212859 Z" id="Fill-3" fill="#FFFFFF" mask="url(#mask-2)"></path>
        </g>
    </g>
</svg>