<?xml version="1.0"?>
<svg xmlns="http://www.w3.org/2000/svg" xmlns:xlink="http://www.w3.org/1999/xlink" version="1.1" viewBox="0 0 297 297" enable-background="new 0 0 297 297" width="512px" height="512px" class=""><g><g>
    <path d="m137.655,123.607l-39.361-35.107c-3.793-3.383-9.52-3.383-13.313,0l-39.365,35.107c-2.127,1.897-3.344,4.612-3.344,7.463v60.689c0,5.522 4.478,10 10,10h78.727c5.522,0 10-4.478 10-10v-60.689c0-2.85-1.217-5.565-3.344-7.463zm-16.656,58.153h-58.727v-46.209l29.365-26.188 29.361,26.188v46.209z" data-original="#000000" class="active-path" data-old_color="#000000" fill="#FFFFFF"/>
    <path d="m235.732,187.648c3.866,0 7-3.134 7-7v-26.791c0-3.866-3.134-7-7-7-3.866,0-7,3.134-7,7v26.791c0,3.867 3.134,7 7,7z" data-original="#000000" class="active-path" data-old_color="#000000" fill="#FFFFFF"/>
    <path d="M288.5,19.441H8.5c-4.694,0-8.5,3.806-8.5,8.5v241.117c0,4.694,3.806,8.5,8.5,8.5h280c4.694,0,8.5-3.806,8.5-8.5V27.941   C297,23.247,293.194,19.441,288.5,19.441z M17,227.559V69.441h154.552v158.117H17z M280,69.441v37.033h-91.448V69.441H280z    M188.552,120.475H280v107.084h-91.448V120.475z M280,36.441v16H17v-16H280z M17,260.559v-16h263v16H17z" data-original="#000000" class="active-path" data-old_color="#000000" fill="#FFFFFF"/>
    <path d="m258.218,155.616c-2.856-2.604-7.284-2.402-9.89,0.452-2.605,2.856-2.403,7.283 0.452,9.89 4.11,3.75 6.468,9.105 6.468,14.69 0,10.915-8.756,19.795-19.518,19.795-10.759,0-19.512-8.88-19.512-19.795 0-5.793 2.501-11.277 6.86-15.046 2.925-2.528 3.247-6.948 0.719-9.873-2.528-2.925-6.948-3.245-9.873-0.719-7.439,6.43-11.706,15.775-11.706,25.638 0,18.635 15.033,33.795 33.512,33.795 18.481,0 33.518-15.16 33.518-33.795-5.68434e-14-9.511-4.021-18.635-11.03-25.032z" data-original="#000000" class="active-path" data-old_color="#000000" fill="#FFFFFF"/>
    <path d="m213.546,92.95c1.3,1.31 3.11,2.05 4.95,2.05s3.649-0.74 4.95-2.05c1.3-1.301 2.05-3.101 2.05-4.95 0-1.84-0.75-3.641-2.05-4.95-1.301-1.3-3.11-2.05-4.95-2.05s-3.641,0.75-4.95,2.05c-1.3,1.31-2.05,3.11-2.05,4.95 2.84217e-14,1.85 0.75,3.649 2.05,4.95z" data-original="#000000" class="active-path" data-old_color="#000000" fill="#FFFFFF"/>
    <path d="m253.496,95c1.85,0 3.649-0.74 4.95-2.05 1.31-1.301 2.05-3.101 2.05-4.95 0-1.84-0.74-3.641-2.05-4.95-1.301-1.3-3.101-2.05-4.95-2.05-1.84,0-3.641,0.75-4.95,2.05-1.3,1.31-2.05,3.11-2.05,4.95 0,1.85 0.75,3.649 2.05,4.95 1.309,1.31 3.11,2.05 4.95,2.05z" data-original="#000000" class="active-path" data-old_color="#000000" fill="#FFFFFF"/>
  </g></g> </svg>
