<?xml version="1.0" encoding="UTF-8"?>
<svg width="30px" height="28px" viewBox="0 0 30 28" version="1.1" xmlns="http://www.w3.org/2000/svg" xmlns:xlink="http://www.w3.org/1999/xlink">
    <!-- Generator: Sketch 48.1 (47250) - http://www.bohemiancoding.com/sketch -->
    <title>exit</title>
    <desc>Created with Sketch.</desc>
    <defs></defs>
    <g id="DASHBOARD" stroke="none" stroke-width="1" fill="none" fill-rule="evenodd" transform="translate(-1220.000000, -41.000000)">
        <g id="Group-7" transform="translate(356.000000, 34.000000)" fill="#0073D1">
            <g id="exit" transform="translate(864.000000, 7.000000)">
                <path d="M29.5395349,12.4116364 C29.5939535,12.2875455 29.5939535,12.1481818 29.5395349,12.0240909 C29.5095349,11.9617273 29.4683721,11.9044545 29.4167442,11.8573636 L22.7204651,5.74954545 C22.5027907,5.551 22.1483721,5.551 21.9306977,5.74954545 C21.7123256,5.94872727 21.7123256,6.26945455 21.9306977,6.468 L27.6753488,11.7078182 L15.6265116,11.7078182 C15.3188372,11.7078182 15.0711628,11.9369091 15.0711628,12.2175455 C15.0711628,12.4988182 15.3188372,12.7272727 15.6265116,12.7272727 L27.6753488,12.7272727 L21.9306977,17.9670909 C21.7123256,18.1662727 21.7123256,18.4895455 21.9306977,18.6880909 C22.0395349,18.7873636 22.1839535,18.8376364 22.3255814,18.8376364 C22.4672093,18.8376364 22.6116279,18.7873636 22.7204651,18.6880909 L29.4167442,12.5783636 C29.4683721,12.5306364 29.5095349,12.4759091 29.5395349,12.4116364 Z" id="Fill-1"></path>
                <path d="M19.5348837,14.763 C19.8425581,14.763 20.0937209,14.9920909 20.0937209,15.2727273 L20.0937209,23.9285455 C20.0937209,24.2091818 19.8425581,24.4350909 19.5348837,24.4350909 L13.3946512,24.4350909 L13.3946512,27.4902727 C13.3946512,27.6544545 13.3102326,27.8059091 13.165814,27.9032727 C13.0702326,27.965 12.9530233,28 12.835814,28 C12.7813953,28 12.724186,27.9923636 12.6697674,27.9777273 L0.39,24.4128182 C0.378837209,24.4102727 0.373255814,24.4032727 0.362790698,24.4007273 C0.340465116,24.3930909 0.321627907,24.3829091 0.302790698,24.3733636 C0.261627907,24.3536364 0.226046512,24.3307273 0.193255814,24.3059091 C0.177209302,24.2912727 0.160465116,24.276 0.144418605,24.2613636 C0.114418605,24.2289091 0.09,24.1964545 0.0711627907,24.1595455 C0.06,24.1423636 0.0488372093,24.1270909 0.0411627907,24.1073636 C0.0160465116,24.0500909 0,23.9902727 0,23.9285455 L0,0.509727273 C0,0.447363636 0.0160465116,0.387545455 0.038372093,0.330909091 C0.043255814,0.320727273 0.0460465116,0.310545455 0.051627907,0.301 C0.0760465116,0.248818182 0.111627907,0.203636364 0.155581395,0.161636364 C0.163255814,0.151454545 0.171627907,0.144454545 0.182790698,0.136818182 C0.198837209,0.124090909 0.212790698,0.109454545 0.228837209,0.0967272727 C0.242790698,0.0897272727 0.258837209,0.0897272727 0.275581395,0.0795454545 C0.318837209,0.0547272727 0.367674419,0.0375454545 0.42,0.0248181818 C0.45,0.0171818182 0.477209302,0.0127272727 0.507209302,0.0101818182 C0.526046512,0.00763636364 0.539302326,0 0.558837209,0 L19.5348837,0 C19.8425581,0 20.0937209,0.228454545 20.0937209,0.509727273 L20.0937209,9.16236364 C20.0937209,9.44618182 19.8425581,9.67209091 19.5348837,9.67209091 C19.2272093,9.67209091 18.9760465,9.44618182 18.9760465,9.16236364 L18.9760465,1.01945455 L4.15325581,1.01945455 L13.0053488,3.58718182 C13.2369767,3.654 13.3946512,3.85063636 13.3946512,4.07145455 L13.3946512,23.4188182 L18.9760465,23.4188182 L18.9760465,15.2727273 C18.9760465,14.9920909 19.2272093,14.763 19.5348837,14.763 Z M12.2804651,26.7940909 L12.2804651,4.44436364 L1.11767442,1.20590909 L1.11767442,23.5556364 L12.2804651,26.7940909 Z" id="Fill-2"></path>
            </g>
        </g>
    </g>
</svg>