<?xml version="1.0" encoding="UTF-8"?>
<svg width="28px" height="23px" viewBox="0 0 28 23" version="1.1" xmlns="http://www.w3.org/2000/svg" xmlns:xlink="http://www.w3.org/1999/xlink">
    <!-- Generator: Sketch 48.1 (47250) - http://www.bohemiancoding.com/sketch -->
    <title>folder</title>
    <desc>Created with Sketch.</desc>
    <defs></defs>
    <g id="PROYECTOS-HOME" stroke="none" stroke-width="1" fill="none" fill-rule="evenodd" transform="translate(-76.000000, -612.000000)">
        <g id="Group-4" transform="translate(0.000000, 603.000000)" fill="#FFFFFF">
            <path d="M102.828667,16.5109824 L101.199417,16.5109824 L101.199417,13.5678461 C101.199417,12.8596393 100.62775,12.2869716 99.926,12.2869716 L88.3730833,12.2869716 L86.03975,9 L77.2763333,9 C76.5716667,9 76,9.57501467 76,10.2832215 L76,30.7901222 L76.0023333,30.7901222 C76,31.0535728 76.08225,31.3123294 76.2461667,31.5282533 C76.4736667,31.8280823 76.8201667,32 77.1964167,32 L98.0844167,32 C98.6245833,32 99.0988333,31.6356285 99.2283333,31.1497997 L104,17.9890048 L104,17.9045129 C104,17.0977321 103.507667,16.5109824 102.828667,16.5109824 Z M76.9345,10.2832215 C76.9345,10.0931146 77.08675,9.93997296 77.2763333,9.93997296 L85.5590833,9.93997296 L87.8924167,13.2240108 L99.9236667,13.2240108 C100.112667,13.2240108 100.2655,13.3777392 100.2655,13.5678461 L100.2655,16.5109824 L81.9406667,16.5109824 C81.8741667,16.5109824 81.80825,16.5156764 81.7423333,16.5268247 C81.2885,16.6048624 80.9105,16.9369627 80.7990833,17.3611827 L76.9345,27.9637491 L76.9345,10.2832215 Z M98.3399167,30.8658129 C98.3078333,30.9802291 98.2028333,31.0629608 98.0844167,31.0629608 L77.1964167,31.0629608 C77.0844167,31.0629608 77.0161667,30.9960713 76.98875,30.9573459 C76.9595833,30.9180336 76.9135,30.8382357 76.9298333,30.767239 L81.6851667,17.6451695 C81.71725,17.5307533 81.8216667,17.4480216 81.9406667,17.4480216 L102.828667,17.4480216 C103.006583,17.4480216 103.052083,17.705018 103.06375,17.8335162 L98.3399167,30.8658129 Z" id="folder"></path>
        </g>
    </g>
</svg>