<?xml version="1.0" encoding="UTF-8"?>
<svg width="61px" height="50px" viewBox="0 0 61 50" version="1.1" xmlns="http://www.w3.org/2000/svg" xmlns:xlink="http://www.w3.org/1999/xlink">
    <!-- Generator: Sketch 48.1 (47250) - http://www.bohemiancoding.com/sketch -->
    <title>folder</title>
    <desc>Created with Sketch.</desc>
    <defs></defs>
    <g id="HOME-PROYECTOS" stroke="none" stroke-width="1" fill="none" fill-rule="evenodd" transform="translate(-411.000000, -130.000000)">
        <path d="M469.448167,146.082774 L465.898729,146.082774 L465.898729,139.780829 C465.898729,138.264392 464.653312,137.038177 463.1245,137.038177 L437.955646,137.038177 L432.872313,130 L413.780583,130 C412.245417,130 411,131.231241 411,132.747678 L411,176.657759 L411.005083,176.657759 C411,177.221869 411.179188,177.775927 411.536292,178.238271 C412.031917,178.880275 412.786792,179.248391 413.606479,179.248391 L459.112479,179.248391 C460.289271,179.248391 461.322458,178.468186 461.604583,177.427913 L472,149.247566 L472,149.066649 C472,147.339143 470.927417,146.082774 469.448167,146.082774 Z M413.035875,132.747678 C413.035875,132.340615 413.367563,132.012702 413.780583,132.012702 L431.825146,132.012702 L436.908479,139.044597 L463.119417,139.044597 C463.531167,139.044597 463.864125,139.373766 463.864125,139.780829 L463.864125,146.082774 L423.942167,146.082774 C423.797292,146.082774 423.653687,146.092825 423.510083,146.116696 C422.521375,146.283793 421.697875,146.994898 421.455146,147.903252 L413.035875,170.605832 L413.035875,132.747678 Z M459.669104,176.819831 C459.599208,177.064823 459.370458,177.241971 459.112479,177.241971 L413.606479,177.241971 C413.362479,177.241971 413.213792,177.098745 413.154063,177.015824 C413.090521,176.931648 412.990125,176.760782 413.025708,176.608761 L423.385542,148.511334 C423.455438,148.266343 423.682917,148.089195 423.942167,148.089195 L469.448167,148.089195 C469.835771,148.089195 469.934896,148.639484 469.960312,148.914629 L459.669104,176.819831 Z" id="folder" fill="#3B4045"></path>
    </g>
</svg>