<?xml version="1.0" encoding="UTF-8"?>
<svg width="40px" height="40px" viewBox="0 0 40 40" version="1.1" xmlns="http://www.w3.org/2000/svg" xmlns:xlink="http://www.w3.org/1999/xlink">
    <!-- Generator: Sketch 48.1 (47250) - http://www.bohemiancoding.com/sketch -->
    <title>Group</title>
    <desc>Created with Sketch.</desc>
    <defs>
        <polygon id="path-1" points="0 40 40 40 40 0 0 0"></polygon>
    </defs>
    <g id="LOGIN-HD" stroke="none" stroke-width="1" fill="none" fill-rule="evenodd" transform="translate(-548.000000, -516.000000)">
        <g id="Group" transform="translate(548.000000, 516.000000)">
            <mask id="mask-2" fill="white">
                <use xlink:href="#path-1"></use>
            </mask>
            <g id="Clip-2"></g>
            <path d="M40,20 C40,8.97363636 31.0263636,0 20,0 C8.97363636,0 0,8.97363636 0,20 C0,25.8236364 2.50363636,31.0763636 6.49181818,34.7336364 L6.47363636,34.7518182 L7.12,35.2981818 C7.16272727,35.3336364 7.20909091,35.3618182 7.25181818,35.3981818 C7.59545455,35.6818182 7.95454545,35.9518182 8.31636364,36.2145455 C8.43363636,36.3 8.55090909,36.3845455 8.67181818,36.47 C9.06272727,36.7363636 9.46,36.9918182 9.86818182,37.23 C9.95727273,37.2836364 10.0463636,37.3327273 10.1345455,37.3863636 C10.5790909,37.6381818 11.0372727,37.88 11.5018182,38.0963636 C11.5372727,38.1145455 11.57,38.1281818 11.6054545,38.1463636 C13.1254545,38.8490909 14.7481818,39.3681818 16.4418182,39.6772727 C16.4881818,39.6836364 16.5309091,39.6909091 16.5763636,39.6981818 C17.1018182,39.7909091 17.6345455,39.8618182 18.1745455,39.9109091 C18.2381818,39.9181818 18.3063636,39.9218182 18.37,39.9290909 C18.9063636,39.9718182 19.45,40 20,40 C20.5436364,40 21.0827273,39.9718182 21.6154545,39.9290909 C21.6836364,39.9218182 21.7509091,39.9181818 21.8181818,39.9145455 C22.3545455,39.8654545 22.88,39.7936364 23.4018182,39.7054545 C23.4481818,39.6981818 23.4945455,39.6872727 23.5409091,39.68 C25.2090909,39.3818182 26.8072727,38.8745455 28.3063636,38.1854545 C28.3627273,38.1609091 28.42,38.1354545 28.4727273,38.1109091 C28.9236364,37.8981818 29.3609091,37.6709091 29.7909091,37.4290909 C29.8972727,37.3681818 30.0036364,37.3081818 30.11,37.2445455 C30.5009091,37.0136364 30.8881818,36.7754545 31.2609091,36.5163636 C31.3954545,36.4272727 31.5272727,36.3281818 31.6581818,36.2318182 C31.9781818,36.0045455 32.2936364,35.7672727 32.5954545,35.5181818 C32.6636364,35.4654545 32.7381818,35.4154545 32.8054545,35.3618182 L33.4690909,34.8045455 L33.4481818,34.7872727 C37.4718182,31.1290909 40,25.8554545 40,20 Z M1.45636364,20 C1.45636364,9.77272727 9.77272727,1.45636364 20,1.45636364 C30.2272727,1.45636364 38.5436364,9.77272727 38.5436364,20 C38.5436364,25.5109091 36.1254545,30.4654545 32.2972727,33.8636364 C32.0845455,33.7181818 31.8718182,33.5827273 31.6472727,33.4727273 L25.49,30.3945455 C24.94,30.1172727 24.5954545,29.5636364 24.5954545,28.9454545 L24.5954545,26.7936364 C24.7372727,26.6190909 24.89,26.42 25.0427273,26.2 C25.8418182,25.0745455 26.4809091,23.8209091 26.9463636,22.4754545 C27.8690909,22.0381818 28.4627273,21.1181818 28.4627273,20.0818182 L28.4627273,17.5036364 C28.4627273,16.8745455 28.2318182,16.2645455 27.82,15.7809091 L27.82,12.3863636 C27.8554545,12.01 27.99,9.87909091 26.4490909,8.12181818 C25.11,6.59454545 22.94,5.81636364 20,5.81636364 C17.06,5.81636364 14.89,6.59454545 13.5509091,8.12181818 C12.01,9.87909091 12.1445455,12.01 12.18,12.3863636 L12.18,15.7809091 C11.7681818,16.2609091 11.5372727,16.8745455 11.5372727,17.5036364 L11.5372727,20.0818182 C11.5372727,20.8845455 11.8963636,21.63 12.5109091,22.1345455 C13.1,24.4427273 14.3109091,26.19 14.7618182,26.7790909 L14.7618182,28.8845455 C14.7618182,29.4781818 14.4354545,30.0245455 13.9172727,30.3090909 L8.16363636,33.4445455 C7.98272727,33.5436364 7.79818182,33.6609091 7.61727273,33.7927273 C3.83909091,30.3945455 1.45636364,25.4727273 1.45636364,20 Z M30.8809091,35.0036364 C30.6254545,35.1881818 30.3654545,35.3690909 30.1027273,35.54 C29.9818182,35.6181818 29.8618182,35.6963636 29.7409091,35.7745455 C29.3963636,35.9872727 29.0481818,36.1863636 28.69,36.3781818 C28.6118182,36.4172727 28.5336364,36.4563636 28.4554545,36.4981818 C27.6345455,36.9172727 26.7863636,37.28 25.9163636,37.5709091 C25.8881818,37.5818182 25.8554545,37.5927273 25.8236364,37.6027273 C25.3690909,37.7554545 24.9072727,37.8872727 24.4390909,38.0045455 L24.4354545,38.0045455 C23.9627273,38.1218182 23.4872727,38.2172727 23.0081818,38.2990909 C22.9936364,38.2990909 22.9790909,38.3027273 22.9690909,38.3063636 C22.5181818,38.3772727 22.06,38.43 21.6054545,38.4727273 C21.5236364,38.48 21.4418182,38.4836364 21.36,38.4909091 C20.9090909,38.5227273 20.4545455,38.5436364 20,38.5436364 C19.5381818,38.5436364 19.08,38.5227273 18.6218182,38.4872727 C18.5436364,38.4836364 18.4627273,38.4763636 18.3845455,38.4690909 C17.9227273,38.43 17.4645455,38.3736364 17.01,38.3027273 L16.95,38.2918182 C15.9872727,38.1281818 15.0427273,37.8945455 14.1190909,37.5854545 C14.0909091,37.5745455 14.0627273,37.5636364 14.0345455,37.5536364 C13.5763636,37.4009091 13.1254545,37.2263636 12.6809091,37.0345455 C12.6772727,37.0345455 12.6736364,37.0345455 12.6709091,37.0309091 C12.2518182,36.85 11.8390909,36.6509091 11.4309091,36.4381818 C11.3781818,36.41 11.3245455,36.3845455 11.2709091,36.3563636 C10.8981818,36.1572727 10.5363636,35.9445455 10.1772727,35.7209091 C10.0709091,35.6536364 9.96454545,35.5863636 9.86181818,35.5145455 C9.53090909,35.3018182 9.20454545,35.0745455 8.88818182,34.8363636 C8.85636364,34.8118182 8.82454545,34.7872727 8.79272727,34.7618182 L8.86,34.7227273 L14.6127273,31.5872727 C15.6,31.0472727 16.2145455,30.0109091 16.2145455,28.8845455 L16.2145455,26.2645455 L16.0472727,26.0618182 C16.03,26.0436364 14.46,24.1336364 13.8636364,21.5409091 L13.8,21.2536364 L13.5509091,21.0936364 C13.2,20.8663636 12.99,20.49 12.99,20.0818182 L12.99,17.5036364 C12.99,17.1663636 13.1354545,16.85 13.3945455,16.6118182 L13.6363636,16.3954545 L13.6363636,12.3472727 L13.6290909,12.2518182 C13.6290909,12.2336364 13.4127273,10.4827273 14.6445455,9.08 C15.6963636,7.88 17.5,7.27272727 20,7.27272727 C22.4927273,7.27272727 24.29,7.87636364 25.3409091,9.06636364 C26.5727273,10.4545455 26.3709091,12.2372727 26.3709091,12.2518182 L26.3636364,16.3990909 L26.6054545,16.6154545 C26.8645455,16.85 27.01,17.1663636 27.01,17.5036364 L27.01,20.0818182 C27.01,20.6 26.6545455,21.0727273 26.1509091,21.2290909 L25.7881818,21.3390909 L25.6709091,21.7009091 C25.2418182,23.0327273 24.6309091,24.2645455 23.8563636,25.3590909 C23.6645455,25.6281818 23.48,25.8663636 23.32,26.0509091 L23.1427273,26.2536364 L23.1427273,28.9454545 C23.1427273,30.1172727 23.7927273,31.1718182 24.84,31.6972727 L30.9981818,34.7763636 C31.0372727,34.7936364 31.0763636,34.8154545 31.1154545,34.8363636 C31.0372727,34.8936364 30.9590909,34.9463636 30.8809091,35.0036364 Z" id="Fill-1" fill="#0073D1" mask="url(#mask-2)"></path>
        </g>
    </g>
</svg>