<?xml version="1.0" encoding="iso-8859-1"?>
<!-- Generator: Adobe Illustrator 19.0.0, SVG Export Plug-In . SVG Version: 6.00 Build 0)  -->
<svg xmlns="http://www.w3.org/2000/svg" xmlns:xlink="http://www.w3.org/1999/xlink" version="1.1" id="Layer_1" x="0px" y="0px" viewBox="0 0 512 512" style="enable-background:new 0 0 512 512;" xml:space="preserve" width="512px" height="512px">
<g>
	<g>
		<path d="M73.143,182.857C32.812,182.857,0,215.67,0,256c0,40.33,32.812,73.143,73.143,73.143c40.33,0,73.143-32.813,73.143-73.143    C146.286,215.67,113.473,182.857,73.143,182.857z M73.143,310.857c-30.25,0-54.857-24.607-54.857-54.857    s24.607-54.857,54.857-54.857C103.393,201.143,128,225.75,128,256S103.393,310.857,73.143,310.857z" fill="#FFFFFF"/>
	</g>
</g>
<g>
	<g>
		<path d="M256,182.857c-40.331,0-73.143,32.813-73.143,73.143c0,40.33,32.812,73.143,73.143,73.143    c40.33,0,73.143-32.813,73.143-73.143C329.143,215.67,296.33,182.857,256,182.857z M256,310.857    c-30.25,0-54.857-24.607-54.857-54.857S225.75,201.143,256,201.143c30.25,0,54.857,24.607,54.857,54.857    S286.25,310.857,256,310.857z" fill="#FFFFFF"/>
	</g>
</g>
<g>
	<g>
		<path d="M438.857,182.857c-40.331,0-73.143,32.813-73.143,73.143c0,40.33,32.812,73.143,73.143,73.143    C479.187,329.143,512,296.33,512,256C512,215.67,479.187,182.857,438.857,182.857z M438.857,310.857    C408.607,310.857,384,286.25,384,256s24.607-54.857,54.857-54.857c30.25,0,54.857,24.607,54.857,54.857    S469.107,310.857,438.857,310.857z" fill="#FFFFFF"/>
	</g>
</g>
<g>
</g>
<g>
</g>
<g>
</g>
<g>
</g>
<g>
</g>
<g>
</g>
<g>
</g>
<g>
</g>
<g>
</g>
<g>
</g>
<g>
</g>
<g>
</g>
<g>
</g>
<g>
</g>
<g>
</g>
</svg>
