<?xml version="1.0" encoding="iso-8859-1"?>
<!-- Generator: Adobe Illustrator 19.0.0, SVG Export Plug-In . SVG Version: 6.00 Build 0)  -->
<svg xmlns="http://www.w3.org/2000/svg" xmlns:xlink="http://www.w3.org/1999/xlink" version="1.1" id="Layer_1" x="0px" y="0px" viewBox="0 0 512.001 512.001" style="enable-background:new 0 0 512.001 512.001;" xml:space="preserve" width="512px" height="512px">
<g>
	<g>
		<g>
			<path d="M278.744,358.734H423.69c4.462,0,8.079-3.616,8.079-8.079s-3.617-8.079-8.079-8.079H278.744     c-4.462,0-8.079,3.616-8.079,8.079S274.282,358.734,278.744,358.734z" fill="#FFFFFF"/>
			<path d="M278.744,212.011h72.474c4.462,0,8.079-3.616,8.079-8.079s-3.617-8.079-8.079-8.079h-72.474     c-4.462,0-8.079,3.616-8.079,8.079C270.665,208.395,274.282,212.011,278.744,212.011z" fill="#FFFFFF"/>
			<path d="M278.744,164.224H423.69c4.462,0,8.079-3.616,8.079-8.079s-3.617-8.079-8.079-8.079H278.744     c-4.462,0-8.079,3.616-8.079,8.079S274.282,164.224,278.744,164.224z" fill="#FFFFFF"/>
			<path d="M93.33,460.743h121.925c3.648,0,7.16-1.538,9.634-4.22c2.467-2.675,3.714-6.285,3.421-9.906     c-1.775-21.985-13.474-42.077-31.281-54.67c8.871-10.053,14.271-23.238,14.271-37.668v-16.663     c0-31.435-25.573-57.009-57.008-57.009c-31.434,0-57.008,25.573-57.008,57.009v16.663c0,14.43,5.399,27.615,14.271,37.667     c-17.807,12.593-29.506,32.686-31.281,54.67c-0.292,3.62,0.954,7.232,3.421,9.906C86.169,459.206,89.681,460.743,93.33,460.743z      M113.442,337.617c0-22.525,18.325-40.851,40.85-40.851s40.85,18.326,40.85,40.851v16.663c0,22.525-18.325,40.85-40.85,40.85     s-40.85-18.325-40.85-40.85C113.442,354.28,113.442,337.617,113.442,337.617z M124.449,402.826     c8.686,5.36,18.909,8.461,29.843,8.461c10.934,0,21.156-3.101,29.842-8.46c14.983,9.008,25.275,24.462,27.703,41.759H96.747     C99.175,427.289,109.467,411.835,124.449,402.826z" fill="#FFFFFF"/>
			<path d="M278.744,406.521h72.474c4.462,0,8.079-3.616,8.079-8.079c0-4.462-3.617-8.079-8.079-8.079h-72.474     c-4.462,0-8.079,3.617-8.079,8.079C270.665,402.905,274.282,406.521,278.744,406.521z" fill="#FFFFFF"/>
			<path d="M455.509,0H56.492C36.542,0,20.312,16.23,20.312,36.18v439.64c0,19.951,16.23,36.18,36.179,36.18h399.018     c19.949,0,36.179-16.23,36.179-36.18V36.18C491.689,16.23,475.459,0,455.509,0z M36.469,36.18     c0-11.04,8.983-20.023,20.023-20.023h399.018c11.04,0,20.022,8.983,20.022,20.023v13.547H36.469V36.18z M475.532,475.821h-0.001     c0,11.04-8.982,20.023-20.022,20.023H56.492c-11.04,0-20.022-8.983-20.022-20.023V65.885h439.062V475.821z" fill="#FFFFFF"/>
			<path d="M93.33,266.233h121.925c3.648,0,7.16-1.538,9.634-4.22c2.467-2.674,3.714-6.285,3.421-9.906     c-1.775-21.985-13.473-42.076-31.281-54.67c8.871-10.052,14.271-23.238,14.271-37.668v-16.663     c0-31.435-25.573-57.009-57.008-57.009c-31.434,0-57.008,25.573-57.008,57.009v16.663c0,14.429,5.399,27.615,14.269,37.667     c-17.807,12.593-29.506,32.686-31.28,54.67c-0.292,3.62,0.954,7.232,3.421,9.906C86.169,264.696,89.681,266.233,93.33,266.233z      M113.442,143.106c0-22.525,18.325-40.851,40.85-40.851s40.85,18.326,40.85,40.851v16.663c0,22.525-18.325,40.85-40.85,40.85     s-40.85-18.325-40.85-40.85C113.442,159.769,113.442,143.106,113.442,143.106z M124.449,208.316     c8.686,5.36,18.909,8.46,29.843,8.46c10.934,0,21.156-3.101,29.842-8.46c14.983,9.008,25.275,24.462,27.703,41.759H96.747     C99.175,232.779,109.467,217.325,124.449,208.316z" fill="#FFFFFF"/>
		</g>
	</g>
</g>
<g>
</g>
<g>
</g>
<g>
</g>
<g>
</g>
<g>
</g>
<g>
</g>
<g>
</g>
<g>
</g>
<g>
</g>
<g>
</g>
<g>
</g>
<g>
</g>
<g>
</g>
<g>
</g>
<g>
</g>
</svg>
