<?xml version="1.0" encoding="UTF-8"?>
<svg width="25px" height="31px" viewBox="0 0 25 31" version="1.1" xmlns="http://www.w3.org/2000/svg" xmlns:xlink="http://www.w3.org/1999/xlink">
    <!-- Generator: Sketch 48.1 (47250) - http://www.bohemiancoding.com/sketch -->
    <title>locked</title>
    <desc>Created with Sketch.</desc>
    <defs></defs>
    <g id="LOGIN-HD" stroke="none" stroke-width="1" fill="none" fill-rule="evenodd" transform="translate(-556.000000, -584.000000)">
        <g id="locked" transform="translate(556.000000, 584.000000)" fill="#0073D1">
            <path d="M21.590102,11.5463321 L21.590102,8.32570198 C21.590102,3.73372069 17.5118611,0 12.5017756,0 C7.48813887,0 3.40989801,3.73372069 3.40989801,8.32570198 L3.40989801,11.5463321 C1.4758942,11.8828908 0,13.5843422 0,15.6331165 L0,26.8515012 C0,29.1385217 1.84238189,31 4.10594051,31 L20.8940595,31 C23.1576181,31 25,29.1385217 25,26.8515012 L25,15.6302461 C25,13.5843422 23.5241058,11.8828908 21.590102,11.5463321 Z M4.54416319,8.32570198 C4.54416319,4.36736962 8.11528737,1.14960994 12.5017756,1.14960994 C16.8875536,1.14960994 20.4558368,4.36736962 20.4558368,8.32570198 L20.4558368,11.4817473 L4.54416319,11.4817473 L4.54416319,8.32570198 Z M23.8657348,26.8515012 C23.8657348,28.5055904 22.5311799,29.8539781 20.8940595,29.8539781 L4.10594051,29.8539781 C2.46953038,29.8539781 1.13781642,28.5055904 1.13781642,26.8515012 L1.13781642,15.6302461 C1.13781642,13.9768745 2.46953038,12.6313572 4.10594051,12.6313572 L20.8940595,12.6313572 C22.5311799,12.6313572 23.8657348,13.9768745 23.8657348,15.6302461 L23.8657348,26.8515012 Z" id="Fill-1"></path>
            <path d="M12.5019522,16 C11.1229111,16 10,17.0267762 10,18.2877544 L10,21.7122456 C10,22.9732238 11.1229111,24 12.5019522,24 C13.8770889,24 15,22.9732238 15,21.7122456 L15,18.2877544 C15,17.0267762 13.8770889,16 12.5019522,16 Z M13.7490239,21.7122456 C13.7490239,22.3427347 13.1875683,22.8561228 12.5019522,22.8561228 C11.8124317,22.8561228 11.2509761,22.3427347 11.2509761,21.7122456 L11.2509761,18.2877544 C11.2509761,17.6572653 11.8124317,17.1438772 12.5019522,17.1438772 C13.1875683,17.1438772 13.7490239,17.6572653 13.7490239,18.2877544 L13.7490239,21.7122456 Z" id="Fill-2"></path>
        </g>
    </g>
</svg>