<?xml version="1.0" encoding="utf-8"?>
<!-- Generator: Adobe Illustrator 22.1.0, SVG Export Plug-In . SVG Version: 6.00 Build 0)  -->
<svg version="1.1" id="Layer_1" xmlns="http://www.w3.org/2000/svg" xmlns:xlink="http://www.w3.org/1999/xlink" x="0px" y="0px"
	 viewBox="0 0 250 144" style="enable-background:new 0 0 250 144;" xml:space="preserve">
<style type="text/css">
	.st0{fill:#FFFFFF;}
</style>
<g>
	<path class="st0" d="M115.6,54c-3.8-16.8,3-28.8,9.9-45.3c-0.1-0.1-0.1-0.2-0.2-0.3c-12.3,23.3-27.8,31.6-28.2,51.9
		c0,1.3,0.1,2.6,0.2,3.8c1.9,13.1,13.8,23.2,27.9,23.2c8.1,0,15.4-3.3,20.5-8.6C131.6,77.8,118.9,68.2,115.6,54z"/>
	<g>
		<path class="st0" d="M27.4,110.5c0.7,0,1.4,0.3,1.9,0.8c0.5,0.5,0.8,1.2,0.8,2c0,0.3,0,0.5-0.1,0.8c-0.1,0.2-0.2,0.5-0.3,0.8
			c-0.8,1.4-1.9,2.5-3.4,3.3c-1.4,0.8-3.1,1.2-4.9,1.2H21c-1.4,0-2.6-0.2-3.8-0.7c-1.2-0.5-2.2-1.1-3.2-2c-0.9-0.9-1.6-1.9-2.2-3
			c-0.5-1.2-0.8-2.4-0.8-3.8v-6.7c0-1.4,0.3-2.6,0.8-3.8c0.5-1.2,1.2-2.2,2.1-3.1c0.9-0.9,1.9-1.6,3.1-2.1c1.2-0.5,2.5-0.8,4-0.8
			c0.8,0,1.5,0.1,2.1,0.2c1.1,0.2,2.2,0.6,3.1,1.1c1.4,0.8,2.6,2,3.4,3.4c0.1,0.2,0.2,0.4,0.3,0.7c0.1,0.3,0.1,0.5,0.1,0.8
			c0,0.8-0.3,1.4-0.8,2c-0.5,0.5-1.2,0.8-2,0.8c-0.6,0-1.1-0.2-1.5-0.5c-0.4-0.3-0.7-0.7-1-1.2c-0.3-0.5-0.8-1-1.3-1.3
			c-0.5-0.3-1.1-0.5-1.8-0.7c-0.2,0-0.5,0-0.7,0c-0.7,0-1.3,0.1-1.8,0.3c-0.5,0.2-1,0.5-1.4,0.9c-0.4,0.4-0.7,0.8-1,1.4
			c-0.2,0.5-0.4,1.1-0.4,1.7v6.5c0,0.6,0.1,1.2,0.3,1.8c0.2,0.6,0.6,1,1,1.5c0.4,0.4,0.9,0.7,1.5,1c0.6,0.2,1.2,0.4,1.9,0.4h0.5
			c0.8-0.2,1.5-0.4,2-0.7c0.5-0.3,1-0.8,1.3-1.3c0.3-0.5,0.6-0.8,0.9-1.1C26.1,110.6,26.6,110.5,27.4,110.5z"/>
		<path class="st0" d="M34.9,99.6c0.7,0,1.3,0.3,1.9,0.8c0.5,0.5,0.8,1.2,0.8,1.9v7.2c0,0.6,0.1,1.2,0.4,1.8c0.2,0.6,0.6,1,1,1.5
			c0.4,0.4,0.9,0.7,1.5,1c0.6,0.2,1.2,0.4,1.8,0.4c0.6,0,1.2-0.1,1.7-0.3c0.5-0.2,1-0.5,1.5-0.9c0.4-0.4,0.8-0.8,1-1.4
			c0.2-0.5,0.4-1.1,0.4-1.8v-7.4c0-0.7,0.3-1.3,0.8-1.8c0.5-0.5,1.1-0.8,1.9-0.9c0.7,0,1.4,0.3,1.9,0.8c0.5,0.5,0.8,1.1,0.8,1.8v7.4
			c0,1.4-0.3,2.6-0.8,3.8c-0.5,1.2-1.2,2.2-2.1,3.1c-0.9,0.9-2,1.6-3.1,2.1c-1.2,0.5-2.5,0.8-3.9,0.8c-1.3,0.1-2.6-0.2-3.8-0.7
			c-1.2-0.5-2.3-1.2-3.2-2.1c-0.9-0.9-1.6-1.9-2.2-3.1c-0.5-1.2-0.8-2.4-0.8-3.7v-7.5c0-0.7,0.3-1.3,0.8-1.9
			C33.5,99.9,34.2,99.6,34.9,99.6z"/>
		<path class="st0" d="M64.2,99.6c1.3,0,2.6,0.3,3.8,0.8c1.2,0.5,2.3,1.3,3.2,2.2c0.9,0.9,1.6,2,2.2,3.1c0.5,1.2,0.8,2.4,0.8,3.7
			c0,0.7-0.3,1.3-0.8,1.7c-0.5,0.4-1.2,0.6-2,0.6H60.5c0.9,1.6,2.1,2.3,3.7,2.3c0.4,0,0.8,0,1.1-0.1c0.3-0.1,0.6-0.2,0.8-0.3
			c0.2-0.1,0.5-0.2,0.7-0.3c0.2-0.1,0.5-0.1,0.8-0.1c0.6,0,1.1,0.2,1.5,0.5c0.4,0.3,0.7,0.7,0.9,1.1c0.2,0.4,0.3,0.9,0.2,1.5
			c-0.1,0.5-0.3,1-0.7,1.4c-0.7,0.6-1.6,1-2.5,1.2c-0.9,0.2-1.9,0.4-2.9,0.4c-1.3,0.1-2.6-0.2-3.8-0.7c-1.2-0.5-2.3-1.3-3.2-2.2
			c-0.9-0.9-1.6-2-2.2-3.2c-0.5-1.2-0.8-2.5-0.8-3.8c0-1.3,0.3-2.5,0.8-3.7c0.5-1.2,1.2-2.3,2.1-3.2c0.9-0.9,1.9-1.6,3.2-2.2
			C61.6,99.9,62.9,99.6,64.2,99.6z M67.9,107.2c-0.5-0.8-1-1.4-1.6-1.8c-0.6-0.3-1.3-0.5-2.1-0.5c-0.8,0-1.5,0.2-2.1,0.5
			c-0.6,0.3-1.2,0.9-1.6,1.8H67.9z"/>
		<path class="st0" d="M86.1,99.5c1.3,0,2.6,0.2,3.8,0.7c1.2,0.5,2.2,1.1,3.2,2c0.9,0.9,1.6,1.9,2.2,3c0.5,1.2,0.8,2.4,0.8,3.8v7.6
			c0,0.7-0.3,1.3-0.8,1.8c-0.5,0.5-1.1,0.8-1.9,0.8c-0.7,0-1.4-0.2-1.9-0.7c-0.5-0.5-0.8-1.1-0.8-1.8v-7.4c0-0.6-0.1-1.2-0.3-1.8
			c-0.2-0.6-0.6-1-1-1.5c-0.4-0.4-0.9-0.7-1.5-1c-0.6-0.2-1.2-0.4-1.8-0.4c-0.6,0-1.2,0.1-1.7,0.3c-0.5,0.2-1,0.5-1.4,0.9
			c-0.4,0.4-0.7,0.8-1,1.4c-0.2,0.5-0.4,1.1-0.4,1.7v7.4c0,0.7-0.3,1.3-0.8,1.9c-0.5,0.5-1.2,0.8-1.9,0.8c-0.7,0-1.3-0.2-1.9-0.7
			c-0.5-0.5-0.8-1.1-0.8-1.8v-7.4c0-1.4,0.3-2.6,0.8-3.8c0.5-1.2,1.2-2.2,2.1-3.2c0.9-0.9,1.9-1.6,3.1-2.1
			C83.3,99.7,84.7,99.5,86.1,99.5z"/>
		<path class="st0" d="M108.1,99.6c2.7,0,5,1,7,2.9c0.5,0.5,0.7,1.1,0.6,1.8c0,0.7-0.3,1.3-0.8,1.8c-0.5,0.5-1.1,0.7-1.9,0.7
			c-0.8,0-1.4-0.2-1.9-0.7c-0.8-0.8-1.9-1.1-3-1.1c-0.6,0-1.2,0.1-1.8,0.4c-0.6,0.3-1.1,0.6-1.5,1c-0.4,0.4-0.8,0.9-1,1.5
			c-0.2,0.5-0.4,1.1-0.4,1.7c0,0.6,0.1,1.2,0.4,1.8c0.2,0.6,0.6,1.1,1,1.5c0.4,0.4,0.9,0.8,1.5,1c0.5,0.2,1.1,0.4,1.8,0.3
			c1.2,0,2.2-0.4,3-1.1c0.5-0.5,1.1-0.8,1.9-0.8c0.8,0,1.4,0.3,1.9,0.8c0.2,0.2,0.4,0.5,0.6,0.8c0.1,0.3,0.2,0.6,0.2,0.9
			c0,0.3,0,0.6-0.1,1c-0.1,0.3-0.3,0.6-0.5,0.8c-1,1-2,1.7-3.1,2.2c-1.1,0.5-2.4,0.7-3.8,0.7c-1.4,0-2.6-0.3-3.8-0.8
			c-1.2-0.5-2.2-1.2-3.1-2.1c-0.9-0.9-1.6-1.9-2.1-3.1c-0.5-1.2-0.8-2.5-0.8-3.8c0-1.3,0.3-2.6,0.8-3.8c0.5-1.2,1.3-2.2,2.2-3.1
			c0.9-0.9,2-1.6,3.2-2.2C105.5,99.9,106.7,99.6,108.1,99.6z"/>
		<path class="st0" d="M128.8,99.7c1.2,0.1,2.4,0.5,3.5,1.1c1.1,0.6,2,1.3,2.8,2.2c0.8,0.9,1.4,1.9,1.8,3c0.5,1.1,0.7,2.3,0.7,3.6
			v7.2c0,0.7-0.3,1.4-0.8,1.9c-0.5,0.5-1.2,0.8-1.8,0.8c-1,0-1.7-0.4-2.3-1.3c-0.1,0.1-0.3,0.1-0.4,0.2c-0.1,0.1-0.2,0.1-0.3,0.2
			c-0.7,0.3-1.3,0.5-2,0.7c-0.7,0.2-1.5,0.2-2.3,0.2c-2,0-3.9-0.6-5.5-1.7c-1.6-1.1-2.8-2.5-3.6-4.3c-0.3-0.6-0.5-1.3-0.6-1.9
			c-0.2-0.7-0.2-1.3-0.2-2c0-0.7,0.1-1.4,0.2-2c0.1-0.7,0.4-1.3,0.6-1.9c0.8-1.8,2-3.2,3.6-4.3c1.6-1.1,3.4-1.6,5.5-1.6
			c0.2,0,0.4,0,0.6,0C128.4,99.6,128.6,99.6,128.8,99.7z M127.6,114.1c0.6,0,1.2-0.1,1.8-0.3c0.6-0.2,1-0.6,1.5-1
			c0.4-0.4,0.7-0.9,1-1.5c0.2-0.6,0.4-1.2,0.4-1.8c0-0.6-0.1-1.2-0.4-1.7c-0.2-0.6-0.6-1-1-1.5c-0.4-0.4-0.9-0.8-1.5-1
			c-0.6-0.2-1.1-0.4-1.7-0.4c-0.6,0-1.2,0.1-1.7,0.4c-0.5,0.2-1,0.6-1.5,1c-0.4,0.4-0.8,0.9-1,1.5c-0.2,0.6-0.4,1.1-0.4,1.7
			c0,0.6,0.1,1.2,0.4,1.8c0.3,0.6,0.6,1,1,1.5c0.4,0.4,0.9,0.7,1.5,1C126.5,114,127.1,114.1,127.6,114.1z"/>
		<path class="st0" d="M153.5,117.6c-0.2,0.5-0.6,1-1,1.3c-0.5,0.3-1,0.5-1.5,0.5c-0.5,0-1-0.2-1.5-0.5c-0.5-0.4-0.8-0.8-1.1-1.3
			L139.8,97c-0.3-0.7-0.3-1.4,0.1-2.1c0.3-0.7,0.8-1.2,1.5-1.5c0.7-0.3,1.4-0.3,2.1,0.1c0.7,0.3,1.2,0.8,1.5,1.6l6,14l5.9-14
			c0.3-0.7,0.8-1.3,1.5-1.6c0.7-0.3,1.4-0.3,2.1-0.1c0.7,0.3,1.2,0.8,1.5,1.5c0.3,0.7,0.3,1.4,0,2.1L153.5,117.6z"/>
		<path class="st0" d="M173.8,99.6c1.3,0,2.6,0.3,3.8,0.8c1.2,0.5,2.3,1.3,3.2,2.2c0.9,0.9,1.6,2,2.2,3.1c0.5,1.2,0.8,2.4,0.8,3.7
			c0,0.7-0.3,1.3-0.8,1.7c-0.5,0.4-1.2,0.6-2,0.6h-10.9c0.9,1.6,2.1,2.3,3.7,2.3c0.4,0,0.8,0,1.1-0.1c0.3-0.1,0.6-0.2,0.8-0.3
			c0.2-0.1,0.5-0.2,0.7-0.3c0.2-0.1,0.5-0.1,0.8-0.1c0.6,0,1.1,0.2,1.5,0.5c0.4,0.3,0.7,0.7,0.9,1.1c0.2,0.4,0.3,0.9,0.2,1.5
			c-0.1,0.5-0.3,1-0.7,1.4c-0.7,0.6-1.6,1-2.5,1.2c-0.9,0.2-1.9,0.4-2.9,0.4c-1.3,0.1-2.6-0.2-3.8-0.7c-1.2-0.5-2.3-1.3-3.2-2.2
			c-0.9-0.9-1.6-2-2.2-3.2c-0.5-1.2-0.8-2.5-0.8-3.8c0-1.3,0.3-2.5,0.8-3.7c0.5-1.2,1.2-2.3,2.1-3.2c0.9-0.9,1.9-1.6,3.2-2.2
			C171.2,99.9,172.5,99.6,173.8,99.6z M177.5,107.2c-0.5-0.8-1-1.4-1.6-1.8c-0.6-0.3-1.3-0.5-2.1-0.5c-0.8,0-1.5,0.2-2.1,0.5
			c-0.6,0.3-1.2,0.9-1.6,1.8H177.5z"/>
		<path class="st0" d="M188.3,119.5c-0.7,0-1.4-0.2-1.8-0.7c-0.5-0.5-0.8-1.1-0.8-1.9v-7.6c0-1.3,0.3-2.5,0.8-3.7
			c0.5-1.2,1.2-2.2,2.1-3c0.9-0.9,1.9-1.5,3.1-2c1.2-0.5,2.4-0.8,3.8-0.8c0.8,0,1.4,0.3,1.9,0.8c0.5,0.5,0.8,1.1,0.8,1.9
			c0,0.7-0.3,1.4-0.8,1.9c-0.5,0.5-1.2,0.8-1.9,0.8c-0.6,0-1.2,0.1-1.8,0.3c-0.5,0.2-1,0.6-1.4,1c-0.4,0.4-0.7,0.9-1,1.5
			c-0.2,0.6-0.4,1.2-0.4,1.8v7.4c-0.1,0.7-0.3,1.3-0.8,1.8C189.7,119.2,189.1,119.5,188.3,119.5z"/>
		<path class="st0" d="M216.1,93.4c0.7,0,1.3,0.3,1.9,0.8c0.5,0.5,0.8,1.2,0.8,1.9v13.5c0,1.3-0.3,2.6-0.8,3.8
			c-0.5,1.2-1.3,2.2-2.2,3.1c-0.9,0.9-2,1.6-3.2,2.1c-1.2,0.5-2.5,0.8-3.8,0.8c-1.3,0-2.6-0.3-3.8-0.8c-1.2-0.5-2.3-1.2-3.2-2.1
			c-0.9-0.9-1.6-1.9-2.2-3.1c-0.5-1.2-0.8-2.5-0.8-3.8c0-1.3,0.3-2.6,0.8-3.8c0.5-1.2,1.3-2.2,2.2-3.1c0.9-0.9,2-1.6,3.2-2.1
			c1.2-0.5,2.5-0.8,3.8-0.8c1.6,0,3.2,0.4,4.5,1.1V96c0-0.4,0.1-0.7,0.2-1c0.1-0.3,0.3-0.6,0.6-0.9c0.2-0.2,0.5-0.4,0.9-0.6
			C215.4,93.4,215.8,93.4,216.1,93.4z M208.9,104.9c-0.6,0-1.2,0.1-1.8,0.4c-0.6,0.2-1.1,0.6-1.5,1c-0.4,0.4-0.8,0.9-1,1.5
			c-0.2,0.6-0.4,1.1-0.4,1.7c0,0.6,0.1,1.2,0.4,1.8c0.2,0.6,0.6,1,1,1.5c0.4,0.4,0.9,0.7,1.5,1c0.6,0.2,1.2,0.4,1.8,0.4
			c0.6,0,1.2-0.1,1.7-0.4c0.5-0.2,1-0.6,1.5-1c0.4-0.4,0.8-0.9,1-1.5c0.2-0.5,0.4-1.1,0.4-1.8c0-0.7-0.1-1.3-0.4-1.8
			c-0.2-0.6-0.6-1-1-1.5c-0.4-0.4-0.9-0.7-1.5-1C210.1,105,209.5,104.9,208.9,104.9z"/>
		<path class="st0" d="M230.9,99.6c1.3,0,2.6,0.3,3.8,0.8c1.2,0.5,2.3,1.3,3.2,2.2c0.9,0.9,1.6,2,2.2,3.1c0.5,1.2,0.8,2.4,0.8,3.7
			c0,0.7-0.3,1.3-0.8,1.7c-0.5,0.4-1.2,0.6-2,0.6h-10.9c0.9,1.6,2.1,2.3,3.7,2.3c0.4,0,0.8,0,1.1-0.1c0.3-0.1,0.6-0.2,0.8-0.3
			c0.2-0.1,0.5-0.2,0.7-0.3c0.2-0.1,0.5-0.1,0.8-0.1c0.6,0,1.1,0.2,1.5,0.5c0.4,0.3,0.7,0.7,0.9,1.1c0.2,0.4,0.3,0.9,0.2,1.5
			c-0.1,0.5-0.3,1-0.7,1.4c-0.7,0.6-1.6,1-2.5,1.2c-0.9,0.2-1.9,0.4-2.9,0.4c-1.3,0.1-2.6-0.2-3.8-0.7c-1.2-0.5-2.3-1.3-3.2-2.2
			c-0.9-0.9-1.6-2-2.2-3.2c-0.5-1.2-0.8-2.5-0.8-3.8c0-1.3,0.3-2.5,0.8-3.7c0.5-1.2,1.2-2.3,2.1-3.2c0.9-0.9,1.9-1.6,3.2-2.2
			C228.3,99.9,229.6,99.6,230.9,99.6z M234.7,107.2c-0.5-0.8-1-1.4-1.6-1.8c-0.6-0.3-1.3-0.5-2.1-0.5c-0.8,0-1.5,0.2-2.1,0.5
			c-0.6,0.3-1.2,0.9-1.6,1.8H234.7z"/>
	</g>
	<g>
		<path class="st0" d="M97.4,124.7h0.7v4.4c0,1.7,0.8,2.3,2.1,2.3c1.3,0,2.1-0.6,2.1-2.3v-4.4h0.7v4.6c0,1.5-0.8,2.7-2.8,2.7
			c-2,0-2.8-1.2-2.8-2.7V124.7z"/>
		<path class="st0" d="M106,126.7h0.6v0.9h0c0.2-0.6,0.9-1,1.6-1c1.4,0,1.9,0.8,1.9,2v3.3h-0.6v-3.2c0-0.9-0.3-1.6-1.3-1.6
			c-1,0-1.6,0.8-1.6,1.8v3H106V126.7z"/>
		<path class="st0" d="M117.7,124.7h0.6v7.1h-0.6V124.7z"/>
		<path class="st0" d="M121.7,129.4c0,0.9,0.5,2,1.7,2c0.9,0,1.4-0.5,1.6-1.3h0.6c-0.3,1.2-0.9,1.8-2.2,1.8c-1.6,0-2.3-1.3-2.3-2.7
			c0-1.4,0.7-2.7,2.3-2.7c1.7,0,2.3,1.4,2.3,2.9H121.7z M125,128.9c0-0.9-0.6-1.8-1.6-1.8c-1,0-1.6,0.9-1.7,1.8H125z"/>
		<path class="st0" d="M132.6,131.4c0,1.5-0.6,2.5-2.3,2.5c-1,0-2-0.5-2.1-1.6h0.6c0.1,0.8,0.8,1,1.5,1c1.2,0,1.7-0.7,1.7-1.9v-0.7
			h0c-0.3,0.6-0.9,1.1-1.6,1.1c-1.6,0-2.3-1.2-2.3-2.6c0-1.4,0.8-2.6,2.3-2.6c0.7,0,1.4,0.5,1.6,1h0v-0.9h0.6V131.4z M132,129.2
			c0-1-0.5-2.1-1.7-2.1c-1.2,0-1.7,1.1-1.7,2.1c0,1,0.5,2,1.7,2C131.4,131.3,132,130.3,132,129.2z"/>
		<path class="st0" d="M135.5,128.3c0.1-1.2,0.9-1.7,2.1-1.7c0.9,0,1.9,0.3,1.9,1.7v2.7c0,0.2,0.1,0.4,0.4,0.4c0.1,0,0.1,0,0.2,0
			v0.5c-0.1,0-0.2,0-0.4,0c-0.6,0-0.7-0.4-0.7-0.9h0c-0.4,0.7-0.9,1-1.9,1c-0.9,0-1.7-0.5-1.7-1.5c0-1.4,1.4-1.5,2.8-1.7
			c0.5-0.1,0.8-0.1,0.8-0.7c0-0.8-0.6-1.1-1.3-1.1c-0.8,0-1.4,0.4-1.4,1.2H135.5z M138.9,129L138.9,129c-0.1,0.1-0.4,0.2-0.5,0.2
			c-1.1,0.2-2.4,0.2-2.4,1.2c0,0.6,0.6,1,1.1,1c1,0,1.8-0.6,1.8-1.6V129z"/>
		<path class="st0" d="M147.1,131.8h-0.6v-1h0c-0.3,0.7-1.1,1.1-1.8,1.1c-1.6,0-2.3-1.3-2.3-2.7c0-1.5,0.7-2.7,2.3-2.7
			c0.8,0,1.5,0.4,1.8,1.1h0v-3h0.6V131.8z M144.7,131.5c1.3,0,1.8-1.1,1.8-2.2c0-1.1-0.5-2.2-1.8-2.2c-1.2,0-1.7,1.1-1.7,2.2
			C143,130.3,143.5,131.5,144.7,131.5z"/>
		<path class="st0" d="M154.7,129.3c0,1.5-0.9,2.7-2.4,2.7c-1.6,0-2.4-1.2-2.4-2.7c0-1.5,0.9-2.7,2.4-2.7
			C153.8,126.5,154.7,127.8,154.7,129.3z M150.4,129.3c0,1.1,0.6,2.2,1.8,2.2c1.2,0,1.8-1.1,1.8-2.2c0-1.1-0.6-2.2-1.8-2.2
			C151,127.1,150.4,128.2,150.4,129.3z"/>
		<path class="st0" d="M162,126.7h0.6v1h0c0.3-0.7,1-1.1,1.8-1.1c1.6,0,2.3,1.3,2.3,2.7c0,1.5-0.7,2.7-2.3,2.7
			c-0.8,0-1.5-0.4-1.8-1.1h0v2.9H162V126.7z M164.4,127.1c-1.4,0-1.8,1-1.8,2.2c0,1.1,0.5,2.2,1.8,2.2c1.2,0,1.7-1.1,1.7-2.2
			C166.1,128.2,165.6,127.1,164.4,127.1z"/>
		<path class="st0" d="M169.4,128.3c0.1-1.2,0.9-1.7,2.1-1.7c0.9,0,1.9,0.3,1.9,1.7v2.7c0,0.2,0.1,0.4,0.4,0.4c0.1,0,0.1,0,0.2,0
			v0.5c-0.1,0-0.2,0-0.4,0c-0.6,0-0.7-0.4-0.7-0.9h0c-0.4,0.7-0.9,1-1.9,1c-0.9,0-1.7-0.5-1.7-1.5c0-1.4,1.4-1.5,2.8-1.7
			c0.5-0.1,0.8-0.1,0.8-0.7c0-0.8-0.6-1.1-1.3-1.1c-0.8,0-1.4,0.4-1.4,1.2H169.4z M172.8,129L172.8,129c-0.1,0.1-0.4,0.2-0.5,0.2
			c-1.1,0.2-2.4,0.2-2.4,1.2c0,0.6,0.6,1,1.1,1c1,0,1.8-0.6,1.8-1.6V129z"/>
		<path class="st0" d="M176.4,126.7h0.6v1.2h0c0.3-0.8,1-1.3,1.9-1.3v0.6c-1.1-0.1-1.9,0.8-1.9,1.8v2.7h-0.6V126.7z"/>
		<path class="st0" d="M181.3,128.3c0.1-1.2,0.9-1.7,2.1-1.7c0.9,0,1.9,0.3,1.9,1.7v2.7c0,0.2,0.1,0.4,0.4,0.4c0.1,0,0.1,0,0.2,0
			v0.5c-0.1,0-0.2,0-0.4,0c-0.6,0-0.7-0.4-0.7-0.9h0c-0.4,0.7-0.9,1-1.9,1c-0.9,0-1.7-0.5-1.7-1.5c0-1.4,1.4-1.5,2.8-1.7
			c0.5-0.1,0.8-0.1,0.8-0.7c0-0.8-0.6-1.1-1.3-1.1c-0.8,0-1.4,0.4-1.4,1.2H181.3z M184.7,129L184.7,129c-0.1,0.1-0.4,0.2-0.5,0.2
			c-1.1,0.2-2.4,0.2-2.4,1.2c0,0.6,0.6,1,1.1,1c1,0,1.8-0.6,1.8-1.6V129z"/>
		<path class="st0" d="M193.3,129.4c0,0.9,0.5,2,1.7,2c0.9,0,1.4-0.5,1.6-1.3h0.6c-0.3,1.2-0.9,1.8-2.2,1.8c-1.6,0-2.3-1.3-2.3-2.7
			c0-1.4,0.7-2.7,2.3-2.7c1.7,0,2.3,1.4,2.3,2.9H193.3z M196.6,128.9c0-0.9-0.6-1.8-1.6-1.8c-1,0-1.6,0.9-1.7,1.8H196.6z"/>
		<path class="st0" d="M199.9,124.7h0.6v7.1h-0.6V124.7z"/>
		<path class="st0" d="M210,127.2h-1v4.6h-0.6v-4.6h-0.9v-0.5h0.9v-0.5c0-0.9,0.2-1.5,1.2-1.5c0.2,0,0.3,0,0.5,0v0.5
			c-0.2,0-0.3,0-0.5,0c-0.7,0-0.7,0.4-0.7,1v0.4h1V127.2z"/>
		<path class="st0" d="M216.6,131.8H216v-0.9h0c-0.3,0.7-1,1.1-1.8,1.1c-1.3,0-1.8-0.8-1.8-2v-3.3h0.6v3.3c0,0.9,0.4,1.4,1.4,1.4
			c1.1,0,1.5-1,1.5-2.1v-2.7h0.6V131.8z"/>
		<path class="st0" d="M220.6,126.7h1v0.5h-1v3.5c0,0.4,0.1,0.6,0.5,0.7c0.2,0,0.4,0,0.5,0v0.5c-0.2,0-0.4,0-0.6,0
			c-0.8,0-1.1-0.3-1.1-1.2v-3.5H219v-0.5h0.9v-1.5h0.6V126.7z"/>
		<path class="st0" d="M228.5,131.8h-0.6v-0.9h0c-0.3,0.7-1,1.1-1.8,1.1c-1.3,0-1.8-0.8-1.8-2v-3.3h0.6v3.3c0,0.9,0.4,1.4,1.4,1.4
			c1.1,0,1.5-1,1.5-2.1v-2.7h0.6V131.8z"/>
		<path class="st0" d="M231.5,126.7h0.6v1.2h0c0.3-0.8,1-1.3,1.9-1.3v0.6c-1.1-0.1-1.9,0.8-1.9,1.8v2.7h-0.6V126.7z"/>
		<path class="st0" d="M241,129.3c0,1.5-0.9,2.7-2.4,2.7s-2.4-1.2-2.4-2.7c0-1.5,0.9-2.7,2.4-2.7S241,127.8,241,129.3z M236.8,129.3
			c0,1.1,0.6,2.2,1.8,2.2c1.2,0,1.8-1.1,1.8-2.2c0-1.1-0.6-2.2-1.8-2.2C237.4,127.1,236.8,128.2,236.8,129.3z"/>
	</g>
	<g>
		<path class="st0" d="M152,46.7C152,46.7,152,46.7,152,46.7C152,46.9,151.8,46.4,152,46.7z"/>
		<path class="st0" d="M155.1,57.5c-0.3-3.5-1.3-7-3-10.5l0,0c0-0.1-0.1-0.2-0.1-0.2c0,0,0,0,0,0c-2.4-5.1-6-10.4-10.1-16.3
			c-0.1-0.1-0.1-0.1-0.2-0.2c-2.7-3.9-11.6-17.4-13-19.9c-0.1,0.2-0.2,0.5-0.3,0.7c-6.5,15.3-12.7,26.6-9.1,42.3
			c3.1,13.6,15.3,22.7,29,23.3c0,0,0,0,0,0c4.3-4.6,6.9-10.7,6.9-17.4C155.2,58.6,155.1,58.1,155.1,57.5z M135.5,56.7
			c-7.3-3.8-12.4-11.5-12.4-20.4c0-5.8,2.2-11.1,5.7-15.2c2.1,5,6.9,8.7,12.5,9.2c-2.6,1.8-4.3,4.8-4.3,8.1c0,4.3,2.8,8,6.6,9.3
			C139.9,49.5,136.9,52.7,135.5,56.7z"/>
	</g>
</g>
</svg>
