<?xml version="1.0" encoding="utf-8"?>
<!-- Generator: Adobe Illustrator 22.1.0, SVG Export Plug-In . SVG Version: 6.00 Build 0)  -->
<svg version="1.1" id="Layer_1" xmlns="http://www.w3.org/2000/svg" xmlns:xlink="http://www.w3.org/1999/xlink" x="0px" y="0px"
	 viewBox="0 0 250 192" style="enable-background:new 0 0 250 192;" xml:space="preserve">
<style type="text/css">
	.st0{fill:#05D84B;}
	.st1{fill:#03B2E8;}
	.st2{fill:#0073D1;}
</style>
<g>
	<path class="st0" d="M170.4,75.1l-22.1,22.1c-5.1,5.1-13.5,5.1-18.6,0l0,0c-5.1-5.1-5.1-13.5,0-18.6l22.1-22.1
		c5.1-5.1,13.5-5.1,18.6,0l0,0C175.5,61.6,175.5,70,170.4,75.1z"/>
	<path class="st0" d="M121.6,26.3L99.5,48.4c-5.1,5.1-13.5,5.1-18.6,0l0,0c-5.1-5.1-5.1-13.5,0-18.6L103,7.7
		c5.1-5.1,13.5-5.1,18.6,0l0,0C126.7,12.8,126.7,21.2,121.6,26.3z"/>
	<path class="st1" d="M170.4,26.3L98.3,98.4c-5.1,5.1-13.5,5.1-18.6,0l0,0c-5.1-5.1-5.1-13.5,0-18.6l72.1-72.1
		c5.1-5.1,13.5-5.1,18.6,0l0,0C175.5,12.8,175.5,21.2,170.4,26.3z"/>
</g>
<g>
	<path class="st2" d="M30.1,126.3c-0.8,0-1.5,0.1-2.2,0.2s-1.3,0.3-1.9,0.6c-0.6,0.3-1,0.7-1.3,1.1c-0.3,0.4-0.5,1-0.5,1.6
		c0,0.9,0.2,1.7,0.7,2.2c0.5,0.5,1.2,1,2.1,1.4c0.9,0.4,2.1,0.8,3.5,1.2c1.4,0.4,3.1,0.9,4.9,1.5c2.4,0.8,4.6,1.8,6.6,3
		c2,1.2,3.7,2.6,5.1,4.1c1.4,1.6,2.5,3.4,3.3,5.3c0.8,2,1.2,4.2,1.2,6.6c0,3-0.6,5.8-1.9,8.3c-1.3,2.5-3,4.7-5.1,6.5
		c-2.1,1.8-4.6,3.2-7.4,4.2c-2.8,1-5.7,1.5-8.7,1.5c-2.6,0-5-0.4-7.3-1.1c-2.3-0.8-4.4-1.8-6.4-3.2c-1.9-1.4-3.6-3-5.1-4.8
		c-1.5-1.9-2.6-3.9-3.4-6.1l4.5-2.6c0.7-0.4,1.5-0.7,2.3-1c0.8-0.2,1.7-0.4,2.5-0.4c1.2,0,2.4,0.3,3.4,0.8c1,0.5,2,1.1,2.9,1.7
		c1,0.6,1.9,1.2,3,1.7c1,0.5,2.2,0.8,3.5,0.8c0.9,0,1.8-0.1,2.8-0.4c1-0.3,2-0.7,2.9-1.2c0.9-0.5,1.6-1.2,2.2-1.9
		c0.6-0.8,0.9-1.7,0.9-2.7c0-1-0.3-1.7-0.8-2.3c-0.5-0.6-1.3-1.1-2.2-1.6c-0.9-0.4-2-0.9-3.2-1.2c-1.2-0.4-2.4-0.8-3.7-1.4
		c-2.1-0.8-4.3-1.7-6.4-2.7s-4-2.1-5.6-3.5c-1.7-1.4-3-3.1-4-5.1c-1-2-1.5-4.5-1.5-7.5c0-2.8,0.6-5.3,1.7-7.5c1.1-2.2,2.7-4,4.5-5.5
		c1.9-1.5,4-2.7,6.5-3.5c2.4-0.8,4.9-1.2,7.5-1.2c1.9,0,3.7,0.3,5.4,0.9c1.8,0.6,3.4,1.4,5,2.4c1.6,1,3,2.1,4.4,3.4
		c1.4,1.3,2.6,2.6,3.7,3.9l-4.4,3.7c-0.9,0.8-1.8,1.3-2.7,1.6c-0.9,0.3-2,0.5-3.2,0.5c-0.9,0-1.7-0.1-2.4-0.3
		c-0.7-0.2-1.4-0.5-2-0.8c-0.6-0.3-1.2-0.5-1.8-0.8C31.5,126.4,30.8,126.3,30.1,126.3z"/>
	<path class="st2" d="M69.4,129.3V175H55.1v-45.7H69.4z"/>
	<path class="st1" d="M117.1,149.7c0,1.4-0.3,2.5-0.8,3.5c-0.6,1-1.2,1.8-2.1,2.4c-0.8,0.6-1.8,1.1-2.8,1.3c-1,0.3-2,0.4-2.9,0.4H86
		c0.3,1,0.8,2,1.5,2.8c0.6,0.7,1.4,1.3,2.4,1.9c1,0.6,2.3,0.9,3.9,0.9c0.8,0,1.6-0.1,2.4-0.4c0.8-0.3,1.5-0.5,2.3-0.8
		c0.8-0.3,1.5-0.6,2.3-0.8c0.8-0.3,1.7-0.4,2.6-0.4c1.4,0,2.6,0.2,3.6,0.7c1,0.4,2,1.1,2.8,2l3.6,3.6c-2.8,3-5.8,5.2-9.1,6.7
		c-3.3,1.5-6.7,2.2-10.2,2.2c-3.2,0-6.3-0.6-9.2-1.9c-2.9-1.2-5.4-2.9-7.5-5c-2.1-2.1-3.8-4.6-5.1-7.5c-1.2-2.9-1.9-5.9-1.9-9.1
		c0-3.2,0.6-6.3,1.9-9.1c1.2-2.9,2.9-5.4,5.1-7.5c2.1-2.1,4.6-3.8,7.5-5c2.9-1.2,5.9-1.8,9.2-1.8c2.7,0,5.3,0.5,7.8,1.5
		c2.5,1,4.8,2.3,6.8,3.9c2,1.7,3.8,3.6,5.2,5.8c1.4,2.2,2.5,4.6,3,7c0.1,0.5,0.2,1,0.2,1.5C117.1,149,117.1,149.4,117.1,149.7z
		 M102.5,147.1c-0.5-1.1-1.2-2-2-2.9c-0.7-0.7-1.5-1.4-2.6-2c-1.1-0.6-2.4-0.9-4-0.9c-1.7,0-3,0.3-4.1,1c-1.1,0.7-2,1.4-2.7,2.2
		c-0.8,1-1.3,2-1.8,3.2c0.2-0.1,0.4-0.2,0.6-0.3c0.2-0.1,0.4-0.2,0.7-0.3c0.3-0.1,0.6-0.1,0.9-0.1H102.5z"/>
	<path class="st1" d="M156.5,149.7c0,1.4-0.3,2.5-0.8,3.5c-0.6,1-1.2,1.8-2.1,2.4c-0.8,0.6-1.8,1.1-2.8,1.3c-1,0.3-2,0.4-2.9,0.4
		h-22.5c0.3,1,0.8,2,1.5,2.8c0.6,0.7,1.4,1.3,2.4,1.9s2.3,0.9,3.9,0.9c0.8,0,1.6-0.1,2.4-0.4c0.8-0.3,1.5-0.5,2.3-0.8
		c0.8-0.3,1.5-0.6,2.3-0.8c0.8-0.3,1.7-0.4,2.6-0.4c1.4,0,2.6,0.2,3.6,0.7c1,0.4,2,1.1,2.8,2l3.6,3.6c-2.8,3-5.8,5.2-9.1,6.7
		c-3.3,1.5-6.7,2.2-10.2,2.2c-3.2,0-6.3-0.6-9.2-1.9c-2.9-1.2-5.4-2.9-7.5-5c-2.1-2.1-3.8-4.6-5.1-7.5c-1.2-2.9-1.9-5.9-1.9-9.1
		c0-3.2,0.6-6.3,1.9-9.1c1.2-2.9,2.9-5.4,5.1-7.5c2.1-2.1,4.6-3.8,7.5-5c2.9-1.2,5.9-1.8,9.2-1.8c2.7,0,5.3,0.5,7.8,1.5
		c2.5,1,4.8,2.3,6.8,3.9c2,1.7,3.8,3.6,5.2,5.8c1.4,2.2,2.5,4.6,3,7c0.1,0.5,0.2,1,0.2,1.5C156.5,149,156.5,149.4,156.5,149.7z
		 M141.9,147.1c-0.5-1.1-1.2-2-2-2.9c-0.7-0.7-1.5-1.4-2.6-2c-1.1-0.6-2.4-0.9-4-0.9c-1.7,0-3,0.3-4.1,1c-1.1,0.7-2,1.4-2.7,2.2
		c-0.8,1-1.3,2-1.8,3.2c0.2-0.1,0.4-0.2,0.6-0.3c0.2-0.1,0.4-0.2,0.7-0.3c0.3-0.1,0.6-0.1,0.9-0.1H141.9z"/>
	<path class="st2" d="M150,129.3h9.1c0.9,0,1.8,0.1,2.7,0.4c0.9,0.3,1.7,0.6,2.5,1.1c0.8,0.5,1.4,1,2,1.7c0.6,0.7,1,1.4,1.4,2.2
		l8.3,20.7c0.3,0.9,0.6,1.6,0.7,2.2c0.1,0.6,0.1,1,0.1,1.2v0.2c0-0.3,0.1-0.7,0.1-1.1c0.1-0.3,0.1-0.7,0.2-1.1
		c0.1-0.4,0.2-0.9,0.4-1.4l8.4-20.8c0.3-0.8,0.8-1.6,1.4-2.2c0.6-0.7,1.2-1.2,2-1.7c0.8-0.5,1.6-0.8,2.4-1.1
		c0.9-0.2,1.8-0.4,2.7-0.4h9.1L184.8,175h-16.3L150,129.3z"/>
	<path class="st2" d="M243.7,149.7c0,1.4-0.3,2.5-0.8,3.5c-0.6,1-1.2,1.8-2.1,2.4c-0.8,0.6-1.8,1.1-2.8,1.3c-1,0.3-2,0.4-2.9,0.4
		h-22.5c0.3,1,0.8,2,1.5,2.8c0.6,0.7,1.4,1.3,2.4,1.9c1,0.6,2.3,0.9,3.9,0.9c0.8,0,1.6-0.1,2.4-0.4c0.8-0.3,1.5-0.5,2.3-0.8
		c0.8-0.3,1.5-0.6,2.3-0.8c0.8-0.3,1.7-0.4,2.6-0.4c1.4,0,2.6,0.2,3.6,0.7c1,0.4,2,1.1,2.8,2l3.6,3.6c-2.8,3-5.8,5.2-9.1,6.7
		c-3.3,1.5-6.7,2.2-10.2,2.2c-3.2,0-6.3-0.6-9.2-1.9c-2.9-1.2-5.4-2.9-7.5-5c-2.1-2.1-3.8-4.6-5.1-7.5c-1.2-2.9-1.9-5.9-1.9-9.1
		c0-3.2,0.6-6.3,1.9-9.1c1.2-2.9,2.9-5.4,5.1-7.5c2.1-2.1,4.6-3.8,7.5-5c2.9-1.2,5.9-1.8,9.2-1.8c2.7,0,5.3,0.5,7.8,1.5
		c2.5,1,4.8,2.3,6.8,3.9s3.8,3.6,5.2,5.8c1.4,2.2,2.5,4.6,3,7c0.1,0.5,0.2,1,0.2,1.5C243.6,149,243.7,149.4,243.7,149.7z M229,147.1
		c-0.5-1.1-1.2-2-2-2.9c-0.7-0.7-1.5-1.4-2.6-2c-1.1-0.6-2.4-0.9-4-0.9c-1.7,0-3,0.3-4.1,1c-1.1,0.7-2,1.4-2.7,2.2
		c-0.8,1-1.3,2-1.8,3.2c0.2-0.1,0.4-0.2,0.6-0.3c0.2-0.1,0.4-0.2,0.7-0.3c0.3-0.1,0.6-0.1,0.9-0.1H229z"/>
	<path class="st2" d="M152,188H73.9c-1.9,0-3.4-1.6-3.4-3.4v0c0-1.9,1.6-3.4,3.4-3.4H152c1.9,0,3.4,1.6,3.4,3.4v0
		C155.5,186.4,153.9,188,152,188z"/>
</g>
</svg>
