<?xml version="1.0" encoding="utf-8"?>
<!-- Generator: Adobe Illustrator 22.1.0, SVG Export Plug-In . SVG Version: 6.00 Build 0)  -->
<svg version="1.1" id="Layer_1" xmlns="http://www.w3.org/2000/svg" xmlns:xlink="http://www.w3.org/1999/xlink" x="0px" y="0px"
	 viewBox="0 0 150 88" style="enable-background:new 0 0 150 88;" xml:space="preserve">
<style type="text/css">
	.st0{clip-path:url(#SVGID_2_);fill:url(#SVGID_3_);}
	.st1{clip-path:url(#SVGID_6_);fill:url(#SVGID_7_);}
	.st2{fill:#3DAE2B;}
	.st3{clip-path:url(#SVGID_9_);fill:url(#SVGID_10_);}
	.st4{filter:url(#Adobe_OpacityMaskFilter);}
	.st5{clip-path:url(#SVGID_13_);fill:url(#SVGID_15_);}
	.st6{clip-path:url(#SVGID_13_);mask:url(#SVGID_14_);fill:url(#SVGID_16_);}
	.st7{fill:#009EE2;}
	.st8{clip-path:url(#SVGID_18_);fill:url(#SVGID_19_);}
	.st9{fill:#0071CE;}
</style>
<g>
	<g>
		<g>
			<defs>
				<path id="SVGID_1_" d="M57.5,37.2c0,0.8,0,1.6,0.1,2.4c1.2,8.1,8.5,14.2,17.2,14.2c5,0,9.5-2,12.6-5.3
					c-8.8-0.5-16.6-6.4-18.6-15.1C66.5,23,70.7,15.7,75,5.5c0-0.1-0.1-0.1-0.1-0.2C67.3,19.6,57.8,24.7,57.5,37.2"/>
			</defs>
			<clipPath id="SVGID_2_">
				<use xlink:href="#SVGID_1_"  style="overflow:visible;"/>
			</clipPath>
			
				<radialGradient id="SVGID_3_" cx="-538.5818" cy="435.3083" r="0.4201" gradientTransform="matrix(47.9543 0 0 -47.9543 25899.8027 20904.4492)" gradientUnits="userSpaceOnUse">
				<stop  offset="0" style="stop-color:#5EB3E4"/>
				<stop  offset="0.122" style="stop-color:#5EB3E4"/>
				<stop  offset="0.3078" style="stop-color:#50A9E1"/>
				<stop  offset="0.6598" style="stop-color:#2A8ED8"/>
				<stop  offset="1" style="stop-color:#0071CE"/>
			</radialGradient>
			<rect x="57.5" y="5.3" class="st0" width="29.9" height="48.5"/>
		</g>
		<g>
			<defs>
				<path id="SVGID_4_" d="M71.1,32.9c1.9,8.4,9.4,14,17.8,14.3c0,0,0,0,0,0c-4.7-0.5-8.3-4.4-8.3-9.2c0-1,0.2-2.1,0.5-3
					c-4.5-2.4-7.6-7.1-7.6-12.5c0-3.6,1.3-6.8,3.5-9.3c-0.5-1.1-0.7-2.3-0.7-3.6c0-0.9,0.1-1.9,0.4-2.7
					C72.7,16.4,68.9,23.3,71.1,32.9"/>
			</defs>
			<linearGradient id="SVGID_5_" gradientUnits="userSpaceOnUse" x1="70.4334" y1="27.0874" x2="88.9308" y2="27.0874">
				<stop  offset="0" style="stop-color:#A6DB41"/>
				<stop  offset="2.064035e-02" style="stop-color:#A1D940"/>
				<stop  offset="0.196" style="stop-color:#7DCA39"/>
				<stop  offset="0.3727" style="stop-color:#61BD33"/>
				<stop  offset="0.549" style="stop-color:#4DB52F"/>
				<stop  offset="0.725" style="stop-color:#41B02C"/>
				<stop  offset="0.9004" style="stop-color:#3DAE2B"/>
				<stop  offset="1" style="stop-color:#3DAE2B"/>
			</linearGradient>
			<use xlink:href="#SVGID_4_"  style="overflow:visible;fill:url(#SVGID_5_);"/>
			<clipPath id="SVGID_6_">
				<use xlink:href="#SVGID_4_"  style="overflow:visible;"/>
			</clipPath>
			
				<linearGradient id="SVGID_7_" gradientUnits="userSpaceOnUse" x1="-538.7327" y1="434.7439" x2="-538.3127" y2="434.7439" gradientTransform="matrix(44.0356 0 0 -44.0356 23793.8535 19171.2949)">
				<stop  offset="0" style="stop-color:#A6DB41"/>
				<stop  offset="2.064035e-02" style="stop-color:#A1D940"/>
				<stop  offset="0.196" style="stop-color:#7DCA39"/>
				<stop  offset="0.3727" style="stop-color:#61BD33"/>
				<stop  offset="0.549" style="stop-color:#4DB52F"/>
				<stop  offset="0.725" style="stop-color:#41B02C"/>
				<stop  offset="0.9004" style="stop-color:#3DAE2B"/>
				<stop  offset="1" style="stop-color:#3DAE2B"/>
			</linearGradient>
			<rect x="68.9" y="6.9" class="st1" width="20.1" height="40.3"/>
		</g>
		<path class="st2" d="M77,13.2c0.8-0.9,1.6-1.6,2.6-2.3c-0.9-1.4-1.8-2.9-2.7-4.4c-0.1,0.1-0.1,0.3-0.2,0.4
			c-0.3,0.9-0.4,1.8-0.4,2.7C76.3,10.9,76.5,12.1,77,13.2"/>
		<g>
			<defs>
				<path id="SVGID_8_" d="M80.6,38c0,4.8,3.7,8.8,8.3,9.2c2.6-2.8,4.2-6.6,4.2-10.7c0-0.3,0-0.7,0-1c-1.7,0.7-3.6,1.1-5.5,1.1
					c-2.3,0-4.6-0.6-6.5-1.6C80.8,36,80.6,37,80.6,38"/>
			</defs>
			<clipPath id="SVGID_9_">
				<use xlink:href="#SVGID_8_"  style="overflow:visible;"/>
			</clipPath>
			
				<linearGradient id="SVGID_10_" gradientUnits="userSpaceOnUse" x1="-540.5063" y1="432.4271" x2="-540.0862" y2="432.4271" gradientTransform="matrix(29.9644 0 0 -29.9644 16276.5361 12998.5684)">
				<stop  offset="0" style="stop-color:#AECA37"/>
				<stop  offset="0.1782" style="stop-color:#8FC13C"/>
				<stop  offset="0.3829" style="stop-color:#73B941"/>
				<stop  offset="0.5885" style="stop-color:#5FB344"/>
				<stop  offset="0.7937" style="stop-color:#53AF46"/>
				<stop  offset="0.9982" style="stop-color:#4FAE47"/>
				<stop  offset="1" style="stop-color:#3DAE2B"/>
			</linearGradient>
			<rect x="80.6" y="35" class="st3" width="12.6" height="12.2"/>
		</g>
		<g>
			<defs>
				<path id="SVGID_11_" d="M73.5,22.5c0,5.4,3.1,10.2,7.6,12.5c0.8-2.5,2.7-4.5,5.1-5.5c-2.4-0.8-4.1-3.1-4.1-5.7
					c0-2.1,1-3.9,2.6-5c-3.5-0.3-6.4-2.5-7.7-5.6C74.8,15.7,73.5,19,73.5,22.5"/>
			</defs>
			<linearGradient id="SVGID_12_" gradientUnits="userSpaceOnUse" x1="73.4866" y1="24.1301" x2="86.1434" y2="24.1301">
				<stop  offset="0" style="stop-color:#EC7700"/>
				<stop  offset="9.343886e-03" style="stop-color:#EC7700"/>
				<stop  offset="0.2809" style="stop-color:#EC7700"/>
				<stop  offset="0.6685" style="stop-color:#F3E500"/>
				<stop  offset="0.8876" style="stop-color:#F3E500"/>
				<stop  offset="1" style="stop-color:#F3E500"/>
			</linearGradient>
			<use xlink:href="#SVGID_11_"  style="overflow:visible;fill:url(#SVGID_12_);"/>
			<clipPath id="SVGID_13_">
				<use xlink:href="#SVGID_11_"  style="overflow:visible;"/>
			</clipPath>
			<defs>
				<filter id="Adobe_OpacityMaskFilter" filterUnits="userSpaceOnUse" x="73.5" y="13.2" width="12.7" height="21.8">
					<feColorMatrix  type="matrix" values="1 0 0 0 0  0 1 0 0 0  0 0 1 0 0  0 0 0 1 0"/>
				</filter>
			</defs>
			<mask maskUnits="userSpaceOnUse" x="73.5" y="13.2" width="12.7" height="21.8" id="SVGID_14_">
				<g class="st4">
					
						<linearGradient id="SVGID_15_" gradientUnits="userSpaceOnUse" x1="-541.0972" y1="443.569" x2="-540.6772" y2="443.569" gradientTransform="matrix(0 -51.9878 -51.9878 0 23139.9941 -28095.4062)">
						<stop  offset="0" style="stop-color:#FFFFFF"/>
						<stop  offset="0.1272" style="stop-color:#FFFFFF"/>
						<stop  offset="0.176" style="stop-color:#FAFAFA"/>
						<stop  offset="0.3999" style="stop-color:#EAEAEA"/>
						<stop  offset="0.6532" style="stop-color:#E1E1E1"/>
						<stop  offset="0.9954" style="stop-color:#DEDEDE"/>
						<stop  offset="1" style="stop-color:#DEDEDE"/>
					</linearGradient>
					<rect x="73.5" y="13.2" class="st5" width="12.7" height="21.8"/>
				</g>
			</mask>
			
				<linearGradient id="SVGID_16_" gradientUnits="userSpaceOnUse" x1="-541.0972" y1="443.5696" x2="-540.6772" y2="443.5696" gradientTransform="matrix(0 -51.9878 -51.9878 0 23140.0234 -28095.4062)">
				<stop  offset="0" style="stop-color:#EC7700"/>
				<stop  offset="8.649165e-02" style="stop-color:#EC7E00"/>
				<stop  offset="0.2128" style="stop-color:#EE9200"/>
				<stop  offset="0.3635" style="stop-color:#F0B200"/>
				<stop  offset="0.5317" style="stop-color:#F3DE00"/>
				<stop  offset="0.5552" style="stop-color:#F3E500"/>
				<stop  offset="0.8876" style="stop-color:#F3E500"/>
				<stop  offset="1" style="stop-color:#F3E500"/>
			</linearGradient>
			<rect x="73.5" y="13.2" class="st6" width="12.7" height="21.8"/>
		</g>
		<path class="st2" d="M84.7,18.8c0.1,0,0.1-0.1,0.2-0.1c-1.7-2.4-3.5-5-5.3-7.8c-1,0.7-1.8,1.4-2.6,2.3
			C78.3,16.3,81.2,18.5,84.7,18.8"/>
		<path class="st2" d="M91.2,28.9c-1.5-3.1-3.7-6.4-6.2-10c-0.1,0-0.2,0-0.3,0c-1.6,1.1-2.6,2.9-2.6,5c0,2.6,1.7,4.9,4.1,5.7
			c1.1-0.5,2.4-0.8,3.7-0.8C90.3,28.8,90.8,28.8,91.2,28.9"/>
		<path class="st7" d="M85,18.9c0,0-0.1-0.1-0.1-0.1c-0.1,0-0.1,0.1-0.2,0.1C84.8,18.9,84.9,18.9,85,18.9"/>
		<g>
			<defs>
				<path id="SVGID_17_" d="M88.2,29.9c-0.7,0-1.4-0.1-2-0.3c-2.4,1-4.2,3-5.1,5.5c1.9,1,4.2,1.6,6.5,1.6c2,0,3.8-0.4,5.5-1.1
					c-0.2-2.2-0.8-4.3-1.9-6.5C90.4,29.6,89.3,29.9,88.2,29.9"/>
			</defs>
			<clipPath id="SVGID_18_">
				<use xlink:href="#SVGID_17_"  style="overflow:visible;"/>
			</clipPath>
			
				<linearGradient id="SVGID_19_" gradientUnits="userSpaceOnUse" x1="-540.7172" y1="431.6599" x2="-540.2971" y2="431.6599" gradientTransform="matrix(28.6743 0 0 -28.6743 15585.7754 12410.3877)">
				<stop  offset="0" style="stop-color:#AECA37"/>
				<stop  offset="0.1607" style="stop-color:#8FC13C"/>
				<stop  offset="0.3453" style="stop-color:#73B941"/>
				<stop  offset="0.5308" style="stop-color:#5FB344"/>
				<stop  offset="0.7159" style="stop-color:#53AF46"/>
				<stop  offset="0.9004" style="stop-color:#4FAE47"/>
				<stop  offset="1" style="stop-color:#4FAE47"/>
			</linearGradient>
			<rect x="81.1" y="29" class="st8" width="12" height="7.6"/>
		</g>
		<path class="st2" d="M89.8,28.8c-1.3,0-2.6,0.3-3.7,0.8c0.6,0.2,1.3,0.3,2,0.3c1.1,0,2.2-0.3,3.1-0.9c0-0.1,0-0.1-0.1-0.2
			C90.8,28.8,90.3,28.8,89.8,28.8"/>
	</g>
	<g>
		<path class="st9" d="M15.3,68.5c0.4,0,0.8,0.2,1.2,0.5c0.3,0.3,0.5,0.7,0.5,1.2c0,0.2,0,0.3-0.1,0.5c-0.1,0.1-0.1,0.3-0.2,0.5
			c-0.5,0.8-1.2,1.5-2,2c-0.9,0.5-1.9,0.8-3,0.8h-0.2c-0.8,0-1.6-0.1-2.3-0.4c-0.7-0.3-1.4-0.7-1.9-1.2c-0.5-0.5-1-1.1-1.3-1.9
			c-0.3-0.7-0.5-1.5-0.5-2.3v-4c0-0.8,0.2-1.6,0.5-2.3c0.3-0.7,0.7-1.4,1.3-1.9c0.5-0.5,1.2-1,1.9-1.3c0.7-0.3,1.5-0.5,2.4-0.5
			c0.5,0,0.9,0,1.3,0.1c0.7,0.1,1.3,0.3,1.9,0.7c0.9,0.5,1.6,1.2,2.1,2.1c0.1,0.1,0.1,0.3,0.2,0.4c0.1,0.2,0.1,0.3,0.1,0.5
			c0,0.5-0.2,0.9-0.5,1.2c-0.3,0.3-0.7,0.5-1.2,0.5c-0.4,0-0.7-0.1-0.9-0.3c-0.2-0.2-0.4-0.4-0.6-0.7c-0.2-0.3-0.5-0.6-0.8-0.8
			c-0.3-0.2-0.6-0.3-1.1-0.4c-0.1,0-0.3,0-0.4,0c-0.4,0-0.8,0.1-1.1,0.2C10,61.6,9.7,61.8,9.5,62c-0.2,0.2-0.4,0.5-0.6,0.8
			c-0.1,0.3-0.2,0.7-0.2,1v4c0,0.4,0,0.7,0.2,1.1c0.1,0.3,0.3,0.6,0.6,0.9c0.3,0.2,0.6,0.4,0.9,0.6c0.3,0.1,0.7,0.2,1.2,0.2h0.3
			c0.5-0.1,0.9-0.2,1.2-0.4c0.3-0.2,0.6-0.5,0.8-0.8c0.2-0.3,0.4-0.5,0.6-0.7C14.6,68.6,14.9,68.5,15.3,68.5z"/>
		<path class="st9" d="M19.9,61.9c0.4,0,0.8,0.2,1.1,0.5c0.3,0.3,0.5,0.7,0.5,1.2v4.4c0,0.4,0.1,0.7,0.2,1.1
			c0.1,0.3,0.3,0.6,0.6,0.9c0.2,0.2,0.5,0.4,0.9,0.6c0.3,0.1,0.7,0.2,1.1,0.2c0.4,0,0.7-0.1,1-0.2c0.3-0.1,0.6-0.3,0.9-0.5
			c0.3-0.2,0.5-0.5,0.6-0.8c0.1-0.3,0.2-0.7,0.2-1.1v-4.5c0-0.4,0.2-0.8,0.5-1.1c0.3-0.3,0.7-0.5,1.1-0.5c0.4,0,0.8,0.2,1.2,0.5
			c0.3,0.3,0.5,0.7,0.5,1.1v4.5c0,0.8-0.2,1.6-0.5,2.3c-0.3,0.7-0.7,1.4-1.3,1.9c-0.5,0.5-1.2,1-1.9,1.3c-0.7,0.3-1.5,0.5-2.4,0.5
			c-0.8,0-1.6-0.1-2.3-0.4c-0.7-0.3-1.4-0.7-1.9-1.3c-0.6-0.5-1-1.2-1.3-1.9c-0.3-0.7-0.5-1.5-0.5-2.3v-4.6c0-0.4,0.2-0.8,0.5-1.1
			C19.1,62,19.5,61.9,19.9,61.9z"/>
		<path class="st9" d="M37.7,61.9c0.8,0,1.6,0.2,2.3,0.5c0.7,0.3,1.4,0.8,1.9,1.3c0.6,0.6,1,1.2,1.3,1.9c0.3,0.7,0.5,1.5,0.5,2.3
			c0,0.4-0.2,0.8-0.5,1c-0.3,0.2-0.7,0.4-1.2,0.3h-6.6c0.5,0.9,1.3,1.4,2.3,1.4c0.3,0,0.5,0,0.7-0.1c0.2,0,0.3-0.1,0.5-0.2
			c0.1-0.1,0.3-0.1,0.4-0.2c0.1,0,0.3-0.1,0.5-0.1c0.3,0,0.6,0.1,0.9,0.3c0.3,0.2,0.4,0.4,0.6,0.7c0.1,0.3,0.2,0.6,0.1,0.9
			c0,0.3-0.2,0.6-0.4,0.9c-0.4,0.4-0.9,0.6-1.5,0.8c-0.5,0.1-1.1,0.2-1.7,0.2c-0.8,0-1.6-0.1-2.3-0.4c-0.7-0.3-1.4-0.8-1.9-1.3
			c-0.6-0.6-1-1.2-1.3-2c-0.3-0.7-0.5-1.5-0.5-2.3c0-0.8,0.2-1.5,0.5-2.3c0.3-0.7,0.8-1.4,1.3-1.9c0.5-0.6,1.2-1,1.9-1.3
			C36.1,62,36.9,61.9,37.7,61.9z M40,66.5c-0.3-0.5-0.6-0.9-1-1.1c-0.4-0.2-0.8-0.3-1.3-0.3c-0.5,0-0.9,0.1-1.3,0.3
			c-0.4,0.2-0.7,0.6-1,1.1H40z"/>
		<path class="st9" d="M51,61.8c0.8,0,1.6,0.1,2.3,0.4c0.7,0.3,1.4,0.7,1.9,1.2c0.5,0.5,1,1.1,1.3,1.9c0.3,0.7,0.5,1.5,0.5,2.3v4.6
			c0,0.4-0.2,0.8-0.5,1.1c-0.3,0.3-0.7,0.5-1.1,0.5c-0.4,0-0.8-0.1-1.2-0.4c-0.3-0.3-0.5-0.7-0.5-1.1v-4.5c0-0.4-0.1-0.7-0.2-1.1
			c-0.1-0.3-0.3-0.6-0.6-0.9c-0.3-0.2-0.6-0.4-0.9-0.6C51.7,65.1,51.4,65,51,65c-0.4,0-0.7,0.1-1,0.2c-0.3,0.1-0.6,0.3-0.9,0.6
			c-0.2,0.2-0.4,0.5-0.6,0.8c-0.1,0.3-0.2,0.7-0.2,1v4.5c0,0.4-0.2,0.8-0.5,1.1c-0.3,0.3-0.7,0.5-1.1,0.5c-0.4,0-0.8-0.1-1.1-0.4
			c-0.3-0.3-0.5-0.7-0.5-1.1v-4.5c0-0.8,0.2-1.6,0.5-2.3c0.3-0.7,0.7-1.4,1.3-1.9c0.5-0.5,1.2-1,1.9-1.3C49.3,62,50.1,61.8,51,61.8z
			"/>
		<path class="st9" d="M64.4,61.9c1.7,0,3.1,0.6,4.2,1.7c0.3,0.3,0.4,0.7,0.4,1.1c0,0.4-0.2,0.8-0.5,1.1c-0.3,0.3-0.7,0.4-1.1,0.4
			c-0.5,0-0.8-0.1-1.1-0.4c-0.5-0.5-1.1-0.7-1.8-0.7c-0.4,0-0.7,0.1-1.1,0.2c-0.3,0.2-0.6,0.4-0.9,0.6c-0.3,0.3-0.5,0.6-0.6,0.9
			c-0.1,0.3-0.2,0.7-0.2,1c0,0.4,0.1,0.7,0.2,1.1c0.1,0.3,0.4,0.6,0.6,0.9c0.3,0.3,0.6,0.5,0.9,0.6c0.3,0.1,0.7,0.2,1.1,0.2
			c0.7,0,1.3-0.2,1.8-0.7c0.3-0.3,0.7-0.5,1.1-0.5c0.5,0,0.8,0.2,1.1,0.5c0.1,0.1,0.3,0.3,0.3,0.5c0.1,0.2,0.1,0.4,0.1,0.6
			c0,0.2,0,0.4-0.1,0.6c-0.1,0.2-0.2,0.4-0.3,0.5c-0.6,0.6-1.2,1-1.9,1.3c-0.7,0.3-1.5,0.4-2.3,0.4c-0.8,0-1.6-0.2-2.3-0.5
			c-0.7-0.3-1.4-0.8-1.9-1.3c-0.5-0.5-1-1.2-1.3-1.9c-0.3-0.7-0.5-1.5-0.5-2.3c0-0.8,0.2-1.6,0.5-2.3c0.3-0.7,0.8-1.4,1.3-1.9
			c0.6-0.5,1.2-1,1.9-1.3C62.8,62,63.5,61.9,64.4,61.9z"/>
		<path class="st9" d="M77,61.9c0.7,0.1,1.4,0.3,2.1,0.6c0.7,0.3,1.2,0.8,1.7,1.3c0.5,0.5,0.8,1.2,1.1,1.8c0.3,0.7,0.4,1.4,0.4,2.2
			v4.4c0,0.4-0.2,0.8-0.5,1.1c-0.3,0.3-0.7,0.5-1.1,0.5c-0.6,0-1-0.3-1.4-0.8c-0.1,0-0.2,0.1-0.2,0.1c-0.1,0-0.1,0.1-0.2,0.1
			c-0.4,0.2-0.8,0.3-1.2,0.4c-0.4,0.1-0.9,0.1-1.4,0.1c-1.2,0-2.4-0.3-3.3-1c-1-0.7-1.7-1.5-2.2-2.6c-0.2-0.4-0.3-0.8-0.4-1.2
			c-0.1-0.4-0.1-0.8-0.1-1.2c0-0.4,0-0.8,0.1-1.2c0.1-0.4,0.2-0.8,0.4-1.2c0.5-1.1,1.2-1.9,2.2-2.6c1-0.7,2.1-1,3.3-1
			c0.1,0,0.3,0,0.4,0C76.7,61.9,76.8,61.9,77,61.9z M76.2,70.7c0.4,0,0.7-0.1,1.1-0.2c0.3-0.1,0.6-0.3,0.9-0.6
			c0.2-0.2,0.4-0.5,0.6-0.9c0.1-0.3,0.2-0.7,0.2-1.1c0-0.4-0.1-0.7-0.2-1.1c-0.1-0.3-0.4-0.6-0.6-0.9c-0.3-0.3-0.6-0.5-0.9-0.6
			c-0.3-0.1-0.7-0.2-1.1-0.2c-0.4,0-0.7,0.1-1,0.2c-0.3,0.1-0.6,0.4-0.9,0.6c-0.3,0.3-0.5,0.6-0.6,0.9c-0.1,0.3-0.2,0.7-0.2,1.1
			c0,0.4,0.1,0.7,0.2,1.1c0.2,0.3,0.4,0.6,0.6,0.9c0.3,0.2,0.6,0.4,0.9,0.6C75.5,70.6,75.9,70.7,76.2,70.7z"/>
		<path class="st2" d="M91.9,72.8c-0.1,0.3-0.3,0.6-0.6,0.8c-0.3,0.2-0.6,0.3-0.9,0.3c-0.3,0-0.6-0.1-0.9-0.3
			c-0.3-0.2-0.5-0.5-0.6-0.8l-5.2-12.5c-0.2-0.4-0.2-0.9,0-1.3c0.2-0.4,0.5-0.7,0.9-0.9c0.4-0.2,0.9-0.2,1.3,0
			c0.4,0.2,0.7,0.5,0.9,1l3.6,8.5l3.6-8.5c0.2-0.4,0.5-0.8,0.9-1c0.4-0.2,0.8-0.2,1.3,0c0.4,0.2,0.7,0.5,0.9,0.9
			c0.2,0.4,0.2,0.8,0,1.3L91.9,72.8z"/>
		<path class="st2" d="M104.3,61.9c0.8,0,1.6,0.2,2.3,0.5c0.7,0.3,1.4,0.8,1.9,1.3c0.6,0.6,1,1.2,1.3,1.9c0.3,0.7,0.5,1.5,0.5,2.3
			c0,0.4-0.2,0.8-0.5,1c-0.3,0.2-0.7,0.4-1.2,0.3H102c0.5,0.9,1.3,1.4,2.3,1.4c0.3,0,0.5,0,0.7-0.1c0.2,0,0.3-0.1,0.5-0.2
			c0.1-0.1,0.3-0.1,0.4-0.2c0.1,0,0.3-0.1,0.5-0.1c0.3,0,0.6,0.1,0.9,0.3c0.3,0.2,0.4,0.4,0.6,0.7c0.1,0.3,0.2,0.6,0.1,0.9
			c0,0.3-0.2,0.6-0.4,0.9c-0.4,0.4-0.9,0.6-1.5,0.8c-0.5,0.1-1.1,0.2-1.7,0.2c-0.8,0-1.6-0.1-2.3-0.4c-0.7-0.3-1.4-0.8-1.9-1.3
			c-0.6-0.6-1-1.2-1.3-2c-0.3-0.7-0.5-1.5-0.5-2.3c0-0.8,0.2-1.5,0.5-2.3c0.3-0.7,0.8-1.4,1.3-1.9c0.5-0.6,1.2-1,1.9-1.3
			C102.7,62,103.5,61.9,104.3,61.9z M106.5,66.5c-0.3-0.5-0.6-0.9-1-1.1c-0.4-0.2-0.8-0.3-1.3-0.3c-0.5,0-0.9,0.1-1.3,0.3
			c-0.4,0.2-0.7,0.6-1,1.1H106.5z"/>
		<path class="st2" d="M113.1,73.9c-0.4,0-0.8-0.1-1.1-0.4c-0.3-0.3-0.5-0.7-0.5-1.2v-4.6c0-0.8,0.2-1.5,0.5-2.2
			c0.3-0.7,0.8-1.3,1.3-1.8c0.5-0.5,1.2-0.9,1.9-1.2c0.7-0.3,1.5-0.5,2.3-0.5c0.5,0,0.8,0.2,1.2,0.5c0.3,0.3,0.5,0.7,0.5,1.1
			c0,0.4-0.2,0.8-0.5,1.1c-0.3,0.3-0.7,0.5-1.2,0.5c-0.4,0-0.7,0.1-1.1,0.2c-0.3,0.1-0.6,0.3-0.9,0.6c-0.2,0.2-0.4,0.5-0.6,0.9
			c-0.1,0.3-0.2,0.7-0.2,1.1v4.5c0,0.4-0.2,0.8-0.5,1.1C113.9,73.8,113.5,73.9,113.1,73.9z"/>
		<path class="st2" d="M130,58.1c0.4,0,0.8,0.2,1.1,0.5c0.3,0.3,0.5,0.7,0.5,1.2v8.2c0,0.8-0.2,1.6-0.5,2.3
			c-0.3,0.7-0.8,1.4-1.3,1.9c-0.6,0.5-1.2,1-1.9,1.3c-0.7,0.3-1.5,0.5-2.3,0.5c-0.8,0-1.6-0.2-2.3-0.5c-0.7-0.3-1.4-0.7-1.9-1.3
			c-0.6-0.5-1-1.2-1.3-1.9c-0.3-0.7-0.5-1.5-0.5-2.3c0-0.8,0.2-1.6,0.5-2.3c0.3-0.7,0.8-1.4,1.3-1.9c0.6-0.5,1.2-1,1.9-1.3
			c0.7-0.3,1.5-0.5,2.3-0.5c1,0,1.9,0.2,2.8,0.7v-2.9c0-0.2,0-0.4,0.1-0.6c0.1-0.2,0.2-0.4,0.4-0.5c0.1-0.1,0.3-0.3,0.5-0.3
			C129.5,58.1,129.8,58.1,130,58.1z M125.6,65.1c-0.4,0-0.7,0.1-1.1,0.2c-0.3,0.1-0.6,0.4-0.9,0.6c-0.3,0.3-0.5,0.6-0.6,0.9
			c-0.1,0.3-0.2,0.7-0.2,1.1c0,0.4,0.1,0.7,0.2,1.1c0.1,0.3,0.4,0.6,0.6,0.9c0.3,0.2,0.6,0.4,0.9,0.6c0.3,0.1,0.7,0.2,1.1,0.2
			c0.4,0,0.7-0.1,1-0.2c0.3-0.1,0.6-0.4,0.9-0.6c0.3-0.3,0.5-0.6,0.6-0.9c0.1-0.3,0.2-0.7,0.2-1.1c0-0.4-0.1-0.8-0.2-1.1
			c-0.1-0.3-0.4-0.6-0.6-0.9c-0.3-0.2-0.6-0.4-0.9-0.6C126.3,65.2,125.9,65.1,125.6,65.1z"/>
		<path class="st2" d="M139,61.9c0.8,0,1.6,0.2,2.3,0.5c0.7,0.3,1.4,0.8,1.9,1.3c0.6,0.6,1,1.2,1.3,1.9c0.3,0.7,0.5,1.5,0.5,2.3
			c0,0.4-0.2,0.8-0.5,1c-0.3,0.2-0.7,0.4-1.2,0.3h-6.6c0.5,0.9,1.3,1.4,2.3,1.4c0.3,0,0.5,0,0.7-0.1c0.2,0,0.3-0.1,0.5-0.2
			c0.1-0.1,0.3-0.1,0.4-0.2c0.1,0,0.3-0.1,0.5-0.1c0.3,0,0.6,0.1,0.9,0.3c0.3,0.2,0.4,0.4,0.6,0.7c0.1,0.3,0.2,0.6,0.1,0.9
			c0,0.3-0.2,0.6-0.4,0.9c-0.4,0.4-0.9,0.6-1.5,0.8c-0.5,0.1-1.1,0.2-1.7,0.2c-0.8,0-1.6-0.1-2.3-0.4c-0.7-0.3-1.4-0.8-1.9-1.3
			c-0.6-0.6-1-1.2-1.3-2c-0.3-0.7-0.5-1.5-0.5-2.3c0-0.8,0.2-1.5,0.5-2.3c0.3-0.7,0.8-1.4,1.3-1.9c0.5-0.6,1.2-1,1.9-1.3
			C137.4,62,138.2,61.9,139,61.9z M141.2,66.5c-0.3-0.5-0.6-0.9-1-1.1c-0.4-0.2-0.8-0.3-1.3-0.3c-0.5,0-0.9,0.1-1.3,0.3
			c-0.4,0.2-0.7,0.6-1,1.1H141.2z"/>
	</g>
	<g>
		<g>
			<path class="st9" d="M58.3,77.7h0.4v2.7c0,1,0.5,1.4,1.3,1.4c0.8,0,1.3-0.4,1.3-1.4v-2.7h0.4v2.7c0,0.9-0.5,1.6-1.7,1.6
				c-1.2,0-1.7-0.8-1.7-1.6V77.7z"/>
			<path class="st9" d="M63.5,78.9h0.4v0.5h0c0.1-0.4,0.6-0.6,1-0.6c0.9,0,1.1,0.5,1.1,1.2v2h-0.4v-1.9c0-0.5-0.2-0.9-0.8-0.9
				c-0.6,0-1,0.5-1,1.1V82h-0.4V78.9z"/>
			<path class="st9" d="M70.6,77.7h0.4V82h-0.4V77.7z"/>
			<path class="st9" d="M73,80.6c0,0.6,0.3,1.2,1,1.2c0.6,0,0.9-0.3,1-0.8h0.4c-0.2,0.7-0.6,1.1-1.4,1.1c-1,0-1.4-0.8-1.4-1.6
				c0-0.8,0.4-1.6,1.4-1.6c1,0,1.4,0.9,1.4,1.7H73z M75,80.2c0-0.6-0.4-1.1-1-1.1c-0.6,0-1,0.5-1,1.1H75z"/>
			<path class="st9" d="M79.6,81.8c0,0.9-0.4,1.5-1.4,1.5c-0.6,0-1.2-0.3-1.3-0.9h0.4c0.1,0.5,0.5,0.6,0.9,0.6c0.7,0,1-0.4,1-1.2
				v-0.4h0c-0.2,0.4-0.5,0.6-1,0.6c-1,0-1.4-0.7-1.4-1.6c0-0.9,0.5-1.6,1.4-1.6c0.5,0,0.8,0.3,1,0.6h0v-0.5h0.4V81.8z M79.2,80.4
				c0-0.6-0.3-1.3-1-1.3c-0.7,0-1,0.6-1,1.3c0,0.6,0.3,1.2,1,1.2C78.9,81.7,79.2,81.1,79.2,80.4z"/>
			<path class="st9" d="M81.3,79.9c0-0.7,0.5-1,1.3-1c0.5,0,1.1,0.2,1.1,1v1.6c0,0.1,0.1,0.2,0.2,0.2c0,0,0.1,0,0.1,0V82
				c-0.1,0-0.1,0-0.2,0c-0.4,0-0.4-0.2-0.4-0.5h0c-0.3,0.4-0.5,0.6-1.1,0.6c-0.6,0-1-0.3-1-0.9c0-0.9,0.8-0.9,1.7-1
				c0.3,0,0.5-0.1,0.5-0.4c0-0.5-0.4-0.6-0.8-0.6c-0.5,0-0.8,0.2-0.8,0.7H81.3z M83.4,80.3L83.4,80.3c-0.1,0.1-0.2,0.1-0.3,0.1
				c-0.6,0.1-1.4,0.1-1.4,0.7c0,0.4,0.3,0.6,0.7,0.6c0.6,0,1.1-0.4,1.1-1V80.3z"/>
			<path class="st9" d="M88.3,82H88v-0.6h0c-0.2,0.4-0.7,0.7-1.1,0.7c-0.9,0-1.4-0.8-1.4-1.6s0.5-1.6,1.4-1.6c0.5,0,0.9,0.2,1.1,0.7
				h0v-1.8h0.4V82z M86.8,81.8c0.8,0,1.1-0.7,1.1-1.3c0-0.6-0.3-1.3-1.1-1.3c-0.7,0-1,0.7-1,1.3C85.8,81.1,86.1,81.8,86.8,81.8z"/>
			<path class="st9" d="M92.9,80.5c0,0.9-0.5,1.6-1.5,1.6c-1,0-1.5-0.8-1.5-1.6c0-0.9,0.5-1.6,1.5-1.6
				C92.4,78.8,92.9,79.6,92.9,80.5z M90.3,80.5c0,0.7,0.4,1.3,1.1,1.3c0.7,0,1.1-0.7,1.1-1.3c0-0.7-0.4-1.3-1.1-1.3
				C90.7,79.1,90.3,79.8,90.3,80.5z"/>
			<path class="st9" d="M97.3,78.9h0.3v0.6h0c0.2-0.4,0.6-0.7,1.1-0.7c0.9,0,1.4,0.8,1.4,1.6s-0.5,1.6-1.4,1.6
				c-0.5,0-0.9-0.2-1.1-0.7h0v1.7h-0.4V78.9z M98.8,79.1c-0.8,0-1.1,0.6-1.1,1.3c0,0.6,0.3,1.3,1.1,1.3c0.7,0,1-0.7,1-1.3
				C99.8,79.8,99.5,79.1,98.8,79.1z"/>
			<path class="st9" d="M101.8,79.9c0-0.7,0.5-1,1.3-1c0.5,0,1.1,0.2,1.1,1v1.6c0,0.1,0.1,0.2,0.2,0.2c0,0,0.1,0,0.1,0V82
				c-0.1,0-0.1,0-0.2,0c-0.4,0-0.4-0.2-0.4-0.5h0c-0.3,0.4-0.5,0.6-1.1,0.6c-0.6,0-1-0.3-1-0.9c0-0.9,0.8-0.9,1.7-1
				c0.3,0,0.5-0.1,0.5-0.4c0-0.5-0.4-0.6-0.8-0.6c-0.5,0-0.8,0.2-0.8,0.7H101.8z M103.8,80.3L103.8,80.3c-0.1,0.1-0.2,0.1-0.3,0.1
				c-0.6,0.1-1.4,0.1-1.4,0.7c0,0.4,0.3,0.6,0.7,0.6c0.6,0,1.1-0.4,1.1-1V80.3z"/>
			<path class="st9" d="M106,78.9h0.3v0.7h0c0.2-0.5,0.6-0.8,1.2-0.8v0.4c-0.7,0-1.2,0.5-1.2,1.1V82H106V78.9z"/>
			<path class="st9" d="M109,79.9c0-0.7,0.5-1,1.3-1c0.5,0,1.1,0.2,1.1,1v1.6c0,0.1,0.1,0.2,0.2,0.2c0,0,0.1,0,0.1,0V82
				c-0.1,0-0.1,0-0.2,0c-0.4,0-0.4-0.2-0.4-0.5h0c-0.3,0.4-0.5,0.6-1.1,0.6c-0.6,0-1-0.3-1-0.9c0-0.9,0.8-0.9,1.7-1
				c0.3,0,0.5-0.1,0.5-0.4c0-0.5-0.4-0.6-0.8-0.6c-0.5,0-0.8,0.2-0.8,0.7H109z M111,80.3L111,80.3c-0.1,0.1-0.2,0.1-0.3,0.1
				c-0.6,0.1-1.4,0.1-1.4,0.7c0,0.4,0.3,0.6,0.7,0.6c0.6,0,1.1-0.4,1.1-1V80.3z"/>
			<path class="st9" d="M116.2,80.6c0,0.6,0.3,1.2,1,1.2c0.6,0,0.9-0.3,1-0.8h0.4c-0.2,0.7-0.6,1.1-1.4,1.1c-1,0-1.4-0.8-1.4-1.6
				c0-0.8,0.4-1.6,1.4-1.6c1,0,1.4,0.9,1.4,1.7H116.2z M118.2,80.2c0-0.6-0.4-1.1-1-1.1c-0.6,0-1,0.5-1,1.1H118.2z"/>
			<path class="st9" d="M120.2,77.7h0.4V82h-0.4V77.7z"/>
			<path class="st9" d="M126.3,79.2h-0.6V82h-0.4v-2.8h-0.5v-0.3h0.5v-0.3c0-0.5,0.1-0.9,0.8-0.9c0.1,0,0.2,0,0.3,0v0.3
				c-0.1,0-0.2,0-0.3,0c-0.4,0-0.4,0.3-0.4,0.6v0.3h0.6V79.2z"/>
			<path class="st9" d="M130.3,82h-0.3v-0.6h0c-0.2,0.4-0.6,0.6-1.1,0.6c-0.8,0-1.1-0.5-1.1-1.2v-2h0.4v2c0,0.6,0.2,0.9,0.8,0.9
				c0.6,0,0.9-0.6,0.9-1.2v-1.6h0.4V82z"/>
			<path class="st9" d="M132.7,78.9h0.6v0.3h-0.6v2.1c0,0.2,0,0.4,0.3,0.4c0.1,0,0.2,0,0.3,0V82c-0.1,0-0.2,0-0.3,0
				c-0.5,0-0.7-0.2-0.7-0.7v-2.1h-0.5v-0.3h0.5V78h0.4V78.9z"/>
			<path class="st9" d="M137.4,82h-0.3v-0.6h0c-0.2,0.4-0.6,0.6-1.1,0.6c-0.8,0-1.1-0.5-1.1-1.2v-2h0.4v2c0,0.6,0.2,0.9,0.8,0.9
				c0.6,0,0.9-0.6,0.9-1.2v-1.6h0.4V82z"/>
			<path class="st9" d="M139.2,78.9h0.3v0.7h0c0.2-0.5,0.6-0.8,1.2-0.8v0.4c-0.7,0-1.2,0.5-1.2,1.1V82h-0.4V78.9z"/>
			<path class="st9" d="M145,80.5c0,0.9-0.5,1.6-1.5,1.6c-1,0-1.5-0.8-1.5-1.6c0-0.9,0.5-1.6,1.5-1.6C144.5,78.8,145,79.6,145,80.5z
				 M142.4,80.5c0,0.7,0.4,1.3,1.1,1.3c0.7,0,1.1-0.7,1.1-1.3c0-0.7-0.4-1.3-1.1-1.3C142.8,79.1,142.4,79.8,142.4,80.5z"/>
		</g>
	</g>
</g>
</svg>
