<?xml version="1.0" encoding="utf-8"?>
<!-- Generator: Adobe Illustrator 22.1.0, SVG Export Plug-In . SVG Version: 6.00 Build 0)  -->
<svg version="1.1" id="Layer_1" xmlns="http://www.w3.org/2000/svg" xmlns:xlink="http://www.w3.org/1999/xlink" x="0px" y="0px"
	 viewBox="0 0 250 67" style="enable-background:new 0 0 250 67;" xml:space="preserve">
<style type="text/css">
	.st0{fill:#FFFFFF;}
</style>
<g>
	<path class="st0" d="M51.2,41.9l-11,11c-2.6,2.6-6.7,2.6-9.3,0l0,0c-2.6-2.6-2.6-6.7,0-9.3l11-11c2.6-2.6,6.7-2.6,9.3,0l0,0
		C53.8,35.2,53.8,39.3,51.2,41.9z"/>
	<path class="st0" d="M26.8,17.5l-11,11c-2.6,2.6-6.7,2.6-9.3,0l0,0c-2.6-2.6-2.6-6.7,0-9.3l11-11c2.6-2.6,6.7-2.6,9.3,0l0,0
		C29.4,10.8,29.4,14.9,26.8,17.5z"/>
	<path class="st0" d="M51.2,17.5L15.1,53.6c-2.6,2.6-6.7,2.6-9.3,0l0,0c-2.6-2.6-2.6-6.7,0-9.3L41.9,8.2c2.6-2.6,6.7-2.6,9.3,0l0,0
		C53.8,10.8,53.8,14.9,51.2,17.5z"/>
</g>
<g>
	<path class="st0" d="M79.7,16c-0.6,0-1.1,0.1-1.7,0.2c-0.6,0.1-1,0.3-1.5,0.5c-0.4,0.2-0.8,0.5-1,0.8c-0.3,0.3-0.4,0.7-0.4,1.2
		c0,0.7,0.2,1.3,0.5,1.7c0.4,0.4,0.9,0.8,1.6,1.1c0.7,0.3,1.6,0.6,2.7,0.9c1.1,0.3,2.4,0.7,3.8,1.2c1.9,0.6,3.6,1.4,5.1,2.3
		c1.5,0.9,2.8,2,3.9,3.2c1.1,1.2,1.9,2.6,2.5,4.1c0.6,1.5,0.9,3.2,0.9,5.1c0,2.3-0.5,4.5-1.5,6.4s-2.3,3.6-4,5
		c-1.7,1.4-3.6,2.5-5.7,3.2c-2.2,0.8-4.4,1.2-6.7,1.2c-2,0-3.9-0.3-5.6-0.9s-3.4-1.4-4.9-2.4c-1.5-1-2.8-2.3-3.9-3.7
		c-1.1-1.4-2-3-2.6-4.7l3.5-2c0.6-0.3,1.2-0.6,1.8-0.8c0.6-0.2,1.3-0.3,1.9-0.3c1,0,1.8,0.2,2.6,0.6c0.8,0.4,1.5,0.8,2.3,1.3
		c0.7,0.5,1.5,0.9,2.3,1.3c0.8,0.4,1.7,0.6,2.7,0.6c0.7,0,1.4-0.1,2.2-0.3c0.8-0.2,1.5-0.5,2.2-0.9c0.7-0.4,1.3-0.9,1.7-1.5
		c0.4-0.6,0.7-1.3,0.7-2.1c0-0.7-0.2-1.3-0.6-1.8c-0.4-0.5-1-0.9-1.7-1.2s-1.5-0.7-2.4-1c-0.9-0.3-1.9-0.6-2.9-1
		c-1.7-0.6-3.3-1.3-4.9-2.1c-1.6-0.7-3.1-1.7-4.3-2.7c-1.3-1.1-2.3-2.4-3.1-4c-0.8-1.6-1.2-3.5-1.2-5.8c0-2.2,0.4-4.1,1.3-5.8
		c0.9-1.7,2.1-3.1,3.5-4.3c1.5-1.2,3.1-2.1,5-2.7C75.8,5.3,77.8,5,79.7,5c1.4,0,2.8,0.2,4.2,0.7c1.4,0.5,2.6,1.1,3.9,1.9
		c1.2,0.8,2.3,1.7,3.4,2.6s2,2,2.9,3l-3.4,2.9c-0.7,0.6-1.4,1-2.1,1.2c-0.7,0.2-1.5,0.4-2.4,0.4c-0.7,0-1.3-0.1-1.9-0.3
		c-0.5-0.2-1-0.4-1.5-0.6c-0.5-0.2-0.9-0.4-1.4-0.6C80.8,16.1,80.3,16,79.7,16z"/>
	<path class="st0" d="M110.2,18.4v35.4h-11V18.4H110.2z"/>
	<path class="st0" d="M147.1,34.2c0,1.1-0.2,2-0.6,2.7c-0.4,0.8-1,1.4-1.6,1.8c-0.7,0.5-1.4,0.8-2.1,1c-0.8,0.2-1.5,0.3-2.2,0.3H123
		c0.2,0.8,0.6,1.5,1.2,2.2c0.4,0.5,1.1,1,1.8,1.5c0.8,0.4,1.8,0.7,3,0.7c0.6,0,1.3-0.1,1.9-0.3c0.6-0.2,1.2-0.4,1.8-0.7
		s1.2-0.5,1.8-0.7c0.6-0.2,1.3-0.3,2-0.3c1.1,0,2,0.2,2.8,0.5c0.8,0.3,1.5,0.9,2.2,1.5l2.8,2.8c-2.1,2.3-4.5,4-7.1,5.2
		c-2.6,1.2-5.2,1.7-7.9,1.7c-2.5,0-4.9-0.5-7.1-1.4c-2.2-1-4.2-2.3-5.8-3.9c-1.7-1.6-3-3.6-3.9-5.8c-1-2.2-1.4-4.6-1.4-7.1
		c0-2.5,0.5-4.8,1.4-7.1c1-2.2,2.3-4.1,3.9-5.8c1.6-1.6,3.6-3,5.8-3.9c2.2-1,4.6-1.4,7.1-1.4c2.1,0,4.1,0.4,6,1.1
		c1.9,0.8,3.7,1.8,5.3,3c1.6,1.3,2.9,2.8,4,4.5c1.1,1.7,1.9,3.5,2.4,5.4c0.1,0.4,0.1,0.8,0.2,1.2C147.1,33.6,147.1,33.9,147.1,34.2z
		 M135.8,32.2c-0.4-0.8-0.9-1.6-1.5-2.2c-0.5-0.6-1.2-1.1-2-1.5c-0.8-0.5-1.9-0.7-3.1-0.7c-1.3,0-2.3,0.3-3.2,0.8
		c-0.9,0.5-1.5,1.1-2.1,1.7c-0.6,0.7-1,1.6-1.4,2.5c0.1-0.1,0.3-0.2,0.5-0.3c0.2-0.1,0.3-0.1,0.5-0.2c0.2-0.1,0.4-0.1,0.7-0.1H135.8
		z"/>
	<path class="st0" d="M177.6,34.2c0,1.1-0.2,2-0.6,2.7c-0.4,0.8-1,1.4-1.6,1.8c-0.7,0.5-1.4,0.8-2.1,1c-0.8,0.2-1.5,0.3-2.2,0.3
		h-17.4c0.2,0.8,0.6,1.5,1.2,2.2c0.4,0.5,1.1,1,1.8,1.5c0.8,0.4,1.8,0.7,3,0.7c0.6,0,1.3-0.1,1.9-0.3c0.6-0.2,1.2-0.4,1.8-0.7
		c0.6-0.2,1.2-0.5,1.8-0.7c0.6-0.2,1.3-0.3,2-0.3c1.1,0,2,0.2,2.8,0.5c0.8,0.3,1.5,0.9,2.2,1.5l2.8,2.8c-2.1,2.3-4.5,4-7.1,5.2
		c-2.6,1.2-5.2,1.7-7.9,1.7c-2.5,0-4.9-0.5-7.1-1.4c-2.2-1-4.2-2.3-5.8-3.9c-1.7-1.6-3-3.6-3.9-5.8c-1-2.2-1.4-4.6-1.4-7.1
		c0-2.5,0.5-4.8,1.4-7.1c1-2.2,2.3-4.1,3.9-5.8c1.6-1.6,3.6-3,5.8-3.9c2.2-1,4.6-1.4,7.1-1.4c2.1,0,4.1,0.4,6,1.1
		c1.9,0.8,3.7,1.8,5.3,3c1.6,1.3,2.9,2.8,4,4.5c1.1,1.7,1.9,3.5,2.4,5.4c0.1,0.4,0.1,0.8,0.2,1.2C177.6,33.6,177.6,33.9,177.6,34.2z
		 M166.2,32.2c-0.4-0.8-0.9-1.6-1.5-2.2c-0.5-0.6-1.2-1.1-2-1.5s-1.9-0.7-3.1-0.7c-1.3,0-2.3,0.3-3.2,0.8c-0.9,0.5-1.5,1.1-2.1,1.7
		c-0.6,0.7-1,1.6-1.4,2.5c0.1-0.1,0.3-0.2,0.5-0.3c0.2-0.1,0.3-0.1,0.5-0.2c0.2-0.1,0.4-0.1,0.7-0.1H166.2z"/>
	<path class="st0" d="M172.5,18.4h7.1c0.7,0,1.4,0.1,2.1,0.3c0.7,0.2,1.3,0.5,1.9,0.8c0.6,0.4,1.1,0.8,1.5,1.3
		c0.4,0.5,0.8,1.1,1,1.7l6.4,16c0.3,0.7,0.4,1.2,0.5,1.7c0.1,0.4,0.1,0.8,0.1,0.9v0.2c0-0.3,0.1-0.6,0.1-0.8c0-0.2,0.1-0.5,0.2-0.9
		s0.2-0.7,0.3-1.1l6.5-16.1c0.3-0.6,0.6-1.2,1.1-1.7c0.4-0.5,1-1,1.5-1.3c0.6-0.4,1.2-0.6,1.9-0.8c0.7-0.2,1.4-0.3,2.1-0.3h7
		l-14.4,35.4h-12.6L172.5,18.4z"/>
	<path class="st0" d="M245,34.2c0,1.1-0.2,2-0.6,2.7c-0.4,0.8-1,1.4-1.6,1.8c-0.7,0.5-1.4,0.8-2.1,1c-0.8,0.2-1.5,0.3-2.2,0.3h-17.4
		c0.2,0.8,0.6,1.5,1.2,2.2c0.4,0.5,1.1,1,1.8,1.5c0.8,0.4,1.8,0.7,3,0.7c0.6,0,1.3-0.1,1.9-0.3c0.6-0.2,1.2-0.4,1.8-0.7
		c0.6-0.2,1.2-0.5,1.8-0.7c0.6-0.2,1.3-0.3,2-0.3c1.1,0,2,0.2,2.8,0.5c0.8,0.3,1.5,0.9,2.2,1.5l2.8,2.8c-2.1,2.3-4.5,4-7.1,5.2
		c-2.6,1.2-5.2,1.7-7.9,1.7c-2.5,0-4.9-0.5-7.1-1.4c-2.2-1-4.2-2.3-5.8-3.9c-1.7-1.6-3-3.6-3.9-5.8c-1-2.2-1.4-4.6-1.4-7.1
		c0-2.5,0.5-4.8,1.4-7.1c1-2.2,2.3-4.1,3.9-5.8c1.6-1.6,3.6-3,5.8-3.9c2.2-1,4.6-1.4,7.1-1.4c2.1,0,4.1,0.4,6,1.1
		c1.9,0.8,3.7,1.8,5.3,3c1.6,1.3,2.9,2.8,4,4.5c1.1,1.7,1.9,3.5,2.4,5.4c0.1,0.4,0.1,0.8,0.2,1.2C245,33.6,245,33.9,245,34.2z
		 M233.7,32.2c-0.4-0.8-0.9-1.6-1.5-2.2c-0.5-0.6-1.2-1.1-2-1.5s-1.9-0.7-3.1-0.7c-1.3,0-2.3,0.3-3.2,0.8c-0.9,0.5-1.5,1.1-2.1,1.7
		c-0.6,0.7-1,1.6-1.4,2.5c0.1-0.1,0.3-0.2,0.5-0.3c0.2-0.1,0.3-0.1,0.5-0.2c0.2-0.1,0.4-0.1,0.7-0.1H233.7z"/>
	<path class="st0" d="M174.1,63.8h-60.4c-1.5,0-2.7-1.2-2.7-2.7v0c0-1.5,1.2-2.7,2.7-2.7h60.4c1.5,0,2.7,1.2,2.7,2.7v0
		C176.8,62.6,175.6,63.8,174.1,63.8z"/>
</g>
</svg>
