<?xml version="1.0" encoding="iso-8859-1"?>
<!-- Generator: Adobe Illustrator 22.1.0, SVG Export Plug-In . SVG Version: 6.00 Build 0)  -->
<svg version="1.1" id="Layer_1" xmlns="http://www.w3.org/2000/svg" xmlns:xlink="http://www.w3.org/1999/xlink" x="0px" y="0px"
	 viewBox="-49 141 512 512" style="enable-background:new -49 141 512 512;" xml:space="preserve">
<path style="fill:#FFFFFF;" d="M364.59,417.682H-31.59c-9.615,0-17.41-9.259-17.41-20.682c0-11.423,7.795-20.682,17.41-20.682
	h396.18c9.616,0,17.41,9.26,17.41,20.682C382,408.423,374.206,417.682,364.59,417.682z"/>
<path style="fill:#FFFFFF;" d="M442.318,260.803H-28.318c-11.422,0-20.682-9.26-20.682-20.682s9.26-20.682,20.682-20.682h470.636
	c11.423,0,20.682,9.26,20.682,20.682S453.741,260.803,442.318,260.803z"/>
<path style="fill:#FFFFFF;" d="M279.185,574.561h-314.37c-7.63,0-13.815-9.259-13.815-20.682s6.185-20.682,13.815-20.682h314.37
	c7.63,0,13.815,9.259,13.815,20.682S286.815,574.561,279.185,574.561z"/>
</svg>
