<?xml version="1.0" encoding="UTF-8"?>
<svg width="45px" height="45px" viewBox="0 0 45 45" version="1.1" xmlns="http://www.w3.org/2000/svg" xmlns:xlink="http://www.w3.org/1999/xlink">
    <!-- Generator: Sketch 48.1 (47250) - http://www.bohemiancoding.com/sketch -->
    <title>pie-chart</title>
    <desc>Created with Sketch.</desc>
    <defs>
        <polygon id="path-1" points="0 3.26804015e-14 2.38030674e-18 45 45 45 45 1.96082409e-14 3.17374233e-18 0"></polygon>
    </defs>
    <g id="DASHBOARD" stroke="none" stroke-width="1" fill="none" fill-rule="evenodd" transform="translate(-66.000000, -539.000000)">
        <g id="MENU-GERENCIA" transform="translate(38.000000, 108.000000)">
            <g id="pie-chart" transform="translate(28.000000, 431.000000)">
                <mask id="mask-2" fill="white">
                    <use xlink:href="#path-1"></use>
                </mask>
                <g id="Clip-2"></g>
                <path d="M26.7521747,0 C26.2646463,0 25.875,0.41269345 25.875,0.928794748 L25.875,19.3216742 C25.875,19.8373065 26.2646463,20.25 26.7521747,20.25 L44.1228253,20.25 C44.6098001,20.25 45,19.8373065 45,19.3216742 C45,14.6036033 43.3788544,10.0640925 40.4289918,6.52806003 C36.9653586,2.38236673 31.9783512,0 26.7521747,0 Z M27.6289065,18.3928795 L27.6289065,1.88502423 C32.0314999,2.13826794 36.1773186,4.24863217 39.1179909,7.76590589 C41.5895154,10.7207675 43.0246406,14.4725262 43.2283772,18.3928795 L27.6289065,18.3928795 Z" id="Fill-1" fill="#FFFFFF" mask="url(#mask-2)"></path>
                <path d="M40.5,24.750057 C40.5,24.2482544 40.0983784,23.8468351 39.5961232,23.8468351 L21.1582695,23.8468351 L21.1582695,5.4032219 C21.1582695,4.90153335 20.756762,4.5 20.2545068,4.5 C9.08235271,4.5 0,13.5803574 0,24.750057 C0,35.9108591 9.08235271,45 20.2545068,45 C31.4270032,45 40.5,35.9108591 40.5,24.750057 Z M20.2545068,43.193214 C10.0859503,43.193214 1.80729714,34.9162655 1.80729714,24.750057 C1.80729714,14.8849985 9.59305107,6.79969102 19.3510865,6.3251516 L19.3510865,24.7411594 C19.3510865,25.242848 19.7525939,25.6443813 20.2545068,25.6443813 L38.6744473,25.6443813 C38.1998036,35.3997026 30.121619,43.193214 20.2545068,43.193214 Z" id="Fill-3" fill="#FFFFFF" mask="url(#mask-2)"></path>
            </g>
        </g>
    </g>
</svg>