<?xml version="1.0" encoding="UTF-8"?>
<svg width="61px" height="61px" viewBox="0 0 61 61" version="1.1" xmlns="http://www.w3.org/2000/svg" xmlns:xlink="http://www.w3.org/1999/xlink">
    <!-- Generator: Sketch 48.1 (47250) - http://www.bohemiancoding.com/sketch -->
    <title>piggy-bank</title>
    <desc>Created with Sketch.</desc>
    <defs>
        <polygon id="path-1" points="0.00943298969 0.106666667 60.9374278 0.106666667 60.9374278 60.9998333 0.00943298969 60.9998333"></polygon>
    </defs>
    <g id="PRESUPUESTO" stroke="none" stroke-width="1" fill="none" fill-rule="evenodd" transform="translate(-413.000000, -129.000000)">
        <g id="piggy-bank" transform="translate(413.000000, 129.000000)">
            <g id="Group-3">
                <mask id="mask-2" fill="white">
                    <use xlink:href="#path-1"></use>
                </mask>
                <g id="Clip-2"></g>
                <path d="M56.5856753,22.0135 L55.5667552,22.0135 C54.0947371,17.9335 51.5921649,14.2401667 48.2341778,11.2531667 L48.2341778,11.2265 C47.7312423,9.37366667 48.1082474,7.38666667 49.3285619,5.32016667 C49.9574278,4.25316667 49.9948454,2.96016667 49.4162887,1.8665 C48.8501521,0.786333333 47.7815515,0.106666667 46.6239665,0.106666667 C46.4857732,0.106666667 46.3475799,0.119666667 46.2216495,0.133333333 C41.5554639,0.746666667 38.7631418,2.99983333 37.1534021,5.09366667 C34.3610799,4.27983333 31.4684536,3.8665 28.525518,3.8665 C20.9410799,3.8665 13.8098969,6.61316667 8.42711856,11.6001667 C2.99324485,16.6398333 0,23.36 0,30.52 C0,32.3736667 0.20139433,34.2265 0.616603093,36.0403333 C0.616603093,36.067 0.628865979,36.1066667 0.641128866,36.1333333 C0.641128866,36.1333333 0.654020619,36.16 0.666283505,36.2135 C1.09438402,38.0403333 1.72325,39.8266667 2.54061856,41.52 C3.88623454,44.6268333 5.50870876,47.2135 7.33273454,49.2135 C9.92366237,52.0403333 10.3640258,55.6131667 10.4265979,57.0533333 L10.4265979,57.8931667 C10.4265979,57.9601667 10.4265979,58.0266667 10.4388608,58.08 C10.5899459,59.72 11.9110361,60.9868333 13.4703093,60.9868333 L22.8405696,60.9868333 C24.5135103,60.9868333 25.8842809,59.5331667 25.8842809,57.7603333 L25.8842809,57.0936667 C27.3434072,57.2135 28.8147964,57.2401667 30.2863428,57.16 L30.2863428,57.7733333 C30.2863428,59.5468333 31.6569562,60.9998333 33.3298969,60.9998333 L42.7003144,60.9998333 C44.3724691,60.9998333 45.7438686,59.5468333 45.7438686,57.7733333 L45.7438686,55.3468333 C45.7561314,54.7733333 45.9697887,52.0533333 48.3975258,49.707 C48.5105644,49.6001667 48.6363376,49.4933333 48.7493763,49.3866667 L48.7745309,49.36 C48.7996856,49.3331667 48.8378892,49.3065 48.8630438,49.2798333 C52.0073737,46.2935 54.3594897,42.6535 55.7172113,38.6801667 L56.5979381,38.6801667 C58.9874716,38.6801667 60.9374278,36.6131667 60.9374278,34.08 L60.9374278,26.6665 C60.9245361,24.08 58.9752088,22.0135 56.5856753,22.0135 Z M57.9059794,34.0266667 C57.9059794,34.8 57.3146881,35.427 56.5856753,35.427 L54.6234562,35.427 C53.9565438,35.427 53.3781443,35.8801667 53.1765928,36.5598333 C52.057683,40.427 49.8437603,43.9998333 46.7879433,46.8931667 L46.7497397,46.9335 L46.4101521,47.2531667 C46.3978892,47.2668333 46.3849974,47.2798333 46.3727345,47.2798333 C43.0773196,50.453 42.737732,54.1866667 42.7125773,55.2531667 L42.7125773,57.7466667 C42.7125773,57.7603333 42.7003144,57.7733333 42.6874227,57.7733333 L33.317634,57.7733333 C33.3047423,57.7733333 33.2924794,57.7603333 33.2924794,57.7466667 L33.2924794,55.4133333 C33.2924794,54.9601667 33.1162397,54.5331667 32.7889149,54.2265 C32.5125284,53.9601667 32.1476289,53.813 31.7828866,53.813 C31.7325773,53.813 31.682268,53.813 31.6195387,53.8266667 C30.587884,53.9465 29.5444381,53.9998333 28.5126263,53.9998333 C27.1923222,53.9998333 25.8589691,53.9068333 24.5631907,53.72 C24.1358763,53.6535 23.6955129,53.8 23.368817,54.1066667 C23.0414923,54.4133333 22.8528325,54.8533333 22.8528325,55.3065 L22.8528325,57.7466667 C22.8528325,57.7603333 22.8405696,57.7733333 22.8276778,57.7733333 L13.4580464,57.7733333 C13.4451546,57.7733333 13.4327345,57.7603333 13.4327345,57.7466667 L13.4327345,56.9335 C13.3572706,55.1463333 12.8291804,50.6131667 9.48329897,46.9731667 C7.88597938,45.2265 6.45200773,42.9335 5.23232216,40.1463333 C5.21943041,40.1196667 5.21943041,40.1066667 5.20716753,40.0936667 C4.48994588,38.6001667 3.92428093,37.0403333 3.55953866,35.44 C3.55953866,35.427 3.54664691,35.4133333 3.54664691,35.4003333 L3.54664691,35.3736667 C3.18174742,33.7863333 3.0061366,32.16 3.0061366,30.5468333 C3.0061366,17.6131667 14.4516546,7.08 28.5126263,7.08 C31.5187629,7.08 34.4494356,7.55983333 37.2412861,8.49333333 C37.8830438,8.707 38.574482,8.453 38.9522732,7.8665 C40.071183,6.10666667 42.2973686,3.90683333 46.5735,3.33316667 C46.6742758,3.32016667 46.7374768,3.38666667 46.7626314,3.44 C46.8130979,3.53316667 46.7750515,3.61316667 46.7497397,3.63983333 C45.0769562,6.46666667 44.5869124,9.40033333 45.315768,12.1196667 C45.315768,12.1333333 45.3286598,12.16 45.3286598,12.173 C45.3409227,12.6398333 45.5424742,13.08 45.8949536,13.3736667 C49.3156701,16.3065 51.7935593,20.0266667 53.0637113,24.1333333 C53.2651057,24.7863333 53.8435052,25.2401667 54.497683,25.2401667 L56.5727835,25.2401667 C57.302268,25.2401667 57.8930876,25.8665 57.8930876,26.6398333 L57.8930876,34.0266667 L57.9059794,34.0266667 Z" id="Fill-1" fill="#3B4045" mask="url(#mask-2)"></path>
            </g>
            <path d="M30.8018222,28.147379 L27.2533671,28.147379 C25.9825627,28.147379 24.9500652,27.1269403 24.9500652,25.870613 C24.9500652,24.6142858 25.9825627,23.5931927 27.2533671,23.5931927 L33.5291117,23.5931927 C34.4032345,23.5931927 35.1181551,22.8865086 35.1181551,22.0231108 C35.1181551,21.1592222 34.4032345,20.4525382 33.5291117,20.4525382 L30.6298772,20.4525382 L30.6298772,18.3457362 C30.6298772,17.4818477 29.9147912,16.775 29.0408339,16.775 C28.1675386,16.775 27.4526181,17.4818477 27.4526181,18.3457362 L27.4526181,20.4525382 L27.2669373,20.4525382 C24.2480529,20.4525382 21.7857143,22.8865086 21.7857143,25.870613 C21.7857143,28.8540631 24.2480529,31.2880336 27.2669373,31.2880336 L30.8153925,31.2880336 C32.0863624,31.2880336 33.1186944,32.3091266 33.1186944,33.5654539 C33.1186944,34.8217812 32.0863624,35.8428742 30.8153925,35.8428742 L24.4335682,35.8428742 C23.5596109,35.8428742 22.8453523,36.548904 22.8453523,37.4129561 C22.8453523,38.2768447 23.5596109,38.9835288 24.4335682,38.9835288 L27.4526181,38.9835288 L27.4526181,41.1292638 C27.4526181,41.9933159 28.1675386,42.7 29.0408339,42.7 C29.9147912,42.7 30.6298772,41.9933159 30.6298772,41.1292638 L30.6298772,38.9835288 L30.8941661,38.9835288 C33.886572,38.9439414 36.3095238,36.5227305 36.3095238,33.5654539 C36.2830453,30.5820038 33.8200447,28.147379 30.8018222,28.147379 Z" id="Fill-4" fill="#3B4045"></path>
        </g>
    </g>
</svg>