<?xml version="1.0" encoding="UTF-8"?>
<svg width="36px" height="36px" viewBox="0 0 36 36" version="1.1" xmlns="http://www.w3.org/2000/svg" xmlns:xlink="http://www.w3.org/1999/xlink">
    <!-- Generator: Sketch 48.1 (47250) - http://www.bohemiancoding.com/sketch -->
    <title>search</title>
    <desc>Created with Sketch.</desc>
    <defs>
        <polygon id="path-1" points="0 0 0 36 36 36 36 5.51764762e-15"></polygon>
    </defs>
    <g id="DASHBOARD" stroke="none" stroke-width="1" fill="none" fill-rule="evenodd" transform="translate(-411.000000, -34.000000)">
        <g id="Group-7" transform="translate(356.000000, 34.000000)">
            <g id="search" transform="translate(55.000000, 0.000000)">
                <mask id="mask-2" fill="white">
                    <use xlink:href="#path-1"></use>
                </mask>
                <g id="Clip-2"></g>
                <path d="M14.0078894,28.0175584 C17.4250254,28.0175584 20.5311598,26.805768 22.9547211,24.7568675 L33.8261913,35.6284257 C34.0750703,35.8753654 34.3845189,36 34.7269703,36 C35.0682568,36 35.3792585,35.8753654 35.6281375,35.6284257 C36.1239542,35.1306636 36.1239542,34.3222856 35.6281375,33.8264649 L24.7566673,22.9549068 C26.7752663,20.5313258 28.0173318,17.3948813 28.0173318,14.0080027 C28.0173318,6.27444213 21.7429404,0 14.0078894,0 C6.30467619,0 0,6.30472719 0,14.0080027 C0,21.7431163 6.30467619,28.0175584 14.0078894,28.0175584 Z M14.0078894,2.5466625 C20.3444034,2.5466625 25.4710782,7.70327549 25.4710782,14.0080027 C25.4710782,20.344568 20.3444034,25.4712842 14.0078894,25.4712842 C7.67292837,25.4712842 2.5466419,20.3142829 2.5466419,14.0080027 C2.5466419,7.70327549 7.70321318,2.5466625 14.0078894,2.5466625 Z" id="Fill-1" fill="#C5C5C5" mask="url(#mask-2)"></path>
            </g>
        </g>
    </g>
</svg>