<?xml version="1.0" encoding="UTF-8"?>
<svg width="31px" height="28px" viewBox="0 0 31 28" version="1.1" xmlns="http://www.w3.org/2000/svg" xmlns:xlink="http://www.w3.org/1999/xlink">
    <!-- Generator: Sketch 48.1 (47250) - http://www.bohemiancoding.com/sketch -->
    <title>settings</title>
    <desc>Created with Sketch.</desc>
    <defs>
        <polygon id="path-1" points="0.0422727273 0.509090909 0.0422727273 27.9993636 30.4356591 27.9993636 30.4356591 0.509090909"></polygon>
    </defs>
    <g id="DASHBOARD" stroke="none" stroke-width="1" fill="none" fill-rule="evenodd" transform="translate(-1162.000000, -41.000000)">
        <g id="Group-7" transform="translate(356.000000, 34.000000)">
            <g id="settings" transform="translate(806.000000, 7.000000)">
                <g id="Group-3">
                    <mask id="mask-2" fill="white">
                        <use xlink:href="#path-1"></use>
                    </mask>
                    <g id="Clip-2"></g>
                    <path d="M28.8701591,11.2006364 L26.0216818,11.2006364 C25.5644318,11.2006364 25.1875,10.9715455 25.0113636,10.5916364 C24.8380455,10.2085455 24.9261136,9.80572727 25.2480909,9.51490909 L27.2623864,7.69554545 C27.5568864,7.42954545 27.7196364,7.07381818 27.7196364,6.69645455 C27.7196364,6.31845455 27.5568864,5.96272727 27.2623864,5.69418182 L24.6950227,3.37527273 C24.1032045,2.84072727 23.0710455,2.84072727 22.4792273,3.37527273 L20.4649318,5.19463636 C20.1429545,5.48545455 19.6969773,5.56754545 19.2756591,5.40845455 C18.8522273,5.24936364 18.5985909,4.90890909 18.5985909,4.49654545 L18.5985909,1.92372727 C18.5985909,1.14290909 17.8968636,0.509090909 17.0330909,0.509090909 L13.4025682,0.509090909 C12.5387955,0.509090909 11.8370682,1.14290909 11.8370682,1.92372727 L11.8370682,4.49654545 C11.8370682,4.90890909 11.5834318,5.24936364 11.1628182,5.40845455 C10.7386818,5.56754545 10.2927045,5.48545455 9.97072727,5.19463636 L7.95643182,3.37527273 C7.36461364,2.84072727 6.33245455,2.84072727 5.74063636,3.37527273 L3.17327273,5.69418182 C2.87877273,5.96018182 2.71602273,6.31845455 2.71602273,6.69645455 C2.71602273,7.07381818 2.87877273,7.42954545 3.17327273,7.69554545 L5.18756818,9.51490909 C5.50954545,9.80572727 5.59761364,10.2085455 5.42429545,10.5916364 C5.25097727,10.9715455 4.87122727,11.2006364 4.41468182,11.2006364 L1.56620455,11.2006364 C0.701727273,11.2006364 0,11.8344545 0,12.6146364 L0,15.8938182 C0,16.674 0.701727273,17.3078182 1.56620455,17.3078182 L4.41468182,17.3078182 C4.87122727,17.3078182 5.24815909,17.5369091 5.42429545,17.9193636 C5.60043182,18.2999091 5.50954545,18.7027273 5.18756818,18.9935455 L3.17327273,20.8129091 C2.87877273,21.0789091 2.71602273,21.4371818 2.71602273,21.8126364 C2.71602273,22.1925455 2.87877273,22.5482727 3.17327273,22.8142727 L5.74063636,25.1331818 C6.33245455,25.6677273 7.36461364,25.6677273 7.95643182,25.1331818 L9.97072727,23.3138182 C10.2927045,23.023 10.7386818,22.9434545 11.1628182,23.1 C11.5834318,23.2590909 11.8370682,23.5995455 11.8370682,24.0125455 L11.8370682,26.5853636 C11.8370682,27.3655455 12.5387955,27.9993636 13.4025682,27.9993636 L17.0330909,27.9993636 C17.8968636,27.9993636 18.5985909,27.3655455 18.5985909,26.5853636 L18.5985909,24.0125455 C18.5985909,23.5995455 18.8522273,23.2590909 19.2728409,23.1 C19.6969773,22.9409091 20.1429545,23.023 20.4649318,23.3138182 L22.4792273,25.1331818 C23.0710455,25.6677273 24.1032045,25.6677273 24.6950227,25.1331818 L27.2623864,22.8142727 C27.5568864,22.5482727 27.7196364,22.1925455 27.7196364,21.8126364 C27.7196364,21.4371818 27.5568864,21.0814545 27.2623864,20.8129091 L25.2480909,18.9935455 C24.9261136,18.7027273 24.8380455,18.2999091 25.0113636,17.9193636 C25.1846818,17.5369091 25.5644318,17.3078182 26.0216818,17.3078182 L28.8701591,17.3078182 C29.7339318,17.3078182 30.4356591,16.674 30.4356591,15.8938182 L30.4356591,12.6146364 C30.4356591,11.8344545 29.7339318,11.2006364 28.8701591,11.2006364 Z M29.3105,15.8938182 C29.3105,16.1127273 29.1118182,16.2915455 28.8701591,16.2915455 L26.0216818,16.2915455 C25.1078864,16.2915455 24.3209091,16.7662727 23.97075,17.5292727 C23.6184773,18.2922727 23.8030682,19.1303636 24.4526591,19.7145455 L26.4641364,21.5339091 C26.6381591,21.6879091 26.6381591,21.9392727 26.4641364,22.0958182 L23.8995909,24.4121818 C23.7262727,24.5668182 23.4479773,24.5693636 23.2774773,24.4121818 L21.2631818,22.5953636 C20.6164091,22.0086364 19.6885227,21.8444545 18.8437727,22.1600909 C17.9990227,22.4763636 17.4734318,23.1871818 17.4734318,24.0125455 L17.4734318,26.5853636 C17.4734318,26.8036364 17.2754545,26.9830909 17.0330909,26.9830909 L13.4025682,26.9830909 C13.1609091,26.9830909 12.9622273,26.8036364 12.9622273,26.5853636 L12.9622273,24.0125455 C12.9622273,23.1871818 12.4394545,22.4763636 11.5918864,22.1600909 C11.3086591,22.0531818 11.0169773,22.001 10.7281136,22.001 C10.1581364,22.001 9.60225,22.2052727 9.17318182,22.5928182 L7.161,24.4121818 C6.98768182,24.5693636 6.70938636,24.5668182 6.53606818,24.4121818 L3.97152273,22.0958182 C3.80102273,21.9392727 3.80102273,21.6879091 3.97152273,21.5313636 L5.98581818,19.7145455 C6.63259091,19.1303636 6.81718182,18.2922727 6.46490909,17.5292727 C6.11545455,16.7662727 5.33059091,16.2915455 4.41468182,16.2915455 L1.56620455,16.2915455 C1.32384091,16.2915455 1.12868182,16.1127273 1.12868182,15.8938182 L1.12868182,12.6146364 C1.12868182,12.3963636 1.32384091,12.2169091 1.56620455,12.2169091 L4.41468182,12.2169091 C5.33059091,12.2169091 6.11545455,11.7447273 6.46490909,10.9791818 C6.81718182,10.2161818 6.63259091,9.37809091 5.98581818,8.79454545 L3.97152273,6.97709091 C3.80102273,6.82054545 3.80102273,6.56918182 3.97152273,6.41263636 L6.53606818,4.09627273 C6.70938636,3.94227273 6.98768182,3.94227273 7.161,4.09627273 L9.17318182,5.91309091 C9.81995455,6.49727273 10.7471364,6.66654545 11.5918864,6.34836364 C12.4394545,6.03272727 12.9622273,5.32381818 12.9622273,4.49654545 L12.9622273,1.92372727 C12.9622273,1.70481818 13.1609091,1.52854545 13.4025682,1.52854545 L17.0330909,1.52854545 C17.2754545,1.52854545 17.4734318,1.70481818 17.4734318,1.92372727 L17.4734318,4.49654545 C17.4734318,5.32381818 17.9990227,6.03272727 18.8437727,6.34836364 C19.6885227,6.66654545 20.6164091,6.49981818 21.2631818,5.91563636 L23.2774773,4.09627273 C23.4479773,3.94227273 23.7290909,3.94227273 23.8995909,4.09627273 L26.4641364,6.41518182 C26.6381591,6.56918182 26.6381591,6.82309091 26.4641364,6.97709091 L24.4526591,8.79454545 C23.8058864,9.37809091 23.6184773,10.2161818 23.97075,10.9817273 C24.3209091,11.7447273 25.1078864,12.2194545 26.0216818,12.2194545 L28.8701591,12.2194545 C29.1118182,12.2169091 29.3105,12.3963636 29.3105,12.6146364 L29.3105,15.8938182 Z" id="Fill-1" fill="#0073D1" mask="url(#mask-2)"></path>
                </g>
                <path d="M15.2195909,9.67145455 C12.4204318,9.67145455 10.1440455,11.7275455 10.1440455,14.2558182 C10.1440455,16.7809091 12.4204318,18.837 15.2195909,18.837 C18.0152273,18.837 20.2916136,16.7809091 20.2916136,14.2558182 C20.2916136,11.7275455 18.0152273,9.67145455 15.2195909,9.67145455 Z M15.2195909,17.8175455 C13.0425455,17.8175455 11.2727273,16.219 11.2727273,14.2558182 C11.2727273,12.2894545 13.0425455,10.6909091 15.2195909,10.6909091 C17.3938182,10.6909091 19.1629318,12.2894545 19.1629318,14.2558182 C19.1629318,16.219 17.3938182,17.8175455 15.2195909,17.8175455 Z" id="Fill-4" fill="#0073D1"></path>
            </g>
        </g>
    </g>
</svg>