<?xml version="1.0" encoding="UTF-8"?>
<svg width="194px" height="47px" viewBox="0 0 194 47" version="1.1" xmlns="http://www.w3.org/2000/svg" xmlns:xlink="http://www.w3.org/1999/xlink">
    <!-- Generator: Sketch 48.1 (47250) - http://www.bohemiancoding.com/sketch -->
    <title>Sieeve-Brand-white Copy</title>
    <desc>Created with Sketch.</desc>
    <defs></defs>
    <g id="base-desktop" stroke="none" stroke-width="1" fill="none" fill-rule="evenodd" transform="translate(-41.000000, -32.000000)">
        <g id="Sieeve-Brand-white-Copy" transform="translate(41.000000, 32.000000)" fill-rule="nonzero">
            <g id="Group">
                <path d="M39.3326667,29.690604 L30.2033333,38.8812081 C28.0986667,41 24.6273333,41 22.5226667,38.8812081 C20.418,36.7624161 20.418,33.2677852 22.5226667,31.1489933 L31.652,21.9583893 C33.7566667,19.8395973 37.228,19.8395973 39.3326667,21.9583893 C41.4373333,24.0771812 41.4373333,27.5718121 39.3326667,29.690604 Z" id="Shape" fill="#B0DF50"></path>
                <path d="M19.1333333,9.38322148 L10.004,18.5738255 C7.89933333,20.6926174 4.428,20.6926174 2.32333333,18.5738255 C0.218666667,16.4550336 0.218666667,12.9604027 2.32333333,10.8416107 L11.4526667,1.65100671 C13.5573333,-0.467785235 17.0286667,-0.467785235 19.1333333,1.65100671 C21.2653333,3.76979866 21.2653333,7.23691275 19.1333333,9.38322148 Z" id="Shape" fill="#B0DF50"></path>
                <path d="M39.3326667,9.38322148 L9.48466667,39.4040268 C7.38,41.5228188 3.90866667,41.5228188 1.804,39.4040268 C-0.300666667,37.2852349 -0.300666667,33.790604 1.804,31.6718121 L31.6246667,1.65100671 C33.7293333,-0.467785235 37.2006667,-0.467785235 39.3053333,1.65100671 C41.4373333,3.76979866 41.4373333,7.23691275 39.3326667,9.38322148 Z" id="Shape" fill="#417DD1"></path>
            </g>
            <path d="M63.6338583,8.77568134 C63.1653543,8.77568134 62.7244094,8.80293501 62.2834646,8.88469602 C61.8425197,8.96645702 61.4566929,9.10272537 61.0984252,9.26624738 C60.7677165,9.42976939 60.492126,9.67505241 60.2716535,9.92033543 C60.0511811,10.1928721 59.9685039,10.5199161 59.9685039,10.8742138 C59.9685039,11.4465409 60.1062992,11.8825996 60.4094488,12.2096436 C60.6850394,12.5366876 61.1259843,12.8092243 61.7322835,13.0545073 C62.3110236,13.2997904 63.0551181,13.5450734 63.9094488,13.7631027 C64.7913386,14.0083857 65.8110236,14.3081761 66.9685039,14.7169811 C68.4566929,15.2075472 69.8346457,15.8343816 71.0748031,16.5429769 C72.3149606,17.2515723 73.3622047,18.0964361 74.2440945,19.0775681 C75.1259843,20.0587002 75.7874016,21.148847 76.2834646,22.3480084 C76.7795276,23.5471698 77,24.9098532 77,26.408805 C77,28.2620545 76.6141732,29.951782 75.8149606,31.5052411 C75.015748,33.0587002 73.9685039,34.3668763 72.6456693,35.4842767 C71.3228346,36.6016771 69.8070866,37.4465409 68.0708661,38.0733753 C66.3346457,38.7002096 64.5433071,39 62.6968504,39 C61.0984252,39 59.6102362,38.7819706 58.1771654,38.3186583 C56.7440945,37.8553459 55.4212598,37.2012579 54.2362205,36.3836478 C53.0511811,35.5660377 51.976378,34.557652 51.0944882,33.4129979 C50.1850394,32.2683438 49.496063,31.0146751 49,29.6519916 L51.8110236,28.0440252 C52.2519685,27.7987421 52.7480315,27.5807128 53.2440945,27.4444444 C53.7677165,27.2809224 54.2637795,27.2264151 54.7874016,27.2264151 C55.5590551,27.2264151 56.2480315,27.3899371 56.8818898,27.7169811 C57.515748,28.0440252 58.1220472,28.3983229 58.7007874,28.7526205 C59.3070866,29.1341719 59.9133858,29.4612159 60.5472441,29.78826 C61.1811024,30.115304 61.8976378,30.278826 62.6968504,30.278826 C63.2480315,30.278826 63.8267717,30.197065 64.4606299,30.033543 C65.0944882,29.870021 65.7007874,29.6247379 66.2519685,29.2976939 C66.8031496,28.9706499 67.2440945,28.5890985 67.6299213,28.0985325 C67.988189,27.6352201 68.1811024,27.0901468 68.1811024,26.4633124 C68.1811024,25.8637317 68.015748,25.4004193 67.6850394,25.0188679 C67.3543307,24.6373166 66.9133858,24.3102725 66.3346457,24.0377358 C65.7559055,23.7651992 65.1220472,23.5199161 64.3779528,23.2746331 C63.6338583,23.0566038 62.8622047,22.7568134 62.0629921,22.4570231 C60.7401575,21.966457 59.4173228,21.4213836 58.1220472,20.8218029 C56.8267717,20.2222222 55.6692913,19.5136268 54.6220472,18.6415094 C53.6023622,17.769392 52.7755906,16.7337526 52.1141732,15.4800839 C51.480315,14.2536688 51.1496063,12.7002096 51.1496063,10.8742138 C51.1496063,9.1572327 51.507874,7.60377358 52.2244094,6.26834382 C52.9409449,4.93291405 53.8779528,3.78825996 55.0354331,2.86163522 C56.2204724,1.93501048 57.5433071,1.22641509 59.0590551,0.735849057 C60.5748031,0.245283019 62.1181102,0 63.6889764,0 C64.8464567,0 65.976378,0.190775681 67.0511811,0.572327044 C68.1535433,0.953878407 69.1732283,1.44444444 70.1377953,2.07127883 C71.1023622,2.69811321 72.011811,3.37945493 72.8661417,4.16981132 C73.7204724,4.96016771 74.4645669,5.75052411 75.1535433,6.56813417 L72.4251969,8.83018868 C71.8740157,9.29350105 71.3228346,9.62054507 70.7440945,9.81132075 C70.1653543,10.0020964 69.503937,10.1111111 68.7874016,10.1111111 C68.2086614,10.1111111 67.7125984,10.0293501 67.2716535,9.89308176 C66.8307087,9.75681342 66.4448819,9.5932914 66.0590551,9.42976939 C65.6732283,9.26624738 65.3149606,9.10272537 64.9291339,8.96645702 C64.488189,8.85744235 64.0748031,8.77568134 63.6338583,8.77568134 Z" id="Shape" fill="#FFFFFF"></path>
            <polygon id="Shape" fill="#FFFFFF" points="87 11 87 39 78 39 78 11"></polygon>
            <path d="M117,23.0226415 C117,23.8707547 116.834915,24.5820755 116.47723,25.1839623 C116.147059,25.7858491 115.706831,26.2783019 115.184061,26.6339623 C114.66129,27.0169811 114.083491,27.290566 113.478178,27.454717 C112.845351,27.6188679 112.267552,27.7009434 111.689753,27.7009434 L97.7125237,27.7009434 C97.9051233,28.3575472 98.2352941,28.904717 98.6480076,29.4245283 C99.0056926,29.8622642 99.5009488,30.245283 100.106262,30.6009434 C100.739089,30.9566038 101.537002,31.1481132 102.527514,31.1481132 C103.050285,31.1481132 103.545541,31.0660377 104.013283,30.9018868 C104.481025,30.7377358 104.948767,30.5735849 105.416509,30.3820755 C105.88425,30.190566 106.351992,30.0264151 106.847249,29.8622642 C107.342505,29.6981132 107.865275,29.6160377 108.443074,29.6160377 C109.296015,29.6160377 110.011385,29.7528302 110.644213,30.0264151 C111.27704,30.3 111.854839,30.7103774 112.405123,31.2575472 L114.633776,33.4735849 C112.927894,35.3066038 111.029412,36.7018868 108.965844,37.604717 C106.902277,38.5349057 104.783681,39 102.637571,39 C100.629032,39 98.7305503,38.6169811 96.9421252,37.8509434 C95.1537002,37.0849057 93.6129032,36.045283 92.2922201,34.7320755 C90.971537,33.4188679 89.9259962,31.8867925 89.1555977,30.1084906 C88.3851992,28.3575472 88,26.4698113 88,24.5 C88,22.5028302 88.3851992,20.6424528 89.1555977,18.8915094 C89.9259962,17.140566 90.971537,15.5811321 92.2922201,14.2679245 C93.6129032,12.954717 95.1537002,11.9150943 96.9421252,11.1490566 C98.7305503,10.3830189 100.629032,10 102.637571,10 C104.315939,10 105.911765,10.3009434 107.452562,10.9028302 C108.993359,11.504717 110.396584,12.2981132 111.662239,13.3377358 C112.927894,14.35 114.000949,15.5537736 114.908918,16.9216981 C115.816888,18.2896226 116.449715,19.7396226 116.8074,21.2443396 C116.889943,21.5179245 116.917457,21.8462264 116.917457,22.2018868 C117,22.5849057 117,22.8311321 117,23.0226415 Z M107.947818,21.4358491 C107.617647,20.7792453 107.232448,20.1773585 106.737192,19.6575472 C106.324478,19.2198113 105.774194,18.809434 105.113852,18.4264151 C104.45351,18.0433962 103.628083,17.8792453 102.637571,17.8792453 C101.619545,17.8792453 100.766603,18.0981132 100.078748,18.5084906 C99.3908918,18.9188679 98.8406072,19.3839623 98.4278937,19.9037736 C97.9601518,20.5056604 97.6024668,21.1622642 97.3273245,21.9009434 C97.4373814,21.8188679 97.5474383,21.7641509 97.7125237,21.6820755 C97.8500949,21.6273585 97.987666,21.5726415 98.1527514,21.5179245 C98.3178368,21.4632075 98.4829222,21.4358491 98.7030361,21.4358491 L107.947818,21.4358491 Z" id="Shape" fill="#FFFFFF"></path>
            <path d="M141,23.0226415 C141,23.8707547 140.834915,24.5820755 140.47723,25.1839623 C140.147059,25.7858491 139.706831,26.2783019 139.184061,26.6339623 C138.66129,27.0169811 138.083491,27.290566 137.478178,27.454717 C136.845351,27.6188679 136.267552,27.7009434 135.689753,27.7009434 L121.712524,27.7009434 C121.905123,28.3575472 122.235294,28.904717 122.648008,29.4245283 C123.005693,29.8622642 123.500949,30.245283 124.106262,30.6009434 C124.739089,30.9566038 125.537002,31.1481132 126.527514,31.1481132 C127.050285,31.1481132 127.545541,31.0660377 128.013283,30.9018868 C128.481025,30.7377358 128.948767,30.5735849 129.416509,30.3820755 C129.88425,30.190566 130.351992,30.0264151 130.847249,29.8622642 C131.342505,29.6981132 131.865275,29.6160377 132.443074,29.6160377 C133.296015,29.6160377 134.011385,29.7528302 134.644213,30.0264151 C135.27704,30.3 135.854839,30.7103774 136.405123,31.2575472 L138.633776,33.4735849 C136.927894,35.3066038 135.029412,36.7018868 132.965844,37.604717 C130.902277,38.5349057 128.783681,39 126.637571,39 C124.629032,39 122.73055,38.6169811 120.942125,37.8509434 C119.1537,37.0849057 117.612903,36.045283 116.29222,34.7320755 C114.971537,33.4188679 113.925996,31.8867925 113.155598,30.1084906 C112.385199,28.3575472 112,26.4698113 112,24.5 C112,22.5028302 112.385199,20.6424528 113.155598,18.8915094 C113.925996,17.140566 114.971537,15.5811321 116.29222,14.2679245 C117.612903,12.954717 119.1537,11.9150943 120.942125,11.1490566 C122.73055,10.3830189 124.629032,10 126.637571,10 C128.315939,10 129.911765,10.3009434 131.452562,10.9028302 C132.993359,11.504717 134.396584,12.2981132 135.662239,13.3377358 C136.927894,14.35 138.000949,15.5537736 138.908918,16.9216981 C139.816888,18.2896226 140.449715,19.7396226 140.8074,21.2443396 C140.889943,21.5179245 140.917457,21.8462264 140.917457,22.2018868 C141,22.5849057 141,22.8311321 141,23.0226415 Z M131.920304,21.4358491 C131.590133,20.7792453 131.204934,20.1773585 130.709677,19.6575472 C130.296964,19.2198113 129.746679,18.809434 129.086338,18.4264151 C128.398482,18.0707547 127.600569,17.8792453 126.610057,17.8792453 C125.59203,17.8792453 124.739089,18.0981132 124.051233,18.5084906 C123.363378,18.9188679 122.813093,19.3839623 122.40038,19.9037736 C121.932638,20.5056604 121.574953,21.1622642 121.29981,21.9009434 C121.409867,21.8188679 121.519924,21.7641509 121.685009,21.6820755 C121.822581,21.6273585 121.960152,21.5726415 122.125237,21.5179245 C122.290323,21.4632075 122.455408,21.4358491 122.675522,21.4358491 L131.920304,21.4358491 Z" id="Shape" fill="#FFFFFF"></path>
            <path d="M137,11.0271581 L142.650873,11.0271581 C143.199501,11.0271581 143.74813,11.1086324 144.296758,11.271581 C144.845387,11.4345296 145.339152,11.6517944 145.805486,11.9233754 C146.27182,12.2221145 146.683292,12.5480116 147.0399,12.9553831 C147.396509,13.3627546 147.670823,13.7972842 147.862843,14.28613 L152.992519,26.9689622 C153.21197,27.5121242 153.349127,27.9466537 153.40399,28.299709 C153.458853,28.6527643 153.486284,28.8971872 153.486284,29.0329777 L153.486284,29.1687682 C153.513716,28.9515034 153.541147,28.7342386 153.568579,28.4898157 C153.59601,28.299709 153.650873,28.0552861 153.705736,27.8108632 C153.760599,27.5392823 153.842893,27.2677013 153.98005,26.9689622 L159.164589,14.2589719 C159.38404,13.7701261 159.658354,13.3084384 160.014963,12.9010669 C160.371571,12.4936954 160.783042,12.1406402 161.249377,11.8690592 C161.715711,11.5974782 162.209476,11.3530553 162.758105,11.2172648 C163.306733,11.0543162 163.855362,11 164.40399,11 L170,11 L158.506234,39 L148.411471,39 L137,11.0271581 Z" id="Shape" fill="#FFFFFF"></path>
            <path d="M194,23.0226415 C194,23.8707547 193.834915,24.5820755 193.47723,25.1839623 C193.147059,25.7858491 192.706831,26.2783019 192.184061,26.6339623 C191.66129,27.0169811 191.083491,27.290566 190.478178,27.454717 C189.845351,27.6188679 189.267552,27.7009434 188.689753,27.7009434 L174.712524,27.7009434 C174.905123,28.3575472 175.235294,28.904717 175.648008,29.4245283 C176.005693,29.8622642 176.500949,30.245283 177.106262,30.6009434 C177.739089,30.9566038 178.537002,31.1481132 179.527514,31.1481132 C180.050285,31.1481132 180.545541,31.0660377 181.013283,30.9018868 C181.481025,30.7377358 181.948767,30.5735849 182.416509,30.3820755 C182.88425,30.190566 183.351992,30.0264151 183.847249,29.8622642 C184.342505,29.6981132 184.865275,29.6160377 185.443074,29.6160377 C186.296015,29.6160377 187.011385,29.7528302 187.644213,30.0264151 C188.27704,30.3 188.854839,30.7103774 189.405123,31.2575472 L191.633776,33.4735849 C189.927894,35.3066038 188.029412,36.7018868 185.965844,37.604717 C183.902277,38.5349057 181.783681,39 179.637571,39 C177.629032,39 175.73055,38.6169811 173.942125,37.8509434 C172.1537,37.0849057 170.612903,36.045283 169.29222,34.7320755 C167.971537,33.4188679 166.925996,31.8867925 166.155598,30.1084906 C165.385199,28.3575472 165,26.4698113 165,24.5 C165,22.5028302 165.385199,20.6424528 166.155598,18.8915094 C166.925996,17.140566 167.971537,15.5811321 169.29222,14.2679245 C170.612903,12.954717 172.1537,11.9150943 173.942125,11.1490566 C175.73055,10.3830189 177.629032,10 179.637571,10 C181.315939,10 182.911765,10.3009434 184.452562,10.9028302 C185.993359,11.504717 187.396584,12.2981132 188.662239,13.3377358 C189.927894,14.35 191.000949,15.5537736 191.908918,16.9216981 C192.816888,18.2896226 193.449715,19.7396226 193.8074,21.2443396 C193.889943,21.5179245 193.917457,21.8462264 193.917457,22.2018868 C194,22.5849057 194,22.8311321 194,23.0226415 Z M184.947818,21.4358491 C184.617647,20.7792453 184.232448,20.1773585 183.737192,19.6575472 C183.324478,19.2198113 182.774194,18.809434 182.113852,18.4264151 C181.425996,18.0707547 180.628083,17.8792453 179.637571,17.8792453 C178.619545,17.8792453 177.766603,18.0981132 177.078748,18.5084906 C176.390892,18.9188679 175.840607,19.3839623 175.427894,19.9037736 C174.960152,20.5056604 174.602467,21.1622642 174.327324,21.9009434 C174.437381,21.8188679 174.547438,21.7641509 174.712524,21.6820755 C174.850095,21.6273585 174.987666,21.5726415 175.152751,21.5179245 C175.317837,21.4632075 175.482922,21.4358491 175.703036,21.4358491 L184.947818,21.4358491 Z" id="Shape" fill="#FFFFFF"></path>
            <path d="M137.88309,47 L90.1169102,47 C88.9498956,47 88,46.1025641 88,45 C88,43.8974359 88.9498956,43 90.1169102,43 L137.88309,43 C139.050104,43 140,43.8974359 140,45 C140,46.1025641 139.050104,47 137.88309,47 Z" id="Shape" fill="#FFFFFF"></path>
        </g>
    </g>
</svg>