<?xml version="1.0" encoding="UTF-8"?>
<svg width="299px" height="96px" viewBox="0 0 299 96" version="1.1" xmlns="http://www.w3.org/2000/svg" xmlns:xlink="http://www.w3.org/1999/xlink">
    <!-- Generator: Sketch 48.1 (47250) - http://www.bohemiancoding.com/sketch -->
    <title>Sieeve-logotype Copy</title>
    <desc>Created with Sketch.</desc>
    <defs></defs>
    <g id="LOGIN-HD" stroke="none" stroke-width="1" fill="none" fill-rule="evenodd" transform="translate(-571.000000, -202.000000)">
        <g id="Sieeve-logotype-Copy" transform="translate(571.000000, 202.000000)" fill-rule="nonzero">
            <path d="M29.7742176,17.9565908 C28.8397914,17.9565908 27.9053651,18.0412917 27.0134128,18.2106935 C26.1214605,18.3800953 25.314456,18.634198 24.6348733,19.015352 C23.9552906,19.3965061 23.3606557,19.8200106 22.9783905,20.3705664 C22.5536513,20.9211223 22.3412817,21.556379 22.3412817,22.3610376 C22.3412817,23.5468502 22.6385991,24.4362096 23.233234,25.1138168 C23.8278689,25.7490736 24.7198212,26.3419799 25.9090909,26.8501853 C27.0983607,27.3583907 28.5849478,27.8242456 30.3688525,28.332451 C32.1527571,28.8406564 34.2339791,29.4759132 36.6125186,30.2805717 C39.6706408,31.2969825 42.4314456,32.567496 44.9374069,34.0497618 C47.4433681,35.5320275 49.5670641,37.268396 51.3509687,39.2588671 C53.1348733,41.2493383 54.4940387,43.4939121 55.5134128,45.9502382 C56.490313,48.4489148 57,51.201694 57,54.2509264 C57,58.0624669 56.1929955,61.5352038 54.5789866,64.6691371 C52.9649776,67.8030704 50.8412817,70.5134992 48.1229508,72.8004235 C45.4470939,75.0449974 42.3464978,76.8237163 38.8211624,78.0942298 C35.2958271,79.3647433 31.685544,80 27.9053651,80 C24.6773472,80 21.619225,79.5341451 18.7309985,78.5600847 C15.8002981,77.6283748 13.1669151,76.2731604 10.7034277,74.5791424 C8.28241431,72.8851244 6.15871833,70.8523028 4.28986587,68.5230281 C2.46348733,66.1514029 1.01937407,63.6103759 0,60.8152462 L5.69150522,57.5542615 C6.62593145,57.0460561 7.60283159,56.6225516 8.62220566,56.3260985 C9.68405365,56.0296453 10.7034277,55.8602435 11.7652757,55.8602435 C13.3368107,55.8602435 14.7384501,56.1990471 16.0126677,56.8343039 C17.2868852,57.5119111 18.5186289,58.1895183 19.7078987,58.9518264 C20.8971684,59.7141345 22.171386,60.4340921 23.4456036,61.0693489 C24.7198212,61.7046056 26.2064083,62.0434092 27.8204173,62.0434092 C28.9247392,62.0434092 30.1140089,61.8740074 31.4307004,61.5352038 C32.747392,61.1964002 33.9366617,60.6881948 35.0409836,60.0105876 C36.1453055,59.3329804 37.0797317,58.5283219 37.8017884,57.5542615 C38.523845,56.5802012 38.9061103,55.4790895 38.9061103,54.208576 C38.9061103,53.0227634 38.5663189,52.0063526 37.8867362,51.2440445 C37.2071535,50.4817364 36.2727273,49.8041292 35.1259314,49.2535733 C33.9791356,48.7030175 32.6624441,48.1524616 31.133383,47.6866067 C29.6043219,47.2207517 28.0752608,46.6278454 26.4187779,45.9925887 C23.7004471,44.9761779 21.0245902,43.8750662 18.3912072,42.6469031 C15.7578241,41.4610905 13.3792846,39.9364743 11.2980626,38.2001059 C9.21684054,36.421387 7.51788376,34.261514 6.20119225,31.7628375 C4.88450075,29.2218105 4.24739195,26.0878772 4.24739195,22.3186871 C4.24739195,18.7612493 4.96944858,15.627316 6.41356185,12.8745368 C7.85767511,10.1217575 9.76900149,7.7924828 12.147541,5.88671255 C14.5260805,3.9809423 17.2444113,2.541027 20.3025335,1.5246162 C23.3606557,0.5082054 26.5037258,0 29.7317437,0 C32.0678092,0 34.3614009,0.38115405 36.5700447,1.1858126 C38.7786885,1.99047115 40.8599106,3.00688195 42.8561848,4.235045 C44.852459,5.5055585 46.6788376,6.9454738 48.4202683,8.51244044 C50.161699,10.1217575 51.6907601,11.7734251 53.0923994,13.4250926 L47.5707899,18.0836421 C46.466468,19.015352 45.3196721,19.6929592 44.1304024,20.1164637 C42.9411326,20.5399682 41.6244411,20.70937 40.1378539,20.70937 C38.9485842,20.70937 37.9292101,20.5823187 37.0797317,20.2858655 C36.1877794,19.9894124 35.380775,19.6929592 34.6162444,19.3118052 C33.8517139,18.9730016 33.0871833,18.634198 32.3226528,18.3377448 C31.5581222,18.1259926 30.7086438,17.9565908 29.7742176,17.9565908 Z" id="Shape" fill="#417DD1"></path>
            <polygon id="Shape" fill="#417DD1" points="79 22 79 80 61 80 61 22"></polygon>
            <path d="M140,47.4570201 C140,49.1898281 139.659942,50.6267908 138.93732,51.8524355 C138.257205,53.0780802 137.364553,54.0501433 136.301873,54.8108883 C135.239193,55.5716332 134.091499,56.1210602 132.816282,56.4591691 C131.541066,56.7972779 130.350865,56.9663324 129.160663,56.9663324 L100.723343,56.9663324 C101.105908,58.2765043 101.786023,59.4598854 102.636167,60.474212 C103.35879,61.3617479 104.378963,62.1647564 105.611671,62.8832378 C106.886888,63.6017192 108.502161,63.9820917 110.542507,63.9820917 C111.605187,63.9820917 112.62536,63.8130372 113.603026,63.4749284 C114.580692,63.1368195 115.51585,62.7987106 116.493516,62.4183381 C117.428674,62.0379656 118.40634,61.6998567 119.426513,61.3617479 C120.446686,61.023639 121.509366,60.8545845 122.699568,60.8545845 C124.399856,60.8545845 125.930115,61.1504298 127.205331,61.6998567 C128.480548,62.2492837 129.670749,63.0945559 130.775937,64.1934097 L135.324207,68.715616 C131.838617,72.4770774 128.012968,75.2664756 123.804755,77.1683381 C119.596542,79.027937 115.303314,80 110.882565,80 C106.801873,80 102.933718,79.239255 99.278098,77.6755014 C95.6649856,76.1117479 92.4769452,74.0408309 89.7989914,71.3359599 C87.1210375,68.6733524 84.95317,65.5458453 83.3804035,61.9534384 C81.8076369,58.3610315 81,54.5573066 81,50.5 C81,46.4426934 81.8076369,42.6389685 83.3804035,39.0465616 C84.95317,35.4541547 87.0785303,32.3266476 89.7989914,29.6640401 C92.4769452,27.0014327 95.6649856,24.8882521 99.278098,23.3244986 C102.89121,21.760745 106.759366,21 110.882565,21 C114.283141,21 117.556196,21.5916905 120.701729,22.8173352 C123.847262,24.0429799 126.695245,25.6912607 129.288184,27.7621777 C131.838617,29.8330946 134.048991,32.284384 135.876801,35.0737822 C137.704611,37.8631805 138.979827,40.7793696 139.70245,43.9068768 C139.829971,44.4985673 139.914986,45.1325215 139.957493,45.8510029 C139.957493,46.5694842 140,47.1189112 140,47.4570201 Z M121.509366,44.2449857 C120.871758,42.8925501 120.021614,41.7091691 119.043948,40.6525788 C118.193804,39.7227794 117.088617,38.9197708 115.728386,38.1590258 C114.368156,37.3982808 112.667867,37.0179083 110.712536,37.0179083 C108.629683,37.0179083 106.886888,37.4405444 105.48415,38.2858166 C104.081412,39.1310888 102.976225,40.0608883 102.126081,41.1174785 C101.190922,42.3008596 100.425793,43.6532951 99.8731988,45.1747851 C100.085735,45.0479943 100.340778,44.8789398 100.638329,44.752149 C100.893372,44.6253582 101.190922,44.5408309 101.53098,44.4140401 C101.871037,44.2872493 102.211095,44.2449857 102.636167,44.2449857 L121.509366,44.2449857 Z" id="Shape" fill="#03B2E8"></path>
            <path d="M189,47.4570201 C189,49.1898281 188.659942,50.6267908 187.93732,51.8524355 C187.257205,53.0780802 186.364553,54.0501433 185.301873,54.8108883 C184.239193,55.5716332 183.091499,56.1210602 181.816282,56.4591691 C180.541066,56.7972779 179.350865,56.9663324 178.160663,56.9663324 L149.723343,56.9663324 C150.105908,58.2765043 150.786023,59.4598854 151.636167,60.474212 C152.35879,61.3617479 153.378963,62.1647564 154.611671,62.8832378 C155.886888,63.6017192 157.502161,63.9820917 159.542507,63.9820917 C160.605187,63.9820917 161.62536,63.8130372 162.603026,63.4749284 C163.580692,63.1368195 164.51585,62.7987106 165.493516,62.4183381 C166.428674,62.0379656 167.40634,61.6998567 168.426513,61.3617479 C169.446686,61.023639 170.509366,60.8545845 171.699568,60.8545845 C173.399856,60.8545845 174.930115,61.1504298 176.205331,61.6998567 C177.480548,62.2492837 178.670749,63.0945559 179.775937,64.1934097 L184.324207,68.715616 C180.838617,72.4770774 177.012968,75.2664756 172.804755,77.1683381 C168.596542,79.0702006 164.303314,80 159.882565,80 C155.801873,80 151.933718,79.239255 148.278098,77.6755014 C144.664986,76.1117479 141.476945,74.0408309 138.798991,71.3359599 C136.121037,68.6733524 133.95317,65.5458453 132.380403,61.9534384 C130.807637,58.3610315 130,54.5573066 130,50.5 C130,46.4426934 130.807637,42.6389685 132.380403,39.0465616 C133.95317,35.4541547 136.07853,32.3266476 138.798991,29.6640401 C141.476945,27.0014327 144.664986,24.8882521 148.278098,23.3244986 C151.89121,21.760745 155.759366,21 159.882565,21 C163.283141,21 166.556196,21.5916905 169.701729,22.8173352 C172.847262,24.0429799 175.695245,25.6912607 178.288184,27.7621777 C180.838617,29.8330946 183.048991,32.284384 184.876801,35.0737822 C186.704611,37.8631805 187.979827,40.7793696 188.70245,43.9068768 C188.829971,44.4985673 188.914986,45.1325215 188.957493,45.8510029 C189,46.5694842 189,47.1189112 189,47.4570201 Z M170.551873,44.2449857 C169.914265,42.8925501 169.064121,41.7091691 168.086455,40.6525788 C167.236311,39.7227794 166.131124,38.9197708 164.770893,38.1590258 C163.410663,37.3982808 161.710375,37.0179083 159.755043,37.0179083 C157.67219,37.0179083 155.929395,37.4405444 154.526657,38.2858166 C153.123919,39.1310888 152.018732,40.0608883 151.168588,41.1174785 C150.233429,42.3008596 149.4683,43.6532951 148.915706,45.1747851 C149.128242,45.0479943 149.383285,44.8789398 149.680836,44.752149 C149.935879,44.6253582 150.233429,44.5408309 150.573487,44.4140401 C150.913545,44.2872493 151.253602,44.2449857 151.678674,44.2449857 L170.551873,44.2449857 Z" id="Shape" fill="#03B2E8"></path>
            <path d="M181,22.0427099 L192.462753,22.0427099 C193.604798,22.0427099 194.704545,22.2135493 195.804293,22.5552283 C196.90404,22.8969072 197.96149,23.3667158 198.892045,23.921944 C199.822601,24.5198822 200.668561,25.2032401 201.387626,26.0574374 C202.106692,26.8689249 202.698864,27.808542 203.079545,28.8335788 L213.527146,55.1001473 C213.950126,56.2106038 214.246212,57.107511 214.330808,57.8762887 C214.457702,58.6023564 214.5,59.1148748 214.5,59.4138439 L214.5,59.6701031 C214.542298,59.2430044 214.584596,58.7731959 214.669192,58.3033873 C214.753788,57.9189985 214.838384,57.4064801 214.92298,56.8512518 C215.049874,56.2960236 215.219066,55.6980854 215.472854,55.1001473 L226.005051,28.7908689 C226.42803,27.7658321 227.020202,26.826215 227.739268,25.9720177 C228.458333,25.1178203 229.304293,24.3917526 230.234848,23.8365243 C231.165404,23.2385862 232.222854,22.8114875 233.280303,22.4698085 C234.380051,22.1708395 235.479798,22 236.621843,22 L248,22 L224.651515,80 L204.136995,80 L181,22.0427099 Z" id="Shape" fill="#417DD1"></path>
            <path d="M299,47.4570201 C299,49.1898281 298.659942,50.6267908 297.93732,51.8524355 C297.257205,53.0780802 296.364553,54.0501433 295.301873,54.8108883 C294.239193,55.5716332 293.091499,56.1210602 291.816282,56.4591691 C290.541066,56.7972779 289.350865,56.9663324 288.160663,56.9663324 L259.723343,56.9663324 C260.105908,58.2765043 260.786023,59.4598854 261.636167,60.474212 C262.35879,61.3617479 263.378963,62.1647564 264.611671,62.8832378 C265.886888,63.6017192 267.502161,63.9820917 269.542507,63.9820917 C270.605187,63.9820917 271.62536,63.8130372 272.603026,63.4749284 C273.580692,63.1368195 274.51585,62.7987106 275.493516,62.4183381 C276.428674,62.0379656 277.40634,61.6998567 278.426513,61.3617479 C279.446686,61.023639 280.509366,60.8545845 281.699568,60.8545845 C283.399856,60.8545845 284.930115,61.1504298 286.205331,61.6998567 C287.480548,62.2492837 288.670749,63.0945559 289.775937,64.1934097 L294.324207,68.715616 C290.838617,72.4770774 287.012968,75.2664756 282.804755,77.1683381 C278.596542,79.027937 274.303314,80 269.882565,80 C265.801873,80 261.933718,79.239255 258.278098,77.6755014 C254.664986,76.1117479 251.476945,74.0408309 248.798991,71.3359599 C246.121037,68.6733524 243.95317,65.5458453 242.380403,61.9534384 C240.807637,58.3610315 240,54.5573066 240,50.5 C240,46.4426934 240.807637,42.6389685 242.380403,39.0465616 C243.95317,35.4541547 246.07853,32.3266476 248.798991,29.6640401 C251.476945,27.0014327 254.664986,24.8882521 258.278098,23.3244986 C261.89121,21.760745 265.759366,21 269.882565,21 C273.283141,21 276.556196,21.5916905 279.701729,22.8173352 C282.847262,24.0429799 285.695245,25.6912607 288.288184,27.7621777 C290.881124,29.8330946 293.048991,32.284384 294.876801,35.0737822 C296.704611,37.8631805 297.979827,40.7793696 298.70245,43.9068768 C298.829971,44.4985673 298.914986,45.1325215 298.957493,45.8510029 C299,46.5694842 299,47.1189112 299,47.4570201 Z M280.551873,44.2449857 C279.914265,42.8925501 279.064121,41.7091691 278.086455,40.6525788 C277.236311,39.7227794 276.131124,38.9197708 274.770893,38.1590258 C273.410663,37.3982808 271.710375,37.0179083 269.755043,37.0179083 C267.67219,37.0179083 265.929395,37.4405444 264.526657,38.2858166 C263.123919,39.1310888 262.018732,40.0608883 261.168588,41.1174785 C260.233429,42.3008596 259.4683,43.6532951 258.915706,45.1747851 C259.128242,45.0479943 259.383285,44.8789398 259.680836,44.752149 C259.935879,44.6253582 260.233429,44.5408309 260.573487,44.4140401 C260.913545,44.2872493 261.253602,44.2449857 261.678674,44.2449857 L280.551873,44.2449857 Z" id="Shape" fill="#417DD1"></path>
            <path d="M183.675911,96 L85.3240887,96 C82.9500792,96 81,94.1960784 81,92 C81,89.8039216 82.9500792,88 85.3240887,88 L183.675911,88 C186.049921,88 188,89.8039216 188,92 C188,94.1960784 186.049921,96 183.675911,96 Z" id="Shape" fill="#0073D1"></path>
        </g>
    </g>
</svg>