<?xml version="1.0" encoding="UTF-8"?>
<svg width="34px" height="34px" viewBox="0 0 34 34" version="1.1" xmlns="http://www.w3.org/2000/svg" xmlns:xlink="http://www.w3.org/1999/xlink">
    <!-- Generator: Sketch 48.1 (47250) - http://www.bohemiancoding.com/sketch -->
    <title>Sieeve-Brand-Imago</title>
    <desc>Created with Sketch.</desc>
    <defs></defs>
    <g id="CAPTURA-MAPA-POP1" stroke="none" stroke-width="1" fill="none" fill-rule="evenodd" transform="translate(-311.000000, -16.000000)">
        <g id="Sieeve-Brand-Imago" transform="translate(311.000000, 16.000000)" fill="#FFFFFF" fill-rule="nonzero">
            <path d="M32.7354931,23.4192171 L25.4218583,30.7302491 C23.7282544,32.4232503 20.9638068,32.4232503 19.2702029,30.7302491 C17.576599,29.0372479 17.576599,26.2737841 19.2702029,24.5807829 L26.5838377,17.2697509 C28.2774416,15.5767497 31.0418892,15.5767497 32.7354931,17.2697509 C34.4215023,18.9627521 34.4215023,21.7338078 32.7354931,23.4192171 Z" id="Shape"></path>
            <path d="M14.7354931,7.41921708 L7.42185831,14.7302491 C5.72825442,16.4232503 2.96380681,16.4232503 1.27020292,14.7302491 C-0.423400973,13.0372479 -0.423400973,10.2737841 1.27020292,8.58078292 L8.58383766,1.26975089 C10.2774416,-0.423250297 13.0418892,-0.423250297 14.7354931,1.26975089 C16.4215023,2.95516014 16.4215023,5.7262159 14.7354931,7.41921708 Z" id="Shape"></path>
            <path d="M32.6809859,7.74781392 L7.74758772,32.6740119 C5.97965519,34.441996 3.09388192,34.441996 1.32594939,32.6740119 C-0.441983131,30.9060277 -0.441983131,28.0201702 1.32594939,26.2521861 L26.2514196,1.32598811 C28.0193521,-0.441996036 30.9051254,-0.441996036 32.6730579,1.32598811 C34.4409905,3.08604407 34.4409905,5.97982978 32.6809859,7.74781392 Z" id="Shape"></path>
        </g>
    </g>
</svg>