<svg width="100" height="100" xmlns="http://www.w3.org/2000/svg">

 <g>
  <title>background</title>
  <rect fill="none" id="canvas_background" height="102" width="102" y="-1" x="-1"/>
 </g>
 <g>
  <title>Layer 1</title>
  <g stroke="null" id="svg_1">
   <path stroke="#ffffff" fill="#ffffff" id="svg_2" d="m39.133881,33.353036l10.605663,-21.211326c0.115073,-0.230145 0.301324,-0.416397 0.530283,-0.530283c0.58604,-0.29302 1.299016,-0.055757 1.592036,0.530283l10.712431,21.426049c0.691622,1.382058 2.009619,2.340601 3.536407,2.570746l23.68954,3.567252c0.252685,0.037962 0.487576,0.15778 0.667896,0.340473c0.460291,0.467408 0.453173,1.21716 -0.013049,1.677451l-17.067525,16.810095c-1.100901,1.083106 -1.605085,2.634807 -1.351214,4.159223l3.926705,23.630224c0.042707,0.253872 0.001186,0.513675 -0.117445,0.741447c-0.301324,0.581295 -1.017859,0.809067 -1.60034,0.506557l-21.261151,-11.037482c-1.370195,-0.711789 -3.001379,-0.711789 -4.37276,0l-21.261151,11.037482c-0.227773,0.118632 -0.488762,0.160153 -0.741447,0.118632c-0.646542,-0.107955 -1.083106,-0.718907 -0.975152,-1.365449l3.926705,-23.630224c0.252685,-1.524416 -0.250313,-3.076117 -1.351214,-4.159223l-20.02501,-19.723686c-0.699926,-0.689249 -1.826926,-0.680945 -2.517362,0.020167c-0.689249,0.699926 -0.680945,1.826926 0.018981,2.516176l20.02501,19.723686c0.275225,0.271666 0.400975,0.658405 0.3381,1.039213l-3.926705,23.63141c-0.429446,2.584982 1.317997,5.028793 3.902979,5.459425c1.013114,0.168457 2.052326,0.003559 2.964603,-0.469781l21.261151,-11.037482c0.342845,-0.177947 0.750938,-0.177947 1.093783,0l21.261151,11.037482c2.326365,1.207669 5.190132,0.300138 6.397801,-2.026227c0.47334,-0.911091 0.638238,-1.951489 0.469781,-2.963417l-3.927892,-23.63141c-0.062875,-0.380807 0.062875,-0.767546 0.3381,-1.039213l17.067525,-16.810095c1.866075,-1.839976 1.889801,-4.843727 0.051012,-6.710988c-0.720094,-0.730771 -1.658469,-1.208856 -2.675142,-1.361891l-23.688353,-3.568438c-0.381994,-0.056943 -0.711789,-0.296579 -0.883805,-0.642983l-10.712431,-21.426049c-1.17208,-2.34416 -4.022797,-3.294399 -6.366957,-2.122319c-0.918208,0.459104 -1.662028,1.204111 -2.122319,2.122319l-10.605663,21.211326c-0.440123,0.87906 -0.083042,1.947931 0.794832,2.386867c0.882619,0.438937 1.951489,0.083042 2.391613,-0.796018z"/>
  </g>
 </g>
</svg>