<?xml version="1.0" encoding="UTF-8"?>
<svg width="61px" height="61px" viewBox="0 0 61 61" version="1.1" xmlns="http://www.w3.org/2000/svg" xmlns:xlink="http://www.w3.org/1999/xlink">
    <!-- Generator: Sketch 48.1 (47250) - http://www.bohemiancoding.com/sketch -->
    <title>stopwatch</title>
    <desc>Created with Sketch.</desc>
    <defs>
        <polygon id="path-1" points="0 60.92375 61 60.92375 61 0 0 0"></polygon>
    </defs>
    <g id="DASHBOARD" stroke="none" stroke-width="1" fill="none" fill-rule="evenodd" transform="translate(-412.000000, -131.000000)">
        <g id="stopwatch" transform="translate(412.000000, 131.000000)">
            <g id="Group-3">
                <mask id="mask-2" fill="white">
                    <use xlink:href="#path-1"></use>
                </mask>
                <g id="Clip-2"></g>
                <path d="M61,30.5 C61,13.6817917 47.3182083,0 30.5,0 C13.6817917,0 0,13.6817917 0,30.5 C0,39.1276875 3.60408333,46.9217083 9.3825625,52.4765208 L9.3520625,52.5006667 L10.255625,53.3051042 C12.3804583,55.1922917 14.739125,56.7554167 17.2502917,57.9665208 C17.3545,58.0211667 17.4637917,58.0656458 17.568,58.1152083 C17.8857083,58.2651667 18.2034167,58.4087708 18.521125,58.5472917 C18.719375,58.6324375 18.9239792,58.7112292 19.1222292,58.7912917 C19.3547917,58.8853333 19.588625,58.979375 19.8224583,59.0683333 C20.0651875,59.1585625 20.3079167,59.2424375 20.5519167,59.3275833 C20.7501667,59.3962083 20.9535,59.4661042 21.1530208,59.5309167 C21.4160833,59.6147917 21.6829583,59.6948542 21.9472917,59.7736458 C22.135375,59.8282917 22.3234583,59.8829375 22.5178958,59.9325 C22.791125,60.0074792 23.0630833,60.0761042 23.3363125,60.1409167 C23.5256667,60.1904792 23.7188333,60.2349583 23.912,60.275625 C24.1852292,60.3353542 24.4584583,60.3938125 24.7316875,60.443375 C24.9401042,60.4840417 25.1434375,60.5234375 25.3467708,60.55775 C25.6149167,60.6035 25.8779792,60.6479792 26.1410417,60.6822917 C26.374875,60.7166042 26.6087083,60.7471042 26.8412708,60.77125 C27.084,60.80175 27.328,60.8309792 27.5707292,60.8563958 C27.8592083,60.885625 28.1464167,60.9059583 28.4399792,60.9212083 C28.6331458,60.9351875 28.8275833,60.9555208 29.02075,60.9606042 C29.5125625,60.98475 30.0031042,61 30.5,61 C30.9918125,61 31.4823542,60.98475 31.9741667,60.9606042 C32.1724167,60.9555208 32.3668542,60.9351875 32.5651042,60.9212083 C32.8485,60.900875 33.1357083,60.885625 33.4191042,60.8563958 C33.672,60.8309792 33.916,60.80175 34.1638125,60.77125 C34.3912917,60.7471042 34.6149583,60.7166042 34.8437083,60.687375 C35.1169375,60.6479792 35.3850833,60.6035 35.6583125,60.5526667 C35.8514792,60.5234375 36.0446458,60.489125 36.2390833,60.4484583 C36.5262917,60.3938125 36.8147708,60.3353542 37.0968958,60.275625 C37.271,60.2349583 37.4451042,60.1955625 37.6230208,60.1510833 C37.9115,60.0811875 38.2037917,60.0074792 38.4922708,59.9325 C38.6612917,59.8829375 38.8252292,59.8384583 38.9891667,59.7888958 C39.2814583,59.70375 39.5699375,59.619875 39.8520625,59.5258333 C40.0210833,59.4711875 40.1901042,59.4114583 40.359125,59.3568125 C40.6323542,59.2627708 40.9093958,59.1687292 41.182625,59.0645208 C41.3719792,58.994625 41.5600625,58.9145625 41.7532292,58.8408542 C41.9972292,58.7417292 42.2399583,58.6464167 42.478875,58.5472917 C42.7521042,58.4291042 43.0151667,58.3045625 43.2833125,58.1800208 C43.4370833,58.1113958 43.5959375,58.0415 43.7497083,57.9665208 C46.2418125,56.7655833 48.5750625,55.2215208 50.6846458,53.35975 L51.5932917,52.5603958 L51.5577083,52.5311667 C57.3717708,46.9763542 61,39.1569167 61,30.5 Z M2.035875,30.5 C2.035875,14.8026667 14.8026667,2.035875 30.5,2.035875 C46.1973333,2.035875 58.964125,14.8026667 58.964125,30.5 C58.964125,38.6905208 55.4845833,46.0829583 49.9297708,51.2806667 C44.27075,47.0106667 37.5594792,44.7320625 30.4402708,44.7320625 C23.3515625,44.7320625 16.6593542,46.9916042 11.0155833,51.2260208 C5.49508333,46.0333958 2.035875,38.666375 2.035875,30.5 Z M48.0730833,52.8692083 C47.6066875,53.2364792 47.1402917,53.5885 46.6535625,53.9214583 C46.5239375,54.0104167 46.4006667,54.099375 46.2710417,54.1845208 C45.7296667,54.5467083 45.1743125,54.88475 44.6126042,55.2062708 C44.4893333,55.2761667 44.3647917,55.3511458 44.24025,55.4197708 C43.6353333,55.7527292 43.0151667,56.0653542 42.3886458,56.3538333 C42.280625,56.4033958 42.1713333,56.4529583 42.0620417,56.5025208 C41.396125,56.7998958 40.7263958,57.073125 40.0465,57.317125 C39.9969375,57.3311042 39.947375,57.3463542 39.8927292,57.3666875 C38.4630417,57.8673958 36.9876042,58.2499167 35.4892917,58.5180625 C35.3990625,58.537125 35.3101042,58.552375 35.2262292,58.567625 C34.51075,58.6870833 33.7914583,58.781125 33.0670833,58.8459375 C32.9527083,58.8548333 32.8383333,58.8599167 32.7239583,58.8700833 C31.9843333,58.9298125 31.2447083,58.964125 30.5,58.964125 C29.7502083,58.964125 29.0055,58.9298125 28.265875,58.8700833 C28.1515,58.8599167 28.037125,58.8548333 27.9189375,58.8459375 C27.198375,58.781125 26.4790833,58.6870833 25.7686875,58.567625 C25.6695625,58.5472917 25.5755208,58.5333125 25.4763958,58.5129792 C24.7367708,58.3833542 24.0022292,58.2245 23.2765833,58.0364167 L23.2676875,58.0313333 C22.531875,57.8381667 21.8075,57.6145 21.0882083,57.3616042 C21.0284792,57.3412708 20.96875,57.3209375 20.9090208,57.301875 C20.2392917,57.057875 19.573375,56.791 18.9239792,56.4974375 C18.7994375,56.4427917 18.6748958,56.3881458 18.551625,56.3284167 C17.9352708,56.0462917 17.3303542,55.7374792 16.7394167,55.410875 C16.5958125,55.3308125 16.4509375,55.2469375 16.3124167,55.1617917 C15.7418125,54.8339167 15.1801042,54.4920625 14.6349167,54.1247917 C14.5002083,54.0358333 14.3756667,53.9405208 14.2422292,53.8515625 C13.7758333,53.5236875 13.3145208,53.17675 12.8621042,52.818375 C12.7629792,52.7395833 12.6587708,52.6646042 12.5596458,52.5858125 C17.7815,48.7733125 23.9374167,46.7679375 30.4402708,46.7679375 C36.9685417,46.7679375 43.1435208,48.7885625 48.3755417,52.6302917 C48.2764167,52.7103542 48.1722083,52.7891458 48.0730833,52.8692083 Z" id="Fill-1" fill="#3B4045" mask="url(#mask-2)"></path>
            </g>
            <path d="M30.5,8 C30.7752809,8 31,7.55611128 31,7.00468897 L31,5.00156299 C31,4.45014067 30.7752809,4 30.5,4 C30.2247191,4 30,4.45014067 30,5.00156299 L30,7.00468897 C30,7.55611128 30.2247191,8 30.5,8 Z" id="Fill-4" fill="#3B4045"></path>
            <path d="M53,30.5 C53,30.7752809 53.4488903,31 54.001563,31 L55.998437,31 C56.5561113,31 57,30.7752809 57,30.5 C57,30.2247191 56.5561113,30 55.998437,30 L54.001563,30 C53.4488903,30 53,30.2247191 53,30.5 Z" id="Fill-5" fill="#3B4045"></path>
            <path d="M8,30.5 C8,30.2247191 7.55110972,30 6.99843701,30 L5.00156299,30 C4.44388872,30 4,30.2247191 4,30.5 C4,30.7752809 4.44388872,31 5.00156299,31 L6.99843701,31 C7.55110972,31 8,30.7752809 8,30.5 Z" id="Fill-6" fill="#3B4045"></path>
            <path d="M42.5013336,11.8579388 C42.6575027,11.9584538 42.8286641,12 42.9985761,12 C43.3458962,12 43.6819722,11.8056709 43.8681258,11.4666003 L44.8688576,9.60774238 C45.1412166,9.09444565 44.9750526,8.44042788 44.5027972,8.1415632 C44.0242949,7.84805932 43.4096132,8.02630597 43.1360049,8.5342419 L42.1352731,10.3930998 C41.8566674,10.9063965 42.0228313,11.5604143 42.5013336,11.8579388 Z" id="Fill-7" fill="#3B4045"></path>
            <path d="M53.4623776,43.1334198 L51.6054327,42.1313215 C51.0976534,41.8585906 50.4384782,42.0249815 50.1450648,42.4978818 C49.8462923,42.9770374 50.024484,43.5925585 50.5376224,43.8665405 L52.3905479,44.8686388 C52.5633805,44.9612172 52.7455915,45 52.9291423,45 C53.2949042,45 53.6566467,44.8248517 53.8549352,44.5020785 C54.1537077,44.0229228 53.975516,43.412406 53.4623776,43.1334198 Z" id="Fill-8" fill="#3B4045"></path>
            <path d="M7.53762242,19.8681011 L9.39456729,20.862573 C9.56204067,20.9562732 9.7455915,21 9.92914233,21 C10.3002633,21 10.6566467,20.8188462 10.8549352,20.4965174 C11.1537077,20.0192708 10.975516,19.4083453 10.4623776,19.1359899 L8.60945207,18.1352713 C8.09765341,17.8566693 7.43713839,18.022831 7.14506481,18.5013269 C6.8462923,18.9798228 7.02448398,19.5894991 7.53762242,19.8681011 Z" id="Fill-9" fill="#3B4045"></path>
            <path d="M17.1322854,11.4654156 C17.3183981,11.8057275 17.6544,12 18.0016437,12 C18.1715184,12 18.342642,11.9571261 18.4987768,11.8579801 C18.9771737,11.5592024 19.1433011,10.9053749 18.8647567,10.3922275 L17.8642452,8.53525018 C17.5919461,8.02210278 16.9761507,7.84926723 16.4990029,8.14268572 C16.020606,8.44012364 15.8594749,9.09529095 16.133023,9.60709854 L17.1322854,11.4654156 Z" id="Fill-10" fill="#3B4045"></path>
            <path d="M51.0708577,19 C51.2544085,19 51.4379593,18.9562732 51.6054327,18.8675703 L53.4623776,17.8681011 C53.975516,17.5894991 54.1537077,16.9798228 53.8549352,16.5013269 C53.5575025,16.022831 52.9023466,15.8566693 52.3892081,16.1352713 L50.5376224,17.1359899 C50.024484,17.4133426 49.8462923,18.0242682 50.1450648,18.5015147 C50.3433533,18.8188462 50.6997367,19 51.0708577,19 Z" id="Fill-11" fill="#3B4045"></path>
            <path d="M10.8549369,42.5006375 C10.5615271,42.0232593 9.90235973,41.8570517 9.38922743,42.1344809 L7.53632411,43.1354756 C7.02453158,43.4091558 6.84634204,44.0190002 7.14511097,44.4976281 C7.34339709,44.8200459 7.70379549,45 8.07625183,45 C8.25444138,45 8.44200932,44.9562612 8.6094807,44.8637847 L10.462384,43.8677888 C10.9755163,43.5891099 11.1537059,42.9792654 10.8549369,42.5006375 Z" id="Fill-12" fill="#3B4045"></path>
            <path d="M29.9219202,34 C30.9701358,34 31.9570523,33.5800328 32.6950942,32.8275916 C33.436814,32.0714007 33.8438404,31.0652293 33.8438404,29.9965628 C33.8438404,29.3516132 33.6807846,28.7366612 33.3988085,28.1792047 L41.7122004,19.7036169 C42.0959332,19.3136474 42.0959332,18.6836966 41.7122004,18.2924772 C41.3296937,17.9025076 40.7068942,17.9025076 40.3231615,18.2924772 L32.1004923,26.6755722 C30.592533,25.6843997 28.4470624,25.8456371 27.1487462,27.1692836 C26.4070264,27.9254746 26,28.9266464 26,29.9965628 C26,31.0652293 26.4070264,32.0714007 27.1487462,32.8275916 C27.8867881,33.5800328 28.8737046,34 29.9219202,34 Z M28.5328813,28.585423 C28.9068061,28.2042028 29.3996514,27.9992188 29.9219202,27.9992188 C30.444189,27.9992188 30.9370343,28.2042028 31.3109591,28.585423 C31.6799801,28.9603937 31.8859453,29.4641044 31.8859453,29.9965628 C31.8859453,30.5327709 31.6799801,31.0364815 31.3109591,31.4114522 C30.5680133,32.1688931 29.2758271,32.1688931 28.5328813,31.4114522 C28.1638603,31.0364815 27.9578951,30.5327709 27.9578951,29.9965628 C27.9578951,29.4641044 28.1638603,28.9603937 28.5328813,28.585423 Z" id="Fill-13" fill="#3B4045"></path>
        </g>
    </g>
</svg>