<?xml version="1.0" encoding="UTF-8"?>
<svg width="45px" height="45px" viewBox="0 0 45 45" version="1.1" xmlns="http://www.w3.org/2000/svg" xmlns:xlink="http://www.w3.org/1999/xlink">
    <!-- Generator: Sketch 48.1 (47250) - http://www.bohemiancoding.com/sketch -->
    <title>stopwatch copy</title>
    <desc>Created with Sketch.</desc>
    <defs>
        <polygon id="path-1" points="0 44.94375 45 44.94375 45 0 0 0"></polygon>
    </defs>
    <g id="DASHBOARD" stroke="none" stroke-width="1" fill="none" fill-rule="evenodd" transform="translate(-66.000000, -247.000000)">
        <g id="MENU-GERENCIA" transform="translate(38.000000, 108.000000)">
            <g id="stopwatch-copy" transform="translate(28.000000, 139.000000)">
                <g id="Group-3">
                    <mask id="mask-2" fill="white">
                        <use xlink:href="#path-1"></use>
                    </mask>
                    <g id="Clip-2"></g>
                    <path d="M45,22.5 C45,10.093125 34.906875,0 22.5,0 C10.093125,0 0,10.093125 0,22.5 C0,28.8646875 2.65875,34.614375 6.9215625,38.7121875 L6.8990625,38.73 L7.565625,39.3234375 C9.133125,40.715625 10.873125,41.86875 12.725625,42.7621875 C12.8025,42.8025 12.883125,42.8353125 12.96,42.871875 C13.194375,42.9825 13.42875,43.0884375 13.663125,43.190625 C13.809375,43.2534375 13.9603125,43.3115625 14.1065625,43.370625 C14.278125,43.44 14.450625,43.509375 14.623125,43.575 C14.8021875,43.6415625 14.98125,43.7034375 15.16125,43.76625 C15.3075,43.816875 15.4575,43.8684375 15.6046875,43.91625 C15.79875,43.978125 15.995625,44.0371875 16.190625,44.0953125 C16.329375,44.135625 16.468125,44.1759375 16.6115625,44.2125 C16.813125,44.2678125 17.01375,44.3184375 17.2153125,44.36625 C17.355,44.4028125 17.4975,44.435625 17.64,44.465625 C17.8415625,44.5096875 18.043125,44.5528125 18.2446875,44.589375 C18.3984375,44.619375 18.5484375,44.6484375 18.6984375,44.67375 C18.89625,44.7075 19.0903125,44.7403125 19.284375,44.765625 C19.456875,44.7909375 19.629375,44.8134375 19.8009375,44.83125 C19.98,44.85375 20.16,44.8753125 20.3390625,44.8940625 C20.551875,44.915625 20.76375,44.930625 20.9803125,44.941875 C21.1228125,44.9521875 21.26625,44.9671875 21.40875,44.9709375 C21.7715625,44.98875 22.1334375,45 22.5,45 C22.8628125,45 23.2246875,44.98875 23.5875,44.9709375 C23.73375,44.9671875 23.8771875,44.9521875 24.0234375,44.941875 C24.2325,44.926875 24.444375,44.915625 24.6534375,44.8940625 C24.84,44.8753125 25.02,44.85375 25.2028125,44.83125 C25.370625,44.8134375 25.535625,44.7909375 25.704375,44.769375 C25.9059375,44.7403125 26.10375,44.7075 26.3053125,44.67 C26.4478125,44.6484375 26.5903125,44.623125 26.73375,44.593125 C26.945625,44.5528125 27.1584375,44.5096875 27.3665625,44.465625 C27.495,44.435625 27.6234375,44.4065625 27.7546875,44.37375 C27.9675,44.3221875 28.183125,44.2678125 28.3959375,44.2125 C28.520625,44.1759375 28.6415625,44.143125 28.7625,44.1065625 C28.978125,44.04375 29.1909375,43.981875 29.3990625,43.9125 C29.52375,43.8721875 29.6484375,43.828125 29.773125,43.7878125 C29.9746875,43.7184375 30.1790625,43.6490625 30.380625,43.5721875 C30.5203125,43.520625 30.6590625,43.4615625 30.8015625,43.4071875 C30.9815625,43.3340625 31.160625,43.26375 31.336875,43.190625 C31.5384375,43.1034375 31.7325,43.0115625 31.9303125,42.9196875 C32.04375,42.8690625 32.1609375,42.8175 32.274375,42.7621875 C34.1128125,41.87625 35.8340625,40.7371875 37.3903125,39.36375 L38.060625,38.7740625 L38.034375,38.7525 C42.3234375,34.6546875 45,28.88625 45,22.5 Z M1.501875,22.5 C1.501875,10.92 10.92,1.501875 22.5,1.501875 C34.08,1.501875 43.498125,10.92 43.498125,22.5 C43.498125,28.5421875 40.93125,33.995625 36.8334375,37.83 C32.65875,34.68 27.7078125,32.9990625 22.4559375,32.9990625 C17.2265625,32.9990625 12.2896875,34.6659375 8.12625,37.7896875 C4.05375,33.9590625 1.501875,28.524375 1.501875,22.5 Z M35.46375,39.001875 C35.1196875,39.2728125 34.775625,39.5325 34.4165625,39.778125 C34.3209375,39.84375 34.23,39.909375 34.134375,39.9721875 C33.735,40.239375 33.3253125,40.48875 32.9109375,40.7259375 C32.82,40.7775 32.728125,40.8328125 32.63625,40.8834375 C32.19,41.1290625 31.7325,41.3596875 31.2703125,41.5725 C31.190625,41.6090625 31.11,41.645625 31.029375,41.6821875 C30.538125,41.9015625 30.0440625,42.103125 29.5425,42.283125 C29.5059375,42.2934375 29.469375,42.3046875 29.4290625,42.3196875 C28.374375,42.6890625 27.2859375,42.97125 26.180625,43.1690625 C26.1140625,43.183125 26.0484375,43.194375 25.9865625,43.205625 C25.45875,43.29375 24.928125,43.363125 24.39375,43.4109375 C24.309375,43.4175 24.225,43.42125 24.140625,43.42875 C23.595,43.4728125 23.049375,43.498125 22.5,43.498125 C21.946875,43.498125 21.3975,43.4728125 20.851875,43.42875 C20.7675,43.42125 20.683125,43.4175 20.5959375,43.4109375 C20.064375,43.363125 19.53375,43.29375 19.0096875,43.205625 C18.9365625,43.190625 18.8671875,43.1803125 18.7940625,43.1653125 C18.2484375,43.0696875 17.7065625,42.9525 17.17125,42.81375 L17.1646875,42.81 C16.621875,42.6675 16.0875,42.5025 15.556875,42.3159375 C15.5128125,42.3009375 15.46875,42.2859375 15.4246875,42.271875 C14.930625,42.091875 14.439375,41.895 13.9603125,41.6784375 C13.8684375,41.638125 13.7765625,41.5978125 13.685625,41.55375 C13.2309375,41.345625 12.7846875,41.1178125 12.34875,40.876875 C12.2428125,40.8178125 12.1359375,40.7559375 12.03375,40.693125 C11.6128125,40.45125 11.1984375,40.1990625 10.79625,39.928125 C10.696875,39.8625 10.605,39.7921875 10.5065625,39.7265625 C10.1625,39.4846875 9.8221875,39.22875 9.4884375,38.964375 C9.4153125,38.90625 9.3384375,38.8509375 9.2653125,38.7928125 C13.1175,35.9803125 17.65875,34.5009375 22.4559375,34.5009375 C27.271875,34.5009375 31.8271875,35.9915625 35.686875,38.825625 C35.61375,38.8846875 35.536875,38.9428125 35.46375,39.001875 Z" id="Fill-1" fill="#FFFFFF" mask="url(#mask-2)"></path>
                </g>
                <path d="M22.5,5.19230769 C22.9764477,5.19230769 23.3653846,4.90420684 23.3653846,4.54631255 L23.3653846,3.24620675 C23.3653846,2.88831245 22.9764477,2.59615385 22.5,2.59615385 C22.0235523,2.59615385 21.6346154,2.88831245 21.6346154,3.24620675 L21.6346154,4.54631255 C21.6346154,4.90420684 22.0235523,5.19230769 22.5,5.19230769 Z" id="Fill-4" fill="#FFFFFF"></path>
                <path d="M38.9423077,22.5 C38.9423077,22.9764477 39.2336547,23.3653846 39.5923606,23.3653846 L40.8884086,23.3653846 C41.2503607,23.3653846 41.5384615,22.9764477 41.5384615,22.5 C41.5384615,22.0235523 41.2503607,21.6346154 40.8884086,21.6346154 L39.5923606,21.6346154 C39.2336547,21.6346154 38.9423077,22.0235523 38.9423077,22.5 Z" id="Fill-5" fill="#FFFFFF"></path>
                <path d="M5.19230769,22.5 C5.19230769,22.0235523 4.90096064,21.6346154 4.54225479,21.6346154 L3.24620675,21.6346154 C2.88425469,21.6346154 2.59615385,22.0235523 2.59615385,22.5 C2.59615385,22.9764477 2.88425469,23.3653846 3.24620675,23.3653846 L4.54225479,23.3653846 C4.90096064,23.3653846 5.19230769,22.9764477 5.19230769,22.5 Z" id="Fill-6" fill="#FFFFFF"></path>
                <path d="M30.7223079,8.56164295 C30.8574542,8.62688107 31.0055747,8.65384615 31.1526139,8.65384615 C31.4531794,8.65384615 31.7440144,8.52771913 31.9051089,8.30764921 L32.7711268,7.10117895 C33.006822,6.76802963 32.8630263,6.34354694 32.4543437,6.14957227 C32.0402552,5.95907697 31.5083191,6.07476589 31.2715427,6.40443585 L30.4055248,7.61090611 C30.1644237,7.94405543 30.3082194,8.36853812 30.7223079,8.56164295 Z" id="Fill-7" fill="#FFFFFF"></path>
                <path d="M39.4587547,32.1346902 L38.253526,31.2674897 C37.9239577,31.0314726 37.4961277,31.1754647 37.3056911,31.5847054 C37.1117762,31.9993593 37.2274295,32.5320218 37.5604761,32.7691215 L38.763096,33.636322 C38.875271,33.7164379 38.9935329,33.75 39.1126645,33.75 C39.350058,33.75 39.5848428,33.5984294 39.7135397,33.3191064 C39.9074545,32.9044525 39.7918013,32.3761206 39.4587547,32.1346902 Z" id="Fill-8" fill="#FFFFFF"></path>
                <path d="M5.54124532,13.7320106 L6.74647396,14.5926112 C6.85517063,14.673698 6.97430218,14.7115385 7.09343372,14.7115385 C7.33430554,14.7115385 7.56561204,14.5547708 7.6943089,14.2758323 C7.88822375,13.8628305 7.7725705,13.3341449 7.43952391,13.0984528 L6.23690399,12.2324463 C5.90472697,11.9913484 5.47602732,12.1351422 5.28646033,12.5492252 C5.09254548,12.9633082 5.20819873,13.4909126 5.54124532,13.7320106 Z" id="Fill-9" fill="#FFFFFF"></path>
                <path d="M13.095247,8.30688034 C13.256306,8.52775582 13.547077,8.65384615 13.8475763,8.65384615 C13.9945832,8.65384615 14.142671,8.62601932 14.2777876,8.56166977 C14.6917849,8.36775153 14.835549,7.94339234 14.594501,7.61033994 L13.7286737,6.40509026 C13.4930303,6.07203786 12.9601304,5.95986094 12.547214,6.15030083 C12.1332167,6.34334948 11.9937764,6.76857826 12.2305007,7.10076107 L13.095247,8.30688034 Z" id="Fill-10" fill="#FFFFFF"></path>
                <path d="M37.0411817,14.7115385 C37.1603132,14.7115385 37.2794448,14.673698 37.3881414,14.5969359 L38.5933701,13.7320106 C38.9264167,13.4909126 39.0420699,12.9633082 38.8481551,12.5492252 C38.6551098,12.1351422 38.2298884,11.9913484 37.8968418,12.2324463 L36.6950915,13.0984528 C36.3620449,13.3384696 36.2463916,13.8671551 36.4403065,14.280157 C36.5690033,14.5547708 36.8003098,14.7115385 37.0411817,14.7115385 Z" id="Fill-11" fill="#FFFFFF"></path>
                <path d="M7.69431002,30.7217055 C7.50387574,30.3085898 7.07605079,30.1647562 6.74300819,30.4048392 L5.54040267,31.2710846 C5.20822963,31.5079233 5.09257776,32.0356733 5.2864903,32.4498705 C5.41518561,32.7288859 5.64909803,32.8846154 5.89083653,32.8846154 C6.00648839,32.8846154 6.1282272,32.8467645 6.23692257,32.7667368 L7.43952809,31.9048172 C7.77257069,31.6636528 7.88822256,31.1359028 7.69431002,30.7217055 Z" id="Fill-12" fill="#FFFFFF"></path>
                <path d="M22.0081848,25.0961538 C22.8019057,25.0961538 23.5492103,24.7781498 24.1080641,24.2083927 C24.6697029,23.6357962 24.977908,22.8739116 24.977908,22.064705 C24.977908,21.5763417 24.8544403,21.110693 24.6409247,20.6885805 L30.935921,14.2707676 C31.2264879,13.9754782 31.2264879,13.4984722 30.935921,13.2022363 C30.6462825,12.9069469 30.1746916,12.9069469 29.8841247,13.2022363 L23.6578247,19.5500126 C22.5159805,18.7994853 20.8914054,18.9215761 19.9083054,19.9238566 C19.3466666,20.4964531 19.0384615,21.2545519 19.0384615,22.064705 C19.0384615,22.8739116 19.3466666,23.6357962 19.9083054,24.2083927 C20.4671593,24.7781498 21.2144638,25.0961538 22.0081848,25.0961538 Z M20.9563884,20.9961737 C21.2395287,20.7075093 21.6127168,20.5522931 22.0081848,20.5522931 C22.4036528,20.5522931 22.7768409,20.7075093 23.0599811,20.9961737 C23.339408,21.2801058 23.4953672,21.6615213 23.4953672,22.064705 C23.4953672,22.4707279 23.339408,22.8521435 23.0599811,23.1360756 C22.4974139,23.7096185 21.5189556,23.7096185 20.9563884,23.1360756 C20.6769615,22.8521435 20.5210023,22.4707279 20.5210023,22.064705 C20.5210023,21.6615213 20.6769615,21.2801058 20.9563884,20.9961737 Z" id="Fill-13" fill="#FFFFFF"></path>
            </g>
        </g>
    </g>
</svg>